<svg xmlns="http://www.w3.org/2000/svg" width="230.37085mm" height="204.252mm" viewBox="0 0 230.37085 204.252"><defs><linearGradient id="a" x1="0" x2="1" y1="0" y2="0" gradientTransform="matrix(0 -33.70153 33.70153 0 420.053 187.905)" gradientUnits="userSpaceOnUse" spreadMethod="pad"><stop offset="0" style="stop-opacity:1;stop-color:#22b2e9"/><stop offset="0.172798" style="stop-opacity:1;stop-color:#22b2e9"/><stop offset="0.416304" style="stop-opacity:1;stop-color:#b3dcf6"/><stop offset="0.782438" style="stop-opacity:1;stop-color:#fff"/><stop offset="1" style="stop-opacity:1;stop-color:#fff"/></linearGradient></defs><path d="M0 0c-.567 3.134-6.03 6.876-6.804 7.283-1.327 4.043-2.935 6.589-4.463 8.152-1.371 1.398-3.416 2.549-5.646 2.549-2.377 0-4.466-.978-5.76-2.445-1.5-1.7-2.147-3.459-2.005-5.713.11-1.717 1.327-4.858 1.327-4.858a49.904 49.904 0 0 0-4.012-4.995C-28.63-1.404-29.1-2.183-29.041-2.8c.021-.438.35-.908 1.019-.908.451 0 2.027.322 3.792 1.304-1.191-3.024-1.024-6.093.173-8.282a7.115 7.115 0 0 1 2.793-2.835l-1.231-.7c-.519-.254-.678-.613-.614-1.012.061-.371.506-.776 1.057-.818.033-.002.258-.021.175-.208-.133-.288.029-.58.676-.711 2.487-.526 4.512.606 4.575 2.394 0 0 .884-.151 1.458-.043.062-2.176 2.42-3.089 4.493-2.704.725.134 1.32.42 1.18.862-.019.132-.108.273.136.276.295.004.574.277.585.683.012.333-.268.629-.495.754-.98.441-1.373.999-1.373.999.909.495 2.908 1.783 4.243 4.764 1.226 2.737 1.534 6.017.717 10.225.432-.193 4.426-2.182 4.835-2.182.02 0 .501-.165.723.228A.991.991 0 0 1 0 0" style="fill:#002f75;fill-opacity:1;fill-rule:nonzero;stroke:none" transform="matrix(3.49449 0 0 -3.49449 230.303 62.845)"/><path d="M412.236 185.752c-1.064-1.15-1.885-2.525-1.779-4.957.096-2.275.815-3.491 1.385-4.989.03-.081-3.132-4.366-4.395-5.81-.292-.335-.919-1.04-1.265-1.538-.457-.842 1.094-.383 2.521.173 1.401.511 2.586 1.392 2.586 1.392s.925.784.501.031c0 0-.351-.632-.477-.894-1.43-3.744-1.43-6.206-.269-8.648.945-1.991 3.051-2.989 3.36-3.07-.177-.212-.673-.557-1.76-1.215-.937-.4-.41-.979.302-.903.059.005.619.031.372-.215-.243-.259.136-.443.506-.519.999-.201 2.314.457 2.751 1.122.43.657.069.746.069.746-.759.318-.992.776-.75.776a19.328 19.328 0 0 1 1.413-.281 12.768 12.768 0 0 1 2.045-.082c.569.027 1.276.203 1.72.321.241 0 .113-.426-1.004-.78-.088-.027-.541-.303.266-1.153.756-.797 1.487-1.056 2.769-1.056.612 0 .806.346.591.603-.108.161.06.21.207.224.425.044.543.446.125.609-.904.401-1.572 1.251-1.704 1.758 8.433 4.283 5.052 15.849 5.041 15.874-.176.379.067.225.11.213 0 0 3.799-1.624 5.393-2.611 1.515-.939-1.372 4.202-6.255 6.671-2.704 9.23-7.537 10.361-9.151 10.361-2.158 0-3.814-.633-5.224-2.153" style="fill:url(#a);stroke:none" transform="matrix(3.49449 0 0 -3.49449 -1287.195 659.718)"/><path d="M0 0c-1.052.994-1.725 1.379-2.784 1.379-1.516 0-2.339-1.368-1.83-2.448.233-.496.741-.967 1.237-1.343.621-.393 1.636-.969 1.617-2.274-.018-1.282-1.005-2.201-2.338-2.25-1.579-.06-2.139 1.34-2.139 1.342-.257.486-.157 1.387-.111 1.564.293 1.795-1.074 2.753-2.074 2.566-2.287-.428-2.073-3.565-.128-7.317.148-.362.897-1.872-.689-7.136v.001c-.599-2.662-1.607-6.143 1.799-9.257 1.496-1.369 4.975-2.062 7.014-.995 1.944 1.017 4.009 2.707 4.95 7.276C6.023-12.041 3.62-3.648 0 0" style="fill:#fff;fill-opacity:1;fill-rule:nonzero;stroke:none" transform="matrix(3.49449 0 0 -3.49449 185.525 13.851)"/><path d="M0 0c-.213.341-.071.813.312 1.052.383.24.869.155 1.081-.185.214-.343.072-.812-.313-1.054C.697-.424.213-.342 0 0" style="fill:#002f75;fill-opacity:1;fill-rule:nonzero;stroke:none" transform="matrix(3.49449 0 0 -3.49449 177.011 19.337)"/><path d="M0 0c-.213.341-.072.813.311 1.051.385.241.871.156 1.082-.184.214-.343.071-.813-.313-1.054C.698-.424.213-.342 0 0" style="fill:#002f75;fill-opacity:1;fill-rule:nonzero;stroke:none" transform="matrix(3.49449 0 0 -3.49449 154.3 31.969)"/><path d="M0 0c-.494.788-.281 2.031.525 2.491.806.462 1.829.087 2.323-.699A1.683 1.683 0 0 0 0 0" style="fill:#fff;fill-opacity:1;fill-rule:nonzero;stroke:none" transform="matrix(3.49449 0 0 -3.49449 166.237 33.356)"/><path d="M0 0c-.235 0-.456-.058-.657-.173-.305-.174-.529-.492-.63-.894-.116-.46-.05-.947.177-1.308a1.48 1.48 0 0 1 2.035-.463c.686.433.896 1.346.463 2.036C1.081-.315.536 0 0 0m.14-3.477a1.88 1.88 0 0 0-1.601.882c-.284.454-.37 1.063-.227 1.628.127.513.421.922.826 1.153.851.487 2.04.124 2.6-.768a1.895 1.895 0 0 0-.594-2.607A1.89 1.89 0 0 0 .14-3.477" style="fill:#002f75;fill-opacity:1;fill-rule:nonzero;stroke:none" transform="matrix(3.49449 0 0 -3.49449 170.729 24.673)"/><path d="M0 0a.066.066 0 0 1-.08-.005c-.003-.002-.259-.201-.665-.201-.067 0-.134.006-.202.016a1.3 1.3 0 0 1-.212.018c-.792 0-1.05-.77-1.049-.77v.001c-.254-.464-.425-.542-.495-.551a.865.865 0 0 0-.107.043.071.071 0 0 1-.084-.021.068.068 0 0 1 .002-.086.218.218 0 0 1 .168-.074c.168-.058.494-.151.864-.151.668 0 1.537.296 1.889 1.706A.07.07 0 0 1 0 0" style="fill:#002f75;fill-opacity:1;fill-rule:nonzero;stroke:none" transform="matrix(3.49449 0 0 -3.49449 176.326 27.734)"/><path d="M0 0a.567.567 0 0 1-.572-.57v-3.863c0-1.28-.347-1.732-.732-2.122-.376-.376-.861-.557-1.478-.557-.687 0-1.236.221-1.618.657-.337.417-.5 1.026-.5 1.86V-.57a.57.57 0 1 1-1.14 0c0-.004.003-.007.003-.007V-4.61c0-1.062.222-1.876.665-2.415.335-.421 1.123-1.134 2.59-1.134 1.295 0 1.961.653 2.265 1.086v-.809a.542.542 0 1 1 1.085 0V-.57C.568-.252.313 0 0 0m5.854-7.112c-1.676 0-2.894 1.204-2.894 2.868 0 1.916 1.455 2.916 2.894 2.916 1.557 0 2.824-1.303 2.824-2.908 0-1.614-1.241-2.876-2.824-2.876M9.198 0a.568.568 0 0 1-.573-.57v-.998C7.744-.412 6.41-.283 5.854-.283c-2.526 0-4.035-1.993-4.035-3.924 0-2.217 1.775-3.952 4.035-3.952.547 0 1.863.132 2.771 1.282v-1.005a.57.57 0 1 1 1.14 0V-.57c0 .318-.255.57-.567.57M-11.46-7.112c-1.649 0-2.895 1.233-2.895 2.868 0 1.916 1.455 2.916 2.895 2.916 1.557 0 2.828-1.303 2.828-2.908 0-1.614-1.243-2.876-2.828-2.876M-8.118 0a.57.57 0 0 1-.57-.57v-1.001C-9.577-.412-10.905-.283-11.46-.283c-2.526 0-4.036-1.993-4.036-3.924 0-2.217 1.773-3.952 4.036-3.952.551 0 1.876.132 2.772 1.278V-10.448a.571.571 0 1 1 1.142 0V-.57c0 .318-.255.57-.572.57m-12.406-7.112c-1.679 0-2.892 1.204-2.892 2.868 0 1.916 1.455 2.916 2.892 2.916 1.557 0 2.827-1.303 2.827-2.908 0-1.614-1.242-2.876-2.827-2.876m3.915 6.542a.57.57 0 0 1-.571.57.57.57 0 0 1-.575-.57v-.998c-.879 1.156-2.213 1.285-2.769 1.285-2.523 0-4.032-1.993-4.032-3.924 0-2.217 1.772-3.952 4.032-3.952.545 0 1.866.132 2.769 1.284v-1.007a.572.572 0 0 1 1.146 0l-.004.009v7.29c0 .006.004.009.004.013" style="fill:#002f75;fill-opacity:1;fill-rule:nonzero;stroke:none" transform="matrix(3.49449 0 0 -3.49449 85.81 93.13)"/><path d="M0 0c-1.679 0-2.893 1.205-2.893 2.866 0 1.917 1.455 2.921 2.893 2.921 1.558 0 2.828-1.305 2.828-2.91C2.828 1.261 1.584 0 0 0m3.341 7.113a.57.57 0 0 1-.57-.572v-.996C1.889 6.7.558 6.834 0 6.834c-2.523 0-4.032-1.998-4.032-3.928C-4.032.688-2.259-1.047 0-1.047c.549 0 1.867.133 2.771 1.283v-1a.57.57 0 1 1 1.143-.005v7.31a.574.574 0 0 1-.573.572m11.047-3.625c.299 1.578 1.612 2.299 2.725 2.299 1.104 0 2.411-.721 2.736-2.299zm2.71 3.346c-2.15-.044-3.899-1.817-3.899-3.957a3.924 3.924 0 0 1 3.914-3.924c1.52 0 2.918.903 3.558 2.295l.009.029c.143.418-.081.665-.348.758a.554.554 0 0 1-.706-.38C19.351.911 18.524.028 17.1 0c-1.357 0-2.603 1.128-2.724 2.443h6.545c.057 0 .102.039.104.097.051.883-.143 1.682-.574 2.372a3.912 3.912 0 0 1-3.353 1.922m8.802-.188h-1.653v2.479a.571.571 0 0 1-.572.568.567.567 0 0 1-.565-.568V6.646h-1.438a.523.523 0 0 1 0-1.048h1.438V-.769c0-.025.007-.041.023-.058a.556.556 0 0 1 1.089-.009.091.091 0 0 1 .025.067v6.367H25.9c.283 0 .521.236.521.523 0 .29-.238.525-.521.525m-17.183.188c-1.02 0-1.758-.458-2.172-.949v.656a.57.57 0 0 1-.569.572.571.571 0 0 1-.569-.572V-.769a.57.57 0 1 1 1.138 0v4.023c-.01.828.219 1.517.652 1.932.571.558 1.308.601 1.52.601.213 0 .948-.043 1.521-.604.428-.409.666-1.095.666-1.929V-.769a.566.566 0 1 1 1.135 0v4.023c0 1.135-.321 2.052-.937 2.653-.642.639-1.377.927-2.385.927M-11.618 0c-1.586 0-2.823 1.261-2.823 2.877 0 1.605 1.263 2.91 2.823 2.91 1.438 0 2.893-1.004 2.893-2.921C-8.725 1.23-9.972 0-11.618 0m0 6.834c-.533 0-1.824-.134-2.77-1.304v1.011a.57.57 0 1 1-1.142 0v-9.877a.57.57 0 1 1 1.142 0V.236c.956-1.184 2.35-1.283 2.77-1.283 2.261 0 4.033 1.735 4.033 3.953 0 1.93-1.507 3.928-4.033 3.928m5.789 2.859a.574.574 0 0 1-.572-.574V-.769a.572.572 0 0 1 1.141 0v9.894a.572.572 0 0 1-.569.568" style="fill:#002f75;fill-opacity:1;fill-rule:nonzero;stroke:none" transform="matrix(3.49449 0 0 -3.49449 109.776 167.896)"/><path d="M0 0a3.732 3.732 0 0 0-1.275-.227c-.625 0-1.139.16-1.544.545-.355.343-.575.895-.575 1.538 0 1.232.852 2.132 2.236 2.132.478 0 .857-.103 1.035-.19l-.135-.435c-.22.105-.496.179-.913.179-1.004 0-1.66-.626-1.66-1.661 0-1.047.625-1.667 1.593-1.667.35 0 .589.049.711.111v1.231h-.834v.429H0Z" style="fill:#002f75;fill-opacity:1;fill-rule:nonzero;stroke:none" transform="matrix(3.49449 0 0 -3.49449 65.576 203.373)"/><path d="m0 0-1.048 4.129h.563l.492-2.09A32.38 32.38 0 0 0 .313.612h.012c.067.411.196.902.336 1.434l.552 2.083h.557l.503-2.095c.116-.491.227-.981.287-1.415h.013c.085.453.201.912.33 1.427l.545 2.083h.547L2.824 0h-.557l-.521 2.151c-.129.525-.215.931-.27 1.348h-.013a11.021 11.021 0 0 0-.319-1.348L.557 0Z" style="fill:#002f75;fill-opacity:1;fill-rule:nonzero;stroke:none" transform="matrix(3.49449 0 0 -3.49449 72.883 204.014)"/><path d="m0 0-.41 1.188c-.092.27-.153.515-.215.753h-.013c-.061-.238-.121-.494-.208-.747L-1.25 0Zm-1.36-.416-.429-1.299h-.552l1.41 4.129h.637l1.408-4.129H.545L.104-.416z" style="fill:#002f75;fill-opacity:1;fill-rule:nonzero;stroke:none" transform="matrix(3.49449 0 0 -3.49449 96.658 198.02)"/><path d="M0 0v4.129h.589l1.317-2.09c.3-.483.545-.918.735-1.341l.019.006a18.02 18.02 0 0 0-.062 1.697v1.728h.503V0h-.539L1.251 2.095c-.289.46-.564.931-.766 1.379l-.019-.006c.031-.521.037-1.018.037-1.704V0Z" style="fill:#002f75;fill-opacity:1;fill-rule:nonzero;stroke:none" transform="matrix(3.49449 0 0 -3.49449 104.82 204.014)"/><path d="M0 0a3.732 3.732 0 0 0-1.275-.227c-.624 0-1.139.16-1.544.545-.355.343-.575.895-.575 1.538 0 1.232.852 2.132 2.236 2.132.478 0 .857-.103 1.035-.19l-.134-.435c-.221.105-.497.179-.913.179-1.005 0-1.661-.626-1.661-1.661 0-1.047.625-1.667 1.594-1.667.349 0 .588.049.71.111v1.231h-.833v.429H0Z" style="fill:#002f75;fill-opacity:1;fill-rule:nonzero;stroke:none" transform="matrix(3.49449 0 0 -3.49449 132.065 203.373)"/><path d="M0 0a3.737 3.737 0 0 0-1.275-.227c-.626 0-1.14.16-1.544.545-.355.343-.576.895-.576 1.538 0 1.232.852 2.132 2.237 2.132.478 0 .857-.103 1.034-.19l-.134-.435c-.221.105-.496.179-.913.179-1.004 0-1.66-.626-1.66-1.661 0-1.047.624-1.667 1.593-1.667.349 0 .589.049.711.111v1.231h-.834v.429H0Z" style="fill:#002f75;fill-opacity:1;fill-rule:nonzero;stroke:none" transform="matrix(3.49449 0 0 -3.49449 148.046 203.373)"/><path d="M0 0v1.753l-1.311 2.376h.612l.583-1.14c.152-.313.282-.564.41-.851h.012c.111.27.258.538.417.851l.594 1.14h.601L.54 1.758V0Z" style="fill:#002f75;fill-opacity:1;fill-rule:nonzero;stroke:none" transform="matrix(3.49449 0 0 -3.49449 156.23 204.014)"/><path d="M0 0c0-.888.478-1.679 1.323-1.679S2.647-.9 2.647.037c0 .827-.429 1.685-1.318 1.685C.442 1.722 0 .901 0 0m3.21.061c0-1.415-.864-2.175-1.917-2.175-1.097 0-1.856.853-1.856 2.101 0 1.312.809 2.169 1.911 2.169 1.133 0 1.862-.863 1.862-2.095" style="fill:#002f75;fill-opacity:1;fill-rule:nonzero;stroke:none" transform="matrix(3.49449 0 0 -3.49449 167.09 196.865)"/></svg>