<svg width="63" height="57" viewBox="0 0 63 57" fill="none" xmlns="http://www.w3.org/2000/svg">
<path d="M40.01 56.59C37.24 56.59 34.75 55.47 32.56 54.02C30.37 52.56 28.45 50.75 26.79 49.16C25.05 47.5 24.33 46.78 23.69 46.29C23.33 46 23.12 45.87 22.97 45.8C22.82 45.74 22.67 45.69 22.25 45.69C21.24 45.67 18.96 46.11 14.2 47.13C12.08 47.58 10.08 47.76 8.3 47.76C5.45 47.75 3.22 47.32 1.74 46.63C1.24 46.38 0.809998 46.12 0.419998 45.63C0.209998 45.35 0 44.93 0 44.43C0 44.08 0.109999 43.72 0.279999 43.45C0.449999 43.18 0.649998 42.98 0.849998 42.83C1.26 42.53 1.69 42.36 2.18 42.22C3.29 41.9 4.39 41.53 5.48 41.11C8.86 39.82 11.94 38.11 14.54 35.7C14.44 35.54 14.26 35.31 14.06 35.03C12.72 33.12 11.75 31.01 10.93 28.96C9.94 26.49 9.15 23.89 8.7 21.22C8.65 21.3 8.61 21.39 8.56 21.47C8.36 21.82 8.05 22.48 7.71 23.03C7.71 23.03 7.71 23.03 7.7 23.05C7.7 23.05 7.68 23.09 7.66 23.12C7.63 23.18 7.58 23.26 7.53 23.35C7.42 23.53 7.3 23.74 7.04 24.01C6.86 24.17 6.6 24.45 6 24.54H5.98H5.96C5.89 24.54 5.84 24.54 5.81 24.54C5.57 24.54 5.26 24.47 4.99 24.31C4.73 24.15 4.55 23.92 4.45 23.73C4.25 23.34 4.26 23.1 4.26 22.92C4.26 22.58 4.32 22.39 4.36 22.21C4.4 22.06 4.44 21.93 4.44 21.9C4.48 21.74 4.57 21.43 4.71 20.93C4.85 20.43 5.03 19.76 5.21 19.02C5.58 17.54 5.97 15.74 6.13 14.34C6.29 12.9 6.36 11.6 6.36 10.28C6.36 7.95 6.13 5.52 5.76 2.1C5.76 2.02 5.75 1.95 5.75 1.89C5.75 1.57 5.82 1.33 5.92 1.08C6.03 0.84 6.18 0.59 6.51 0.33C6.73 0.17 7.07 0 7.49 0C8.06 0 8.53 0.32 8.75 0.59C8.93 0.8 8.98 0.92 9.05 1.05C9.12 1.17 9.17 1.3 9.22 1.42C9.33 1.68 9.43 1.96 9.53 2.24C9.73 2.82 9.9 3.37 9.98 3.69C10.4 5.37 11.14 7.62 11.66 9.4C12.3 11.59 13.29 13.63 14.81 15.1C15.29 15.57 15.87 16.12 16.45 16.52C17.03 16.93 17.57 17.13 17.86 17.12C18.02 17.12 18.13 17.09 18.31 16.99C18.46 16.92 18.74 16.57 18.94 16.01C19.15 15.46 19.28 14.77 19.37 14.21C19.41 13.94 19.43 13.73 19.43 13.52C19.43 12.95 19.29 12.32 19.13 11.16C19.12 11.07 19.11 10.99 19.11 10.91C19.11 10.38 19.3 9.94 19.62 9.58C19.93 9.22 20.45 8.92 21.07 8.92C21.36 8.92 21.65 8.99 21.89 9.1C22.65 9.46 23.14 9.99 23.57 10.49C23.99 11 24.32 11.51 24.56 11.88C25.1 12.71 25.62 13.47 26.14 14.41C27.62 17.08 28.96 19.51 31.14 21.03C31.54 21.32 31.96 21.58 32.4 21.84C32.4 21.84 32.42 21.77 32.43 21.74C32.67 21.06 32.89 20.18 32.94 19.38C32.97 19.07 33.03 18.76 33.17 18.39C33.33 18.05 33.51 17.59 34.17 17.21C34.43 17.07 34.75 16.98 35.06 16.98C35.54 16.98 35.92 17.16 36.18 17.34C36.44 17.53 36.6 17.72 36.74 17.89C37.01 18.25 37.15 18.56 37.25 18.79C37.99 20.56 38.68 22.25 39.06 24.61C41.92 25.58 44.87 26.66 47.65 27.65C49.74 28.4 54.94 30.64 58.36 32.91C59.5 33.69 60.45 34.42 61.1 35.33C61.97 36.58 62.39 37.96 62.39 39.32C62.39 41.54 61.34 43.57 59.87 45.39C58.39 47.21 56.45 48.87 54.35 50.34C50.15 53.27 45.43 55.43 42.58 56.2C41.71 56.43 40.85 56.54 40.01 56.54V56.59ZM24.11 43.16C24.66 43.4 25.06 43.71 25.44 44.01C26.32 44.7 27.05 45.44 28.77 47.08C30.41 48.65 32.23 50.35 34.15 51.62C36.07 52.9 38.04 53.71 40 53.71C40.6 53.71 41.21 53.63 41.84 53.47C43.58 53.01 46.66 51.72 49.69 49.95C52.74 48.19 55.78 45.92 57.62 43.64C58.86 42.12 59.51 40.64 59.5 39.38C59.5 38.6 59.29 37.85 58.72 37.03C58.51 36.7 57.75 36.02 56.75 35.37C55.75 34.7 54.49 34 53.2 33.33C50.63 32.01 47.89 30.85 46.68 30.43C43.6 29.34 40.36 28.15 37.29 27.13L36.42 26.84L36.31 25.93C36.12 24.33 35.8 23.16 35.39 22.01C35.18 22.76 34.91 23.42 34.66 23.93C34.48 24.28 34.34 24.54 34.02 24.88L33.28 25.61L32.35 25.14C31.37 24.65 30.4 24.09 29.47 23.43C26.59 21.38 25.09 18.47 23.62 15.86C23.21 15.13 22.79 14.49 22.3 13.75C22.3 14.05 22.27 14.36 22.21 14.69C22.11 15.33 21.96 16.19 21.63 17.06C21.3 17.92 20.8 18.87 19.78 19.5C19.17 19.87 18.49 20.04 17.86 20.04C16.62 20.03 15.62 19.49 14.8 18.92C13.98 18.35 13.3 17.69 12.8 17.21C11.06 15.52 9.96 13.42 9.22 11.29C9.19 12.39 9.11 13.49 8.98 14.68C8.9 15.33 8.79 16.02 8.66 16.71C8.8 16.67 8.96 16.65 9.15 16.64C9.33 16.64 9.55 16.67 9.75 16.75C10.23 16.94 10.55 17.23 10.78 17.53C11 17.83 11.16 18.13 11.23 18.59C11.23 18.59 11.23 18.6 11.23 18.61C11.23 18.61 11.23 18.61 11.23 18.62C11.26 18.86 11.34 19.58 11.38 19.81C11.75 22.54 12.54 25.28 13.59 27.88C14.37 29.83 15.26 31.75 16.4 33.37C16.58 33.62 16.8 33.9 17.02 34.25C17.23 34.6 17.49 35.09 17.5 35.76C17.5 36.16 17.39 36.57 17.2 36.91C17.01 37.26 16.77 37.54 16.48 37.8C13.54 40.52 10.11 42.4 6.48 43.79C5.82 44.04 5.15 44.29 4.48 44.51C5.47 44.72 6.77 44.88 8.27 44.87C9.85 44.87 11.65 44.71 13.57 44.3C18.36 43.29 20.57 42.81 22.22 42.8C22.22 42.8 22.24 42.8 22.25 42.8C22.92 42.8 23.55 42.91 24.09 43.15L24.11 43.16Z" fill="#002F75"/>
<path fill-rule="evenodd" clip-rule="evenodd" d="M37.7599 25.7498C37.4399 23.0598 36.7599 21.3998 35.9199 19.3998C35.7699 19.0398 35.3599 18.2598 34.8599 18.5298C34.5599 18.6898 34.4199 19.2198 34.3899 19.5298C34.2499 21.4698 33.4199 23.4498 33.0099 23.8498C32.0799 23.3798 31.1699 22.8598 30.3199 22.2598C27.7899 20.4698 26.3699 17.7998 24.8899 15.1598C24.3999 14.2798 23.9099 13.5598 23.3599 12.7198C22.8699 11.9698 22.1499 10.8398 21.3099 10.4598C20.8799 10.2598 20.5199 10.6798 20.5699 11.0198C20.7599 12.4598 21.0099 13.1898 20.8099 14.4698C20.6199 15.6698 20.2299 17.5698 19.0599 18.2698C17.1699 19.3998 15.0499 17.3698 13.8199 16.1798C12.0499 14.4698 10.9699 12.1898 10.2899 9.84982C9.7799 8.09982 9.02989 5.84982 8.58989 4.07982C8.46989 3.59982 7.9099 1.84982 7.6599 1.56982C7.4099 1.27982 7.1599 1.69982 7.1899 1.95982C7.7799 7.31982 8.02989 10.3898 7.55989 14.5198C7.21989 17.5498 5.93989 21.8698 5.81989 22.2898C5.77989 22.4498 5.53989 23.1498 5.81989 23.1098C6.07989 23.0798 6.34989 22.4798 6.49989 22.2598C6.75989 21.8498 7.06989 21.1898 7.30989 20.7698C7.77989 19.9298 8.22989 19.0198 8.60989 18.4898C8.73989 18.2998 9.01989 18.0098 9.26989 18.1098C9.57989 18.2298 9.7999 18.5698 9.8299 18.7998C9.8499 18.9398 9.9399 19.7498 9.9799 20.0098C10.3699 22.8898 11.1899 25.7398 12.2799 28.4298C13.0799 30.4298 14.0099 32.4398 15.2499 34.2098C15.9199 35.1598 16.5899 35.7798 15.5399 36.7598C12.7599 39.3198 9.50989 41.1198 5.99989 42.4598C4.86989 42.8898 3.7399 43.2798 2.5799 43.6098C-1.2601 44.6998 5.2199 47.5598 13.8999 45.7298C22.6299 43.8798 22.9099 43.8698 24.5699 45.1598C25.3299 45.7498 26.0599 46.4798 27.7899 48.1298C31.5899 51.7698 36.5899 56.3598 42.2199 54.8698C48.1999 53.2898 65.2999 44.0298 59.9199 36.2198C58.1899 33.7198 49.7899 29.9998 47.1799 29.0698C44.1099 27.9898 40.8599 26.7898 37.7699 25.7598L37.7599 25.7498Z" fill="url(#paint0_radial_129_289)"/>
<path d="M37.6195 51.8C37.6295 50.98 38.4095 50.33 39.3495 50.34C40.2995 50.34 41.0395 51.02 41.0295 51.84C41.0295 52.65 40.2495 53.3 39.2995 53.3C38.3495 53.29 37.5995 52.62 37.6195 51.8Z" fill="#002F75"/>
<path d="M57.2209 38.51C57.1809 37.91 57.6809 37.38 58.3509 37.33C59.0309 37.28 59.6009 37.72 59.6409 38.32C59.6809 38.92 59.1709 39.45 58.5009 39.5C57.8309 39.55 57.2509 39.11 57.2109 38.51H57.2209Z" fill="#002F75"/>
<path fill-rule="evenodd" clip-rule="evenodd" d="M42.0486 36.4699C41.8686 36.9599 40.7686 36.9699 39.5986 36.4999C38.4286 36.0299 37.6686 35.2499 37.8786 34.7599C38.0986 34.2699 39.1986 34.2599 40.3286 34.7299C41.4586 35.2099 42.2286 35.9799 42.0486 36.4699Z" fill="white"/>
<path fill-rule="evenodd" clip-rule="evenodd" d="M41.4503 29.9501C41.3303 30.2401 40.7003 30.3401 40.0203 30.2001C39.3403 30.0501 38.8803 29.7001 39.0103 29.4201C39.1403 29.1401 39.7803 29.0201 40.4603 29.1701C41.1303 29.3201 41.5803 29.6701 41.4503 29.9601V29.9501Z" fill="white"/>
<path fill-rule="evenodd" clip-rule="evenodd" d="M47.6788 32.4303C47.5588 32.7903 46.7888 32.8903 45.9388 32.6803C45.1088 32.4603 44.5288 32.0103 44.6588 31.6603C44.7888 31.3203 45.5788 31.2103 46.4088 31.4203C47.2288 31.6303 47.7988 32.0903 47.6788 32.4303Z" fill="white"/>
<path fill-rule="evenodd" clip-rule="evenodd" d="M35.3 39.5801C35.18 40.0601 34.2 40.1301 33.1 39.7301C32 39.3201 31.23 38.6001 31.38 38.1001C31.53 37.6101 32.53 37.5401 33.59 37.9501C34.66 38.3601 35.42 39.0901 35.3 39.5801Z" fill="white"/>
<path fill-rule="evenodd" clip-rule="evenodd" d="M35.0307 32.7703C34.8807 33.0703 34.1107 33.0703 33.3207 32.7403C32.5307 32.4203 32.0107 31.9203 32.1807 31.6103C32.3507 31.3103 33.1107 31.3203 33.8907 31.6403C34.6707 31.9603 35.1807 32.4603 35.0407 32.7603L35.0307 32.7703Z" fill="white"/>
<path fill-rule="evenodd" clip-rule="evenodd" d="M29.3711 29.5502C29.1911 29.8302 28.6311 29.8502 28.0811 29.6002C27.5411 29.3602 27.2611 28.9402 27.4411 28.6702C27.6211 28.4002 28.2011 28.3902 28.7311 28.6302C29.2611 28.8702 29.5511 29.2802 29.3711 29.5502Z" fill="white"/>
<path fill-rule="evenodd" clip-rule="evenodd" d="M25.2096 26.1699C25.0596 26.3599 24.6395 26.3799 24.2595 26.2099C23.8895 26.0299 23.7096 25.7399 23.8596 25.5499C24.0196 25.3599 24.4396 25.3399 24.8096 25.5199C25.1796 25.6899 25.3596 25.9899 25.2096 26.1799V26.1699Z" fill="white"/>
<path fill-rule="evenodd" clip-rule="evenodd" d="M34.8196 27.8502C34.6796 28.1102 34.0996 28.2002 33.5296 28.0502C32.9596 27.9002 32.6096 27.5702 32.7496 27.3102C32.8996 27.0502 33.4796 26.9602 34.0396 27.1102C34.5996 27.2602 34.9496 27.5902 34.8096 27.8502H34.8196Z" fill="white"/>
<path fill-rule="evenodd" clip-rule="evenodd" d="M28.6307 35.8301C28.4707 36.1301 27.7007 36.0401 26.9107 35.6201C26.1207 35.2101 25.6307 34.6301 25.8107 34.3301C25.9907 34.0301 26.7507 34.1301 27.5207 34.5401C28.2907 34.9501 28.7907 35.5301 28.6307 35.8301Z" fill="white"/>
<path fill-rule="evenodd" clip-rule="evenodd" d="M29.6487 42.1698C29.5787 42.5498 28.7687 42.5898 27.8287 42.2398C26.8887 41.8898 26.1987 41.2898 26.2987 40.8998C26.3887 40.5098 27.2087 40.4698 28.1187 40.8298C29.0387 41.1798 29.7187 41.7798 29.6487 42.1698Z" fill="white"/>
<path fill-rule="evenodd" clip-rule="evenodd" d="M23.2286 31.7599C23.0786 31.9599 22.6186 31.8899 22.1986 31.6099C21.7786 31.3299 21.5786 30.9499 21.7386 30.7599C21.8986 30.5699 22.3586 30.6299 22.7586 30.9099C23.1686 31.1899 23.3686 31.5699 23.2186 31.7699L23.2286 31.7599Z" fill="white"/>
<path fill-rule="evenodd" clip-rule="evenodd" d="M20.2694 28.8402C20.1394 28.9802 19.8094 28.9402 19.5294 28.7302C19.2494 28.5302 19.1294 28.2602 19.2594 28.1102C19.3894 27.9702 19.7194 28.0202 19.9994 28.2302C20.2794 28.4302 20.3994 28.7102 20.2694 28.8402Z" fill="white"/>
<path fill-rule="evenodd" clip-rule="evenodd" d="M23.3608 38.78C23.2308 39.02 22.6508 38.92 22.0708 38.58C21.4908 38.24 21.1408 37.76 21.2808 37.53C21.4208 37.29 22.0008 37.38 22.5708 37.73C23.1408 38.08 23.5008 38.55 23.3708 38.78H23.3608Z" fill="white"/>
<path fill-rule="evenodd" clip-rule="evenodd" d="M19.3887 34.8501C19.2587 35.0201 18.8687 34.9601 18.5087 34.7001C18.1587 34.4501 17.9787 34.1001 18.1087 33.9301C18.2487 33.7601 18.6387 33.8301 18.9787 34.0801C19.3287 34.3301 19.5087 34.6701 19.3787 34.8401L19.3887 34.8501Z" fill="white"/>
<defs>
<radialGradient id="paint0_radial_129_289" cx="0" cy="0" r="1" gradientUnits="userSpaceOnUse" gradientTransform="translate(22.2999 17.0398) scale(57.14)">
<stop stop-color="white"/>
<stop offset="0.35" stop-color="#A1DBEA"/>
<stop offset="0.7" stop-color="#00B4D0"/>
</radialGradient>
</defs>
</svg>
