<svg width="1300" height="739" viewBox="0 0 1300 739" fill="none" xmlns="http://www.w3.org/2000/svg">
<path fill-rule="evenodd" clip-rule="evenodd" d="M276.957 0C277.509 0.000131922 277.957 0.447797 277.957 1V85.8242H476.653V70.9795C476.653 70.4272 477.101 69.9795 477.653 69.9795H720.601C721.153 69.9795 721.601 70.4272 721.601 70.9795V85.8242H872.443C872.996 85.8242 873.443 86.2719 873.443 86.8242V162.367L1118 153.163L1118.08 153.164C1118.52 153.186 1118.9 153.49 1119 153.92L1128.25 190.891C1128.38 191.426 1128.05 191.969 1127.52 192.104C1126.98 192.237 1126.44 191.912 1126.3 191.376L1117.26 155.192L872.481 164.404C872.21 164.415 871.946 164.314 871.75 164.126C871.554 163.937 871.443 163.677 871.443 163.405V156.386H868.561V216.787H942.827V230.807H1015.58V242.512L1126.95 230.86L1123.17 196.624L1124.17 196.515L1128.05 231.751L1015.14 243.564L1014.58 243.623V231.807H975.923V326.346H975.744V357.089H974.744V326.29H956.406V357.506H955.406V326.29H830.624V325.29H867.561V217.787H836.949C846.132 226.974 851.811 239.663 851.812 253.679C851.812 281.718 829.082 304.448 801.043 304.448C784.338 304.448 769.518 296.378 760.266 283.926V325.29H804.723V326.29H760.266V353.717H759.266V282.528C755.219 276.68 752.366 269.942 751.066 262.666H705.558V261.666H750.899C750.488 259.064 750.273 256.396 750.273 253.679C750.273 225.64 773.004 202.91 801.043 202.91C805.267 202.91 809.37 203.426 813.294 204.398V189.041H754.972V215.784H753.972V156.386H715.118V205.792C715.362 208.909 715.576 212.124 715.754 215.437L715.255 215.464L715.118 215.471V215.784H714.118V205.837C712.14 180.594 708.039 161.748 702.609 147.937C696.509 132.419 688.749 123.286 680.479 118.542C663.963 109.068 645.1 116.965 632.687 127.33L632.673 127.342C614.314 141.594 589.192 146.449 565.313 146.76C541.467 147.07 518.782 142.848 505.137 138.843H433.927V103.894C426.023 100.768 417.301 102.223 409.528 105.396C402.678 108.194 396.623 112.302 392.622 115.671C406.442 124.742 415.569 140.374 415.569 158.141C415.569 186.18 392.84 208.91 364.801 208.91C336.762 208.91 314.031 186.18 314.031 158.141C314.031 130.102 336.762 107.372 364.801 107.372C374.699 107.372 383.934 110.207 391.743 115.106C395.81 111.642 402.055 107.368 409.15 104.471C417.141 101.208 426.287 99.6618 434.617 103.092L434.927 103.219V137.843H505.278L505.348 137.863C518.902 141.85 541.524 146.069 565.301 145.76C589.083 145.451 613.941 140.611 632.05 126.558C644.566 116.108 663.904 107.881 680.978 117.675C689.504 122.566 697.386 131.917 703.54 147.571C708.221 159.478 711.907 175.05 714.118 195.124V155.386H753.972V87.8242H720.601C720.049 87.824 719.601 87.3763 719.601 86.8242V71.9795H478.653V86.8242C478.653 87.3763 478.205 87.824 477.653 87.8242H302.98V128.885H268.075V186.228H213.472V85.2539H173.336V133.871H136.772C130.011 153.965 111.018 168.438 88.6445 168.438C66.2709 168.438 47.2775 153.965 40.5156 133.871H2V202.91H111.602V360.8H2V517.988H114.601V664.242H233.045V668.107H350.897C351.45 668.107 351.897 668.555 351.897 669.107V736.767H1297.92V669.874L1260.39 659.816C1259.95 659.699 1259.64 659.303 1259.64 658.851V544.672H1210.46C1210.01 544.672 1209.61 544.368 1209.49 543.931L1196.95 497.11H1137.84C1137.33 497.11 1136.91 496.735 1136.85 496.234L1126.28 411.759C1126.21 411.215 1126.6 410.719 1127.14 410.645L1184.26 402.854L1177.4 346.497L1040.58 364.462L1038.6 364.845L1038.58 364.725L1023.67 366.683V429.931H1007.57V609.446H953.379V659.575C953.379 659.851 953.155 660.075 952.879 660.075H773.31C773.173 660.075 773.042 660.019 772.948 659.921L747.039 632.859H544.544V588.947H429.328C429.052 588.947 428.829 588.723 428.828 588.447V549.968C428.828 549.835 428.881 549.708 428.975 549.614L550.243 428.347C550.337 428.253 550.464 428.2 550.597 428.2H759.266V394.573H760.266V428.2H952.879C953.155 428.2 953.379 428.424 953.379 428.7V608.446H1006.57V428.931H1022.67V365.806L1038.44 363.735L1033.65 330.618L1029.27 331.646L1029.04 330.672L1048.38 326.141L1043.51 297.231L1044.49 297.065L1045.81 304.86L1080.43 300.567L1079.37 293.513L1079.87 293.438L1080.36 293.363L1084.61 321.624L1100.82 319.224L1100.96 320.213L1098.26 320.613L1103.37 355.208L1177.28 345.504L1166 252.87H1137.84C1137.29 252.87 1136.84 252.422 1136.84 251.87C1136.84 251.318 1137.29 250.87 1137.84 250.87H1166.89C1167.39 250.87 1167.82 251.247 1167.88 251.749L1186.36 403.592C1186.43 404.134 1186.05 404.629 1185.51 404.703L1128.39 412.492L1138.72 495.11H1197.71L1197.88 495.124C1198.26 495.188 1198.58 495.469 1198.68 495.852L1211.23 542.672H1260.64C1261.2 542.672 1261.64 543.12 1261.64 543.672V658.083L1299.18 668.142C1299.62 668.259 1299.92 668.655 1299.92 669.107V737.767C1299.92 738.319 1299.48 738.767 1298.92 738.767H350.897C350.345 738.767 349.898 738.319 349.897 737.767V670.107H233.064V737.767C233.064 738.319 232.617 738.766 232.064 738.767H1C0.447837 738.767 0.000197855 738.319 0 737.767V1C0 0.447715 0.447715 0 1 0H276.957ZM2 736.767H113.601V518.988H2V736.767ZM114.601 736.767H231.064V669.107C231.064 668.562 231.502 668.118 232.045 668.107V665.242H114.601V736.767ZM545.544 631.859H684.853V614.093H545.544V631.859ZM545.544 613.093H685.853V631.859H746.081L720.478 605.117C720.389 605.024 720.338 604.9 720.338 604.771V588.947H545.544V613.093ZM1034.63 330.389L1039.43 363.604L1040.41 363.476L1044.83 362.625L1039.79 329.18L1034.63 330.389ZM1040.77 328.951L1045.86 362.761L1050.34 362.172L1044.18 328.152L1040.77 328.951ZM1047.78 316.58L1049.52 326.9L1045.15 327.923L1051.34 362.041L1093.03 356.565L1087.56 322.198L1083.77 322.76L1082.22 312.45L1047.78 316.58ZM1088.55 322.052L1094 356.303L1097.54 355.735L1092.41 321.479L1088.55 322.052ZM1093.4 321.333L1098.57 355.839L1102.38 355.339L1097.27 320.761L1093.4 321.333ZM868.561 325.29H974.923V231.807H941.827V217.787H868.561V325.29ZM1046.89 311.301L1047.61 315.593L1082.07 311.461L1081.36 306.703L1046.89 311.301ZM1045.97 305.848L1046.72 310.314L1081.21 305.714L1080.58 301.558L1045.97 305.848ZM814.294 204.656C822.516 206.873 829.91 211.105 835.918 216.787H867.561V189.041H814.294V204.656ZM754.972 188.041H867.561V156.386H754.972V188.041ZM2 132.871H40.1904C38.6861 128.071 37.875 122.965 37.875 117.669C37.8751 89.63 60.6055 66.9004 88.6445 66.9004C116.683 66.9006 139.413 89.6301 139.413 117.669C139.413 122.965 138.602 128.071 137.098 132.871H172.336V84.2539H214.472V185.228H267.075V127.885H301.98V87.8242H276.957C276.405 87.8242 275.957 87.3764 275.957 86.8242V2H2V132.871ZM754.972 155.386H826.517V120.352H754.972V155.386ZM754.972 119.352H827.517V155.386H871.443V87.8242H754.972V119.352Z" fill="white" fill-opacity="0.8"/>
<path d="M273.155 430.614C321.009 430.615 359.802 469.408 359.802 517.262C359.801 565.115 321.009 603.908 273.155 603.908C225.302 603.908 186.508 565.115 186.508 517.262C186.508 469.408 225.301 430.614 273.155 430.614Z" fill="white" fill-opacity="0.8"/>
<path fill-rule="evenodd" clip-rule="evenodd" d="M369.75 426.942H387.649V362.977H480.236V468.5L479.905 468.618L402.855 496.24L402.687 495.77L402.519 495.299L424.678 487.354V427.942H368.75V363.977H293.041L279.104 403.38L278.161 403.046L292.216 363.31L292.334 362.977H369.75V426.942ZM425.678 486.995L479.236 467.795V427.942H425.678V486.995ZM388.649 426.942H446.686V363.977H388.649V426.942ZM447.686 426.942H479.236V363.977H447.686V426.942Z" fill="white" fill-opacity="0.8"/>
<path fill-rule="evenodd" clip-rule="evenodd" d="M241.374 409.164H189.136V422.47H142.798V340.163H143.798V421.47H188.136V409.164H167.931V339.663H241.374V409.164ZM168.931 408.164H240.374V340.663H168.931V408.164Z" fill="white" fill-opacity="0.8"/>
<path fill-rule="evenodd" clip-rule="evenodd" d="M333.68 266.263H442.672V333.772H484.78V223.967H521.069V224.967H485.78V334.772H402.63V267.263H332.68V217.96H333.68V266.263ZM403.63 333.772H441.672V267.263H403.63V333.772Z" fill="white" fill-opacity="0.8"/>
<path d="M587.098 152.141C615.137 152.141 637.866 174.871 637.866 202.91C637.866 210.605 636.154 217.9 633.09 224.436H666.953V279.452H665.953V225.436H632.604C624.304 242.172 607.046 253.679 587.098 253.679C559.059 253.679 536.328 230.949 536.328 202.91C536.328 174.871 559.059 152.141 587.098 152.141Z" fill="white" fill-opacity="0.8"/>
</svg>
