<svg width="1064" height="799" viewBox="0 0 1064 799" fill="none" xmlns="http://www.w3.org/2000/svg">
<path d="M747.078 484.888H652.977V298.607H747.078V484.888Z" fill="white" fill-opacity="0.8"/>
<path fill-rule="evenodd" clip-rule="evenodd" d="M535.239 0C535.791 0.000164886 536.239 0.448794 536.239 1.00098V196.548H558.413L820.105 161.319L811.13 87.0156C811.064 86.472 811.448 85.9766 811.991 85.9043L1062.6 52.5566C1062.89 52.5186 1063.17 52.6061 1063.39 52.7959C1063.61 52.9857 1063.73 53.2599 1063.73 53.5479V583.063C1063.73 583.615 1063.28 584.063 1062.73 584.063H272.997V797.8C272.997 798.352 272.549 798.8 271.997 798.8H205.808C205.256 798.8 204.808 798.352 204.808 797.8V734.167H1C0.447878 734.167 0.000263783 733.719 0 733.167V443.038C0 442.49 0.440638 442.044 0.988281 442.038C32.3421 441.684 75.7265 434.366 120.003 415.479C120.044 415.378 120.118 415.288 120.221 415.23C120.357 415.154 120.513 415.15 120.648 415.203C141.961 406.059 163.468 394.232 183.927 379.204C247.061 332.829 300.272 255.953 306.994 133.331L307.004 133.233C307.078 132.751 307.494 132.386 307.992 132.386H479.165V1.00098C479.165 0.448794 479.613 0.000164895 480.165 0H535.239ZM267.939 580.205C267.939 580.481 267.715 580.705 267.439 580.705H227.772C222.734 580.76 217.915 578.019 213.893 574.533V700.002C213.892 700.278 213.669 700.502 213.393 700.502H153.207V732.167H205.808C206.36 732.167 206.807 732.615 206.808 733.167V796.8H270.997V583.063C270.997 582.511 271.445 582.064 271.997 582.063H485.103V520.679C476.137 519.922 463.158 516.375 452.742 508.101C442.216 499.737 434.333 486.56 435.845 466.663H416.272V534.072C416.272 534.348 416.048 534.572 415.772 534.572H344.268C343.992 534.572 343.768 534.348 343.768 534.072V465.684H328.43V465.324H267.939V580.205ZM134.852 441.812C90.2881 468.873 28.4939 473.793 2 472.883V732.167H49.4072V700.502H2.23828V699.502H212.893V612.111H118.689C118.414 612.111 118.19 611.887 118.189 611.611V578.439H2.23828V577.439H151.862V537.953C151.862 537.677 152.086 537.453 152.362 537.453H183.931C184.207 537.453 184.431 537.677 184.431 537.953V577.939C184.43 578.215 184.206 578.439 183.931 578.439H119.189V611.111H212.893V573.634C208.84 569.881 205.626 565.437 203.885 562.438L203.883 562.436L134.852 441.812ZM50.4072 732.167H152.207V700.502H50.4072V732.167ZM529.871 434.116C519.24 414.468 502.054 408.858 486.638 410.517C478.893 411.35 471.6 414.018 465.821 417.666C460.034 421.32 455.812 425.926 454.135 430.604C454.063 430.803 453.875 430.936 453.664 430.936H421.57V465.663H436.385C436.525 465.663 436.658 465.722 436.753 465.825C436.847 465.928 436.894 466.066 436.883 466.205C435.215 486.052 442.988 499.075 453.364 507.318C463.766 515.583 476.809 519.06 485.64 519.721C485.901 519.74 486.102 519.957 486.103 520.219V582.063H562.729V540.3C562.729 540.024 562.953 539.8 563.229 539.8H602.14V505.036H566.109V513.272H565.109V505.036H530.871V513.252H529.871V462.31C527.691 471.77 519.217 478.824 509.095 478.824L508.545 478.816C497.024 478.525 487.774 469.093 487.773 457.502C487.774 445.727 497.319 436.181 509.095 436.181C519.214 436.181 527.688 443.23 529.871 452.687V434.116ZM563.729 582.063H602.14V540.8H563.729V582.063ZM306.107 165.201C300.916 205.692 290.35 240.69 276.004 270.853L346.08 340.928H529.871V254.851C529.871 254.575 530.095 254.351 530.371 254.351H602.64C602.916 254.351 603.139 254.575 603.14 254.851V582.063H791.837V231.09L710.713 242.629C710.58 242.648 710.444 242.611 710.337 242.529C710.23 242.447 710.161 242.325 710.146 242.191L702.864 179.12L661.103 184.742V242.134H660.103V184.877L558.614 198.539C558.57 198.545 558.526 198.548 558.481 198.548H535.239C534.687 198.548 534.24 198.1 534.239 197.548V165.201H306.107ZM884.651 78.252L898.079 161.166C898.083 161.192 898.085 161.219 898.085 161.246V319.725C898.085 320 897.861 320.225 897.585 320.225H792.837V582.063H881.543V349.957C881.543 349.681 881.767 349.457 882.043 349.457H1061.73V259.265H952.362C952.086 259.265 951.863 259.04 951.862 258.765V147.047L939.684 70.9297L884.651 78.252ZM882.543 582.063H1061.73V350.457H882.543V582.063ZM160.51 397.134C147.704 404.785 134.693 411.338 121.751 416.905L204.749 561.936C206.487 564.927 209.739 569.419 213.828 573.141C217.93 576.873 222.795 579.762 227.767 579.705H266.939V464.824C266.94 464.548 267.163 464.324 267.439 464.324H328.43V416.729C328.38 416.768 328.331 416.808 328.28 416.846C326.057 418.521 323.404 418.957 321.617 418.847H228.272V498.064C228.272 498.34 228.048 498.564 227.772 498.564H220.373C220.196 498.564 220.031 498.471 219.941 498.318L160.51 397.134ZM152.862 577.439H183.431V538.453H152.862V577.439ZM344.768 533.572H415.272V505.44H344.768V533.572ZM344.768 504.44H415.272V465.684H344.768V504.44ZM530.871 504.036H565.109V497.174H530.871V504.036ZM566.109 504.036H602.14V497.174H566.109V504.036ZM275.546 271.809C252.722 319.366 220.478 354.838 185.111 380.816C177.325 386.536 169.388 391.793 161.368 396.619L220.658 497.564H227.272V418.347C227.273 418.071 227.496 417.847 227.772 417.847H321.626L321.658 417.848C323.26 417.951 325.676 417.556 327.679 416.047C327.936 415.853 328.187 415.637 328.43 415.403V381.186H421.57V429.936H453.317C455.171 425.094 459.521 420.461 465.287 416.82C471.194 413.091 478.634 410.372 486.531 409.522C501.877 407.872 518.967 413.288 529.871 432.068V341.928H345.871C345.739 341.928 345.611 341.875 345.518 341.781L275.546 271.809ZM530.871 496.174H565.109V489.312H530.871V496.174ZM566.109 496.174H602.14V489.312H566.109V496.174ZM530.871 488.312H565.109V481.449H530.871V488.312ZM566.109 488.312H602.14V481.449H566.109V488.312ZM530.871 480.449H565.109V474.53H530.871V480.449ZM566.109 480.449H602.14V474.53H566.109V480.449ZM509.095 437.181C497.872 437.181 488.774 446.279 488.773 457.502C488.774 468.725 497.872 477.824 509.095 477.824C520.318 477.824 529.417 468.725 529.417 457.502C529.417 446.279 520.318 437.181 509.095 437.181ZM530.871 473.53H602.14V437.947H530.871V473.53ZM120.802 417.312C76.7176 436.119 33.5076 443.524 2 444.021V471.883C28.3129 472.793 89.6512 467.91 133.968 441.177L120.802 417.312ZM530.871 436.947H602.14V362.142H530.871V436.947ZM530.871 361.142H573.467V308.2H530.871V361.142ZM574.467 361.142H602.14V308.2H574.467V361.142ZM813.233 87.7559L822.21 162.06C822.275 162.602 821.893 163.098 821.351 163.171L703.855 178.987L711.079 241.565L792.267 230.019C792.41 229.998 792.556 230.041 792.665 230.136C792.774 230.231 792.837 230.369 792.837 230.514V319.225H897.085V161.283L883.659 78.3848L813.233 87.7559ZM530.871 307.2H573.467V255.351H530.871V307.2ZM574.467 307.2H602.14V255.351H574.467V307.2ZM940.676 70.7979L952.855 146.926C952.86 146.952 952.862 146.979 952.862 147.005V258.265H1061.73V54.6904L940.676 70.7979ZM481.165 133.386C481.165 133.938 480.717 134.386 480.165 134.386H308.937C308.353 144.639 307.444 154.575 306.233 164.201H534.239V2.00098H481.165V133.386Z" fill="white" fill-opacity="0.8"/>
</svg>
