<svg width="1347" height="732" viewBox="0 0 1347 732" fill="none" xmlns="http://www.w3.org/2000/svg">
<path fill-rule="evenodd" clip-rule="evenodd" d="M634.941 0C771.569 0 949.416 52.8098 1093.09 129.166C1164.94 167.348 1228.3 211.446 1273.71 257.824C1319.1 304.182 1346.68 352.945 1346.68 400.444C1346.68 510.347 1265.95 592.98 1144.46 648.195C1022.93 703.423 860.338 731.367 695.926 731.806C531.51 732.244 365.166 705.175 236.122 650.287C107.112 595.413 15.1366 512.615 0.00976562 401.467L0 401.399V401.332C0 387.72 4.61072 371.257 13.2686 352.912C21.9326 334.554 34.6803 314.247 51.0303 292.928C83.7308 250.288 130.889 203.535 188.759 160.149C304.49 73.3846 463.181 0.000104311 634.941 0ZM1108.88 188.306L1109.39 188.959C1183.87 284.33 1192.29 370.867 1172.68 440.277C1153.06 509.749 1105.31 562.188 1067.29 589.196L1066.61 589.68L1083.98 626.835C1026.98 644.368 950.007 669.375 871.562 690.29C792.599 711.344 712.242 728.223 649.349 729.168V729.192C614.448 728.181 579.631 725.927 545.274 722.43C591.941 727.18 639.456 729.635 686.878 729.8C684.027 729.789 681.176 729.773 678.325 729.746C736.206 725.143 804.714 710.184 872.078 692.223C950.693 671.262 1027.85 646.189 1084.84 628.664L1101.31 663.896C1077.92 672.713 1053.33 680.649 1027.79 687.702C1069.26 676.252 1108.2 662.474 1143.63 646.374C1264.85 591.287 1344.68 509.178 1344.68 400.444C1344.68 353.712 1317.52 305.429 1272.28 259.224C1236.77 222.955 1190.19 188.044 1137.09 156.264L1108.88 188.306ZM395.141 504.918L346.079 545.936L346.131 546.005C346.289 546.215 346.257 546.512 346.059 546.684L308.641 579.034L288.465 609.687V623.587C288.465 623.644 288.456 623.701 288.437 623.755L274.392 663.236C287.154 667.902 300.215 672.321 313.541 676.495L327.605 627.29L320.159 624.03L391.142 561.922L399.262 568.959L417.193 504.918H395.141ZM321.545 513.326L345.477 545.136L394.272 504.339L369.958 472.246L321.545 513.326ZM400.635 45.9668C383.869 52.1992 367.436 58.9741 351.374 66.21V422.839C351.374 422.988 351.307 423.13 351.192 423.225L300.127 465.332V484.858L320.943 512.526L369.715 471.143L369.799 471.085C369.888 471.036 369.99 471.015 370.093 471.026C370.229 471.041 370.354 471.112 370.437 471.222L395.207 503.918H417.425V465.027H378.397V54.626C385.742 51.6369 393.155 48.7473 400.635 45.9668ZM1057.94 113.507C1060.22 114.617 1062.48 115.733 1064.75 116.854C1062.48 115.732 1060.22 114.616 1057.94 113.506L1057.94 113.507ZM1036.91 103.5C1039.83 104.854 1042.74 106.219 1045.64 107.593C1042.73 106.219 1039.82 104.853 1036.9 103.499L1036.91 103.5ZM1015.54 93.8525C1016.57 94.3036 1017.59 94.7563 1018.62 95.21C1017.59 94.756 1016.57 94.303 1015.54 93.8516L1015.54 93.8525ZM634.941 2C633.545 2 632.15 2.00495 630.756 2.01465C632.151 2.00494 633.547 2.00098 634.943 2.00098C636.001 2.00098 637.061 2.00245 638.124 2.00879C637.061 2.00244 636 2 634.941 2Z" fill="white" fill-opacity="0.8"/>
</svg>
