<svg width="1284" height="734" viewBox="0 0 1284 734" fill="none" xmlns="http://www.w3.org/2000/svg">
<path d="M774.179 0C920.075 23.3048 1041.43 67.9044 1129.05 124.937C1216.66 181.958 1270.67 251.488 1281.6 324.677C1292.55 397.919 1260.31 474.515 1176.11 545.526C1091.93 616.525 955.722 682.025 758.433 733.186L757.931 731.25C955.072 680.128 1090.96 614.728 1174.82 543.998C1180.04 539.593 1185.07 535.167 1189.89 530.724L1099.16 457.881C1081.63 473.709 1060.36 489.774 1034.92 506.016V571.83C1035.5 571.587 1036.08 571.344 1036.66 571.1C1037.03 570.944 1037.4 570.788 1037.76 570.632C1038.24 570.427 1038.72 570.221 1039.2 570.015C1039.47 569.898 1039.75 569.78 1040.02 569.663C1040.5 569.455 1040.98 569.246 1041.45 569.037C1041.76 568.905 1042.06 568.773 1042.36 568.64C1043.86 567.979 1045.34 567.311 1046.82 566.638C1047.11 566.504 1047.4 566.369 1047.7 566.234C1048.1 566.047 1048.51 565.86 1048.91 565.672C1049.28 565.503 1049.64 565.334 1050 565.165C1050.41 564.972 1050.82 564.78 1051.23 564.586C1053.22 563.645 1055.18 562.692 1057.12 561.728C1057.61 561.483 1058.1 561.237 1058.59 560.991C1058.84 560.866 1059.09 560.74 1059.34 560.614C1059.86 560.349 1060.38 560.083 1060.9 559.815C1061.08 559.724 1061.26 559.631 1061.44 559.539C1061.93 559.286 1062.41 559.033 1062.9 558.778C1063.17 558.635 1063.44 558.493 1063.71 558.35C1064.39 557.996 1065.05 557.641 1065.72 557.284C1065.96 557.153 1066.26 557.245 1066.4 557.488C1066.53 557.731 1066.43 558.034 1066.19 558.165C1065.47 558.552 1064.75 558.937 1064.02 559.32C1063.91 559.377 1063.81 559.432 1063.7 559.488C1063.1 559.804 1062.49 560.118 1061.89 560.432C1061.71 560.521 1061.54 560.611 1061.37 560.7C1060.81 560.985 1060.26 561.268 1059.7 561.551C1059.5 561.651 1059.3 561.752 1059.11 561.853C1058.62 562.099 1058.13 562.344 1057.64 562.589C1057.37 562.719 1057.11 562.85 1056.85 562.979C1056.15 563.326 1055.45 563.671 1054.74 564.014C1054.59 564.086 1054.44 564.157 1054.29 564.229C1053.72 564.506 1053.15 564.783 1052.57 565.059C1052.32 565.177 1052.07 565.295 1051.82 565.413C1051.25 565.683 1050.68 565.951 1050.11 566.219C1049.97 566.283 1049.83 566.347 1049.7 566.411C1049.11 566.685 1048.52 566.958 1047.93 567.229C1047.7 567.333 1047.48 567.436 1047.25 567.539C1045.75 568.227 1044.23 568.909 1042.7 569.584C1042.42 569.705 1042.15 569.825 1041.87 569.946C1041.44 570.133 1041.02 570.319 1040.59 570.505C1040.17 570.685 1039.76 570.865 1039.34 571.045C1038.96 571.209 1038.57 571.373 1038.19 571.537C1037.85 571.682 1037.51 571.828 1037.16 571.973C1036.68 572.176 1036.2 572.38 1035.72 572.582C1035.45 572.693 1035.19 572.804 1034.92 572.915V626.271C1034.92 626.547 1034.7 626.771 1034.42 626.771C1034.14 626.771 1033.92 626.547 1033.92 626.271V613.778L955.179 646.083C954.924 646.188 954.632 646.065 954.527 645.81C954.422 645.554 954.544 645.262 954.799 645.157L1033.92 612.697V573.329C1032.62 573.867 1031.31 574.401 1029.99 574.93C1029.9 574.969 1029.8 575.009 1029.7 575.049C1028.94 575.353 1028.18 575.656 1027.41 575.958C1027.33 575.991 1027.24 576.024 1027.16 576.057C1026.44 576.342 1025.71 576.626 1024.98 576.908C1024.69 577.023 1024.39 577.136 1024.1 577.25C1023.59 577.445 1023.09 577.64 1022.58 577.834C1022.24 577.966 1021.89 578.097 1021.54 578.229C1021.03 578.423 1020.52 578.616 1020.01 578.809C1019.64 578.947 1019.27 579.086 1018.9 579.224C1018.47 579.385 1018.04 579.545 1017.6 579.705C1017.21 579.85 1016.82 579.994 1016.43 580.138C1015.83 580.359 1015.22 580.58 1014.61 580.8C1014.42 580.87 1014.23 580.942 1014.03 581.012C1013.43 581.228 1012.83 581.443 1012.23 581.658C1011.9 581.776 1011.57 581.894 1011.24 582.012C1010.63 582.227 1010.03 582.441 1009.42 582.654C1009.2 582.731 1008.98 582.809 1008.77 582.885C1007.05 583.485 1005.32 584.078 1003.59 584.665C1003.24 584.785 1002.88 584.904 1002.53 585.023C1002.02 585.196 1001.5 585.368 1000.99 585.539C1000.58 585.677 1000.17 585.813 999.753 585.95C999.302 586.099 998.851 586.248 998.399 586.396C997.969 586.538 997.539 586.679 997.108 586.819C996.639 586.972 996.17 587.124 995.7 587.276C995.323 587.398 994.946 587.519 994.569 587.641C994.063 587.803 993.557 587.965 993.05 588.126C992.636 588.258 992.222 588.39 991.807 588.521C991.343 588.668 990.877 588.814 990.412 588.96C990.016 589.084 989.62 589.208 989.223 589.332C988.59 589.529 987.956 589.725 987.321 589.921C987.072 589.998 986.823 590.075 986.574 590.151C983.842 590.99 981.093 591.813 978.332 592.622C978.096 592.691 977.86 592.759 977.625 592.828C977.056 592.994 976.487 593.16 975.918 593.325C975.344 593.491 974.77 593.656 974.196 593.82C973.9 593.905 973.603 593.99 973.306 594.074C972.781 594.224 972.255 594.373 971.729 594.521C971.249 594.657 970.768 594.793 970.287 594.928C969.876 595.043 969.464 595.158 969.052 595.272C968.664 595.381 968.276 595.489 967.887 595.597C967.3 595.759 966.713 595.922 966.125 596.083C965.852 596.158 965.578 596.232 965.305 596.307C964.703 596.471 964.099 596.635 963.496 596.799C963.178 596.885 962.86 596.97 962.542 597.056C959.65 597.834 956.747 598.598 953.837 599.347C953.408 599.457 952.979 599.567 952.55 599.677C952.218 599.762 951.886 599.846 951.553 599.931C950.997 600.072 950.441 600.212 949.884 600.353C949.472 600.457 949.059 600.561 948.646 600.664C948.11 600.798 947.574 600.932 947.038 601.065C946.589 601.177 946.141 601.288 945.692 601.398C945.334 601.487 944.976 601.575 944.618 601.663C943.951 601.827 943.283 601.989 942.615 602.151C942.464 602.188 942.313 602.224 942.163 602.261C941.472 602.428 940.78 602.596 940.089 602.762C939.624 602.873 939.16 602.983 938.695 603.094C938.293 603.189 937.891 603.286 937.489 603.381C936.944 603.51 936.399 603.638 935.854 603.766C933.999 604.201 932.143 604.631 930.285 605.055C929.886 605.146 929.487 605.237 929.089 605.327C928.687 605.418 928.286 605.508 927.884 605.599C927.357 605.717 926.83 605.836 926.303 605.954C925.929 606.038 925.554 606.122 925.179 606.205C924.688 606.314 924.196 606.424 923.705 606.532C922.156 606.874 920.608 607.212 919.059 607.546C918.851 607.591 918.643 607.636 918.434 607.681C916.836 608.025 915.237 608.365 913.639 608.701C913.484 608.734 913.328 608.765 913.172 608.798C909.862 609.492 906.554 610.169 903.25 610.828C903.094 610.859 902.938 610.891 902.782 610.922C901.134 611.25 899.488 611.574 897.843 611.894C897.743 611.913 897.643 611.933 897.543 611.952C895.906 612.27 894.271 612.583 892.638 612.893C892.482 612.922 892.326 612.951 892.171 612.98C891.678 613.074 891.185 613.168 890.693 613.261C889.58 613.469 888.469 613.675 887.358 613.88C887.192 613.91 887.027 613.94 886.861 613.971C885.715 614.182 884.571 614.389 883.427 614.596C882.404 614.781 881.382 614.964 880.361 615.146C879.566 615.287 878.771 615.429 877.977 615.568C876.908 615.756 875.841 615.942 874.775 616.127C874.006 616.26 873.237 616.393 872.469 616.524C871.344 616.717 870.22 616.907 869.098 617.096C868.39 617.215 867.684 617.335 866.977 617.452C865.922 617.628 864.868 617.799 863.816 617.972C863.01 618.104 862.206 618.237 861.402 618.367C859.637 618.653 857.877 618.933 856.124 619.209C856.012 619.227 855.9 619.244 855.788 619.262C854.092 619.528 852.402 619.79 850.718 620.047C850.124 620.138 849.53 620.227 848.937 620.316C847.775 620.492 846.616 620.667 845.461 620.839C844.732 620.947 844.005 621.053 843.279 621.159C842.225 621.314 841.174 621.468 840.126 621.619C839.366 621.729 838.608 621.837 837.852 621.944C836.823 622.091 835.796 622.236 834.772 622.379C834.146 622.466 833.522 622.554 832.898 622.641C831.681 622.809 830.468 622.975 829.259 623.139C828.715 623.212 828.172 623.287 827.63 623.359C826.513 623.509 825.401 623.656 824.293 623.802C823.606 623.892 822.921 623.983 822.238 624.072C821.288 624.196 820.342 624.316 819.398 624.437C818.664 624.53 817.933 624.626 817.203 624.718C816.089 624.858 814.979 624.995 813.875 625.131C813.311 625.2 812.749 625.271 812.188 625.34C810.576 625.537 808.973 625.73 807.381 625.918C806.767 625.991 806.155 626.06 805.544 626.132C804.526 626.251 803.512 626.37 802.504 626.485C801.948 626.549 801.395 626.61 800.842 626.673C799.679 626.804 798.523 626.935 797.373 627.062C796.995 627.103 796.618 627.143 796.242 627.185C795.075 627.312 793.915 627.439 792.762 627.562C792.219 627.62 791.677 627.677 791.136 627.733C790.154 627.837 789.177 627.939 788.205 628.039C787.557 628.106 786.912 628.171 786.269 628.236C785.339 628.331 784.414 628.423 783.495 628.514C782.949 628.568 782.406 628.622 781.864 628.675C780.877 628.771 779.896 628.865 778.922 628.958C778.377 629.01 777.835 629.062 777.295 629.112C776.307 629.205 775.326 629.295 774.352 629.384C773.894 629.426 773.438 629.468 772.983 629.509C771.801 629.615 770.629 629.719 769.468 629.819C769.197 629.843 768.925 629.867 768.655 629.891C767.874 629.958 767.097 630.022 766.326 630.087C764.863 630.21 763.417 630.328 761.991 630.442C761.534 630.479 761.078 630.516 760.625 630.552C759.985 630.602 759.349 630.65 758.717 630.698C757.932 630.758 757.153 630.818 756.38 630.876C755.929 630.909 755.48 630.942 755.033 630.975C754.192 631.036 753.359 631.096 752.533 631.154C752.067 631.187 751.603 631.218 751.141 631.25C750.232 631.313 749.333 631.373 748.443 631.432C748.147 631.451 747.852 631.471 747.558 631.49C746.766 631.542 745.981 631.591 745.205 631.639C744.627 631.675 744.053 631.71 743.484 631.744C742.911 631.778 742.343 631.811 741.78 631.844C741.22 631.876 740.664 631.909 740.113 631.939C739.339 631.983 738.574 632.023 737.819 632.062C737.501 632.079 737.185 632.097 736.87 632.113C735.752 632.171 734.655 632.225 733.58 632.274C733.304 632.287 733.07 632.074 733.057 631.799C733.044 631.523 733.257 631.288 733.533 631.275C734.762 631.218 736.019 631.156 737.304 631.089C738.236 631.041 739.183 630.99 740.143 630.937C740.526 630.915 740.911 630.892 741.298 630.87C742.111 630.824 742.934 630.776 743.766 630.726C744.116 630.704 744.468 630.682 744.821 630.66C745.648 630.609 746.485 630.557 747.331 630.502C747.764 630.474 748.199 630.446 748.636 630.417C749.374 630.368 750.119 630.318 750.87 630.267C751.479 630.225 752.093 630.182 752.712 630.139C753.299 630.097 753.889 630.055 754.484 630.012C755.137 629.964 755.795 629.917 756.457 629.867C757.133 629.817 757.815 629.764 758.501 629.712C759.189 629.659 759.882 629.607 760.58 629.552C761.409 629.487 762.245 629.419 763.087 629.351C763.508 629.316 763.931 629.284 764.355 629.249C765.755 629.134 767.173 629.014 768.607 628.891C768.908 628.865 769.21 628.838 769.512 628.812C770.57 628.72 771.636 628.626 772.711 628.529C773.481 628.46 774.255 628.389 775.034 628.317C775.692 628.257 776.353 628.196 777.017 628.134C777.802 628.06 778.592 627.985 779.385 627.909C780.114 627.84 780.846 627.769 781.582 627.697C782.182 627.639 782.784 627.579 783.388 627.52C784.393 627.42 785.403 627.319 786.42 627.216C786.923 627.165 787.428 627.114 787.934 627.062C788.916 626.961 789.903 626.857 790.896 626.753C791.568 626.682 792.242 626.611 792.919 626.539C793.676 626.458 794.436 626.375 795.2 626.292C796.024 626.202 796.853 626.113 797.684 626.021C798.683 625.91 799.687 625.797 800.696 625.683C806.775 624.995 813.026 624.244 819.421 623.426C820.292 623.314 821.166 623.203 822.043 623.089C822.883 622.98 823.726 622.868 824.571 622.757C825.424 622.644 826.279 622.531 827.136 622.416C827.92 622.311 828.705 622.205 829.493 622.098C830.557 621.953 831.625 621.807 832.696 621.659C833.332 621.571 833.969 621.482 834.608 621.393C835.591 621.255 836.576 621.116 837.564 620.976C838.438 620.851 839.313 620.726 840.191 620.6C841.097 620.469 842.004 620.336 842.914 620.202C843.713 620.085 844.514 619.968 845.316 619.849C846.477 619.676 847.641 619.501 848.808 619.324C849.391 619.236 849.976 619.149 850.56 619.06C852.187 618.811 853.819 618.559 855.456 618.302C855.631 618.274 855.806 618.247 855.981 618.22C857.791 617.935 859.606 617.645 861.427 617.351C861.933 617.269 862.439 617.184 862.945 617.102C864.214 616.895 865.486 616.688 866.759 616.476C867.507 616.351 868.255 616.224 869.004 616.098C870.14 615.906 871.279 615.714 872.42 615.519C873.067 615.408 873.715 615.296 874.363 615.184C875.538 614.98 876.714 614.776 877.892 614.568C878.591 614.445 879.291 614.321 879.991 614.196C881.226 613.977 882.463 613.755 883.701 613.53C884.536 613.379 885.371 613.228 886.208 613.074C888.299 612.69 890.394 612.3 892.492 611.902C894.088 611.6 895.686 611.294 897.285 610.983C897.441 610.953 897.597 610.923 897.754 610.893C899.391 610.574 901.031 610.252 902.672 609.925C902.74 609.911 902.808 609.897 902.876 609.884C906.218 609.217 909.564 608.533 912.913 607.831C913.082 607.796 913.251 607.76 913.421 607.725C914.956 607.402 916.491 607.075 918.027 606.745C918.342 606.677 918.658 606.61 918.973 606.542C920.445 606.224 921.917 605.902 923.388 605.577C923.987 605.445 924.585 605.313 925.183 605.18C925.437 605.123 925.691 605.068 925.945 605.011C926.719 604.838 927.493 604.662 928.266 604.487C932.527 603.523 936.783 602.53 941.027 601.507C941.635 601.36 942.243 601.213 942.85 601.065C943.164 600.989 943.477 600.913 943.791 600.836C944.464 600.671 945.137 600.506 945.809 600.34C946.097 600.269 946.384 600.197 946.672 600.126C947.346 599.959 948.02 599.79 948.693 599.621C948.909 599.567 949.126 599.512 949.342 599.458C950.147 599.255 950.952 599.051 951.755 598.847C951.901 598.81 952.047 598.773 952.192 598.736C952.919 598.551 953.646 598.363 954.372 598.176C957.529 597.36 960.676 596.528 963.81 595.678C964.666 595.446 965.52 595.212 966.374 594.978C966.5 594.943 966.626 594.908 966.752 594.873C967.537 594.657 968.321 594.439 969.104 594.221C969.361 594.149 969.617 594.077 969.874 594.005C970.415 593.853 970.957 593.701 971.498 593.548C971.921 593.428 972.344 593.309 972.767 593.188C973.388 593.012 974.008 592.834 974.628 592.656C974.874 592.585 975.121 592.514 975.367 592.443C975.961 592.272 976.554 592.099 977.147 591.926C977.523 591.816 977.898 591.708 978.273 591.598C978.706 591.471 979.138 591.343 979.57 591.215C980.024 591.081 980.478 590.947 980.931 590.812C981.805 590.552 982.678 590.29 983.548 590.027C983.74 589.969 983.931 589.911 984.123 589.853C984.845 589.634 985.566 589.414 986.286 589.193C986.608 589.095 986.929 588.995 987.251 588.896C987.762 588.738 988.272 588.581 988.782 588.422C989.237 588.28 989.691 588.138 990.145 587.995C990.65 587.837 991.154 587.679 991.658 587.52C991.941 587.43 992.224 587.339 992.507 587.249C993.143 587.047 993.778 586.845 994.412 586.642C994.657 586.563 994.903 586.484 995.148 586.404C995.754 586.209 996.359 586.012 996.963 585.814C997.323 585.697 997.684 585.579 998.045 585.461C998.637 585.266 999.229 585.07 999.82 584.874C1000.03 584.805 1000.24 584.736 1000.45 584.666C1001.15 584.433 1001.85 584.199 1002.54 583.964C1002.77 583.888 1002.99 583.813 1003.21 583.737C1005.87 582.839 1008.5 581.926 1011.11 580.997C1011.24 580.951 1011.37 580.904 1011.5 580.858C1012.16 580.622 1012.82 580.386 1013.48 580.148C1013.85 580.014 1014.22 579.879 1014.59 579.744C1015.12 579.553 1015.64 579.361 1016.17 579.169C1016.44 579.069 1016.71 578.968 1016.99 578.867C1017.55 578.66 1018.11 578.452 1018.67 578.243C1018.98 578.126 1019.3 578.008 1019.61 577.89C1020.21 577.664 1020.81 577.436 1021.41 577.209C1021.61 577.133 1021.81 577.057 1022.01 576.98C1022.6 576.758 1023.18 576.534 1023.76 576.31C1024.08 576.187 1024.39 576.066 1024.71 575.943C1025.2 575.752 1025.69 575.559 1026.18 575.366C1026.51 575.236 1026.84 575.108 1027.17 574.978C1027.8 574.729 1028.43 574.479 1029.05 574.229C1029.24 574.153 1029.43 574.079 1029.62 574.004C1030.41 573.685 1031.2 573.366 1031.99 573.044C1032.63 572.78 1033.28 572.513 1033.92 572.246V506.651C1007.49 523.457 976.603 540.454 940.767 557.572L939.905 555.768C1040.42 507.753 1101.73 460.829 1134.71 416.529C1167.65 372.28 1172.31 330.655 1159.55 293.042C1146.76 255.358 1116.42 221.566 1079.09 193.183C1041.77 164.81 997.541 141.913 957.129 125.989L957.862 124.129C998.403 140.103 1042.8 163.083 1080.3 191.591C1117.78 220.088 1148.47 254.178 1161.44 292.399C1174.44 330.692 1169.6 372.997 1136.31 417.724C1126.66 430.691 1114.61 443.86 1099.91 457.2L1190.63 530.036C1262.65 463.345 1289.73 392.584 1279.63 324.972C1268.81 252.568 1215.31 183.468 1127.96 126.613C1040.63 69.7698 919.556 25.2479 773.864 1.97559L774.179 0Z" fill="white" fill-opacity="0.8"/>
<path fill-rule="evenodd" clip-rule="evenodd" d="M349.685 48.4111C446.444 18.8071 551.045 4.00104 646.321 7.57031C699.314 9.55558 749.457 17.2271 793.773 31.2197C793.859 31.1502 793.967 31.1074 794.087 31.1074C794.315 31.1074 794.505 31.2614 794.565 31.4707C829.588 42.6061 860.949 57.7042 887.172 77.0801L887.577 77.3799V138.45H885.577V78.3906C859.793 59.4215 828.995 44.579 794.587 33.5781V154.249H898.129C898.405 154.249 898.629 154.473 898.629 154.749C898.629 155.025 898.405 155.249 898.129 155.249H828.823V224.423H933.199V154.749C933.199 154.473 933.423 154.249 933.699 154.249C933.975 154.249 934.199 154.473 934.199 154.749V224.423H1051.92L1052.02 224.432C1052.23 224.472 1052.4 224.648 1052.42 224.87L1056.05 258.961C1056.08 259.235 1055.88 259.481 1055.6 259.511C1055.33 259.54 1055.08 259.341 1055.05 259.066L1051.48 225.423H940.624V268.093H952.818L952.912 268.102C953.004 268.119 953.089 268.162 953.159 268.227L991.422 303.843C1007.38 295.242 1025.82 287.864 1047.06 282.105C1047.33 282.033 1047.6 282.191 1047.68 282.457C1047.75 282.724 1047.59 282.998 1047.32 283.07C1026.01 288.848 1007.54 296.259 991.582 304.893C985.047 308.428 978.932 312.169 973.215 316.087C946.273 334.553 928.151 356.967 916.446 380.417C892.602 428.186 895.366 480.289 904.503 512.108C904.578 512.374 904.425 512.65 904.16 512.727C903.894 512.803 903.618 512.649 903.542 512.384C894.4 480.544 891.599 428.538 915.194 380.693H883.323V396.673C883.323 396.758 883.301 396.842 883.259 396.917C878.994 404.522 870.514 425.034 870.547 446.434H896.699C896.975 446.434 897.199 446.658 897.199 446.934C897.199 447.21 896.975 447.433 896.699 447.434H866.023V464.291H882.569C882.845 464.291 883.069 464.515 883.069 464.791C883.069 465.067 882.845 465.291 882.569 465.291H866.023V470.758C866.023 471.034 865.799 471.258 865.523 471.258C865.247 471.258 865.023 471.034 865.023 470.758V447.434H765.743V469.815C765.743 470.091 765.519 470.315 765.243 470.315H746.378C746.102 470.315 745.878 470.091 745.878 469.815V464.633C745.878 464.357 746.102 464.133 746.378 464.133C746.654 464.133 746.877 464.357 746.878 464.633V469.315H764.743V447.434H727.993V530.966C727.993 531.242 727.769 531.466 727.493 531.466H690.917V566.771C704.444 567.238 735.563 566.297 755.888 558.885C756.148 558.79 756.435 558.923 756.53 559.183C756.625 559.442 756.49 559.73 756.231 559.824C735.47 567.396 703.681 568.262 690.398 567.755C690.13 567.745 689.917 567.524 689.917 567.256V530.966C689.917 530.69 690.141 530.466 690.417 530.466H726.993V447.434H692.824V496.989H700.295C700.57 496.989 700.794 497.213 700.795 497.489C700.795 497.765 700.571 497.989 700.295 497.989H600.822V632.784C624.502 632.701 648.694 631.881 673.361 630.253L673.493 632.249C474.418 645.39 306.191 606.007 187.706 551.038C128.466 523.555 81.6336 492.164 49.5934 461.467C17.6084 430.823 0.205774 400.713 0.193004 375.773C-3.10056 300.905 35.9869 233.833 99.9694 178.134C163.957 122.431 252.932 78.0132 349.685 48.4111ZM529.998 630.812C552.73 632.167 576.017 632.85 599.822 632.787V531.466H529.998V630.812ZM353.619 530.466H496.477C496.753 530.466 496.977 530.69 496.977 530.966V628.345C507.523 629.294 518.197 630.098 528.998 630.752V530.966C528.998 530.69 529.222 530.466 529.498 530.466H599.822V497.489C599.822 497.213 600.046 496.989 600.322 496.989H691.824V446.934C691.824 446.658 692.048 446.434 692.324 446.434H801.145V187.539H494.646C494.37 187.539 494.146 187.315 494.146 187.039V171.283H353.619V530.466ZM353.619 605.35C397.795 615.731 445.393 623.651 495.977 628.254V531.466H353.619V605.35ZM160.28 535.334C169.355 540.055 178.781 544.694 188.548 549.225C235.717 571.108 290.808 590.521 352.619 605.115V244.236H160.28V535.334ZM46.733 455.872C48.1171 457.253 49.5313 458.637 50.9772 460.022C77.3649 485.304 113.908 511.113 159.28 534.814V455.872H46.733ZM42.6276 244.236C15.0423 284.395 0.111643 328.522 2.19105 375.702L2.19203 375.724V375.746C2.19208 398.491 17.242 426.153 45.7369 454.872H159.28V244.236H42.6276ZM802.145 446.434H865.325C865.386 446.407 865.453 446.393 865.523 446.393C865.594 446.393 865.661 446.407 865.721 446.434H869.547C869.515 424.921 877.982 404.34 882.323 396.546V380.693H802.145V446.434ZM953.209 299.687C941.727 306.853 928.817 321.751 917.321 337.525C906.054 352.986 896.192 369.226 890.423 379.693H915.691C927.396 356.354 945.427 334.055 972.112 315.634L953.281 299.631C953.259 299.651 953.235 299.67 953.209 299.687ZM802.145 379.693H882.473C882.563 379.605 882.687 379.55 882.823 379.55C882.959 379.55 883.082 379.605 883.172 379.693H889.281C895.027 369.216 905.043 352.675 916.512 336.937C921.842 329.624 927.496 322.471 933.188 316.175H828.323C828.047 316.175 827.823 315.951 827.823 315.675V288.658L802.145 287.784V379.693ZM897.199 315.175H933.699C933.814 315.175 933.918 315.215 934.003 315.28C940.259 308.456 946.547 302.706 952.49 298.958L945.067 292.65L897.199 291.021V315.175ZM828.823 315.175H896.199V290.987L828.823 288.692V315.175ZM592.863 186.539H801.645C801.921 186.539 802.145 186.763 802.145 187.039V286.783L945.276 291.658L945.36 291.668C945.442 291.685 945.518 291.722 945.583 291.776L972.965 315.047C978.442 311.309 984.278 307.733 990.495 304.345L952.621 269.093H828.323C828.047 269.093 827.823 268.869 827.823 268.593V155.249H592.863V186.539ZM828.823 268.093H864.398V225.423H828.823V268.093ZM865.398 268.093H939.624V225.423H865.398V268.093ZM221.493 101.194C176.077 123.83 135.15 150.16 101.283 179.643C78.497 199.478 58.9194 220.731 43.317 243.236H221.493V101.194ZM222.493 243.236H296.08V138.188H222.493V243.236ZM297.08 243.236H352.619V83.3516H297.08V243.236ZM591.863 9.47754C561.052 10.4827 529.636 13.2382 498.147 17.6289V94.2168C498.147 94.4928 497.923 94.7168 497.647 94.7168H490.464C490.187 94.7168 489.964 94.4929 489.964 94.2168V18.8057C482.588 19.9001 475.21 21.0849 467.839 22.3564L469.146 94.208C469.148 94.342 469.096 94.4717 469.003 94.5674C468.909 94.6629 468.78 94.7168 468.646 94.7168H446.599V130.338H494.646C494.922 130.338 495.146 130.562 495.146 130.838V186.539H591.863V9.47754ZM353.619 170.283H445.599V138.188H353.619V170.283ZM446.599 170.283H494.146V131.338H446.599V170.283ZM646.246 9.56934C628.733 8.91328 610.903 8.88163 592.863 9.44824V154.249H793.587V33.2598C749.394 19.2544 699.293 11.5566 646.246 9.56934ZM296.08 68.7832C270.596 78.3886 245.95 89.0525 222.493 100.699V137.188H296.08V68.7832ZM445.599 26.4629C432.205 29.0983 418.852 32.0176 405.582 35.2178V94.2168C405.582 94.4927 405.358 94.7165 405.082 94.7168H398.049C397.773 94.7167 397.55 94.4928 397.549 94.2168C397.549 93.9407 397.773 93.7169 398.049 93.7168H404.582V35.4609C387.424 39.6177 370.407 44.2399 353.619 49.3076V93.7168H362.11C362.386 93.7168 362.61 93.9407 362.61 94.2168C362.61 94.4929 362.386 94.7168 362.11 94.7168H353.619V137.188H445.599V26.4629ZM466.841 22.5283C460.087 23.7006 453.338 24.9461 446.599 26.2646V93.7168H468.137L466.841 22.5283ZM497.147 17.7695C495.086 18.0592 493.025 18.3556 490.964 18.6592V93.7168H497.147V17.7695ZM350.27 50.3232C332.228 55.8434 314.461 61.8793 297.08 68.4062V82.3516H352.619V49.6104C351.836 49.8477 351.052 50.0839 350.27 50.3232Z" fill="white" fill-opacity="0.8"/>
<path d="M790.567 487.726C807.784 487.726 821.742 501.683 821.742 518.9C821.742 536.118 807.784 550.075 790.567 550.075C773.35 550.075 759.392 536.118 759.392 518.9C759.392 501.683 773.35 487.726 790.567 487.726Z" fill="white" fill-opacity="0.8"/>
<path d="M994.239 361.464C1011.46 361.464 1025.41 375.421 1025.41 392.639C1025.41 409.856 1011.46 423.813 994.239 423.813C977.022 423.813 963.064 409.856 963.064 392.639C963.064 375.421 977.022 361.464 994.239 361.464Z" fill="white" fill-opacity="0.8"/>
<path d="M1221.21 361.464C1238.43 361.464 1252.38 375.421 1252.38 392.639C1252.38 409.856 1238.43 423.813 1221.21 423.813C1203.99 423.813 1190.03 409.856 1190.03 392.639C1190.03 375.421 1203.99 361.464 1221.21 361.464Z" fill="white" fill-opacity="0.8"/>
</svg>
