<svg width="1360" height="734" viewBox="0 0 1360 734" fill="none" xmlns="http://www.w3.org/2000/svg">
<path d="M1178.26 263.2C1178.47 262.691 1179.06 262.45 1179.57 262.663C1180.08 262.876 1180.32 263.462 1180.11 263.972L1120.43 406.674C1120.21 407.183 1119.63 407.423 1119.12 407.21C1118.61 406.997 1118.37 406.411 1118.58 405.901L1178.26 263.2Z" fill="white" fill-opacity="0.8"/>

<path fill-rule="evenodd" clip-rule="evenodd" d="M849.003 0.842708C849.09 0.297553 849.603 -0.0743916 850.148 0.0126295C855.345 0.842677 860.51 1.70024 865.643 2.58392C865.782 2.41483 866.019 2.34983 866.229 2.44134C866.361 2.49872 866.454 2.60627 866.499 2.73138C1005.12 26.689 1120.69 70.0613 1205.02 124.949C1292.63 181.97 1346.64 251.501 1357.57 324.689C1368.51 397.931 1336.28 474.528 1252.08 545.539C1202.23 587.585 1134.13 627.702 1045.9 664.055C1045.85 664.123 1045.78 664.181 1045.69 664.215C1045.61 664.246 1045.53 664.252 1045.45 664.242C984.799 689.203 914.654 712.387 834.402 733.198C833.868 733.337 833.322 733.016 833.183 732.481C833.045 731.947 833.366 731.401 833.9 731.263C839.49 729.813 845.029 728.351 850.52 726.879L831.007 660.524C830.999 660.499 830.995 660.474 830.992 660.448C792.205 665.018 758.104 667.963 734.792 669.432C734.654 669.44 734.519 669.391 734.419 669.297C734.318 669.203 734.261 669.07 734.261 668.933V646.602C703.844 648.632 656.155 649.294 632.618 649.358C632.485 649.359 632.357 649.305 632.263 649.212C632.17 649.118 632.117 648.991 632.117 648.858V634.077C494.546 629.134 375.999 599.499 284.149 560.176V597.672C284.149 597.988 284 598.286 283.746 598.475C283.492 598.663 283.163 598.721 282.86 598.63C243.276 586.675 192.754 570.456 145.409 548.529C98.0847 526.612 53.8168 498.94 26.8416 464.019C13.3436 446.546 4.16137 427.239 1.11116 405.923C-1.93944 384.604 1.15305 361.339 12.1063 335.969C33.9968 285.264 87.3018 226.101 185.894 157.008L185.98 156.954C186.417 156.709 186.976 156.826 187.277 157.239L192.5 164.416C254.856 115.121 336.99 75.5511 425.654 48.4238C522.413 18.8199 627.014 4.01368 722.29 7.58294C764.596 9.1679 805.086 14.377 842.245 23.5331L850.844 2.15032C850.507 2.09626 850.17 2.04206 849.833 1.98822C849.288 1.90113 848.916 1.38799 849.003 0.842708ZM838.479 659.554C836.303 659.818 834.141 660.077 831.992 660.331L851.486 726.62C853.569 726.06 855.645 725.498 857.715 724.935L838.479 659.554ZM845.706 658.663C843.621 658.923 841.547 659.179 839.485 659.431L858.68 724.673C860.767 724.104 862.847 723.534 864.92 722.962C864.899 722.927 864.879 722.89 864.867 722.849L845.706 658.663ZM853.444 657.683C851.188 657.973 848.943 658.257 846.711 658.537L865.826 722.561C865.84 722.61 865.844 722.659 865.844 722.707C868.086 722.087 870.319 721.464 872.544 720.84L853.444 657.683ZM860.566 656.754C858.519 657.024 856.48 657.291 854.45 657.554L873.508 720.57C875.518 720.005 877.522 719.439 879.518 718.871L860.566 656.754ZM866.975 655.894C865.168 656.139 863.367 656.381 861.571 656.619L880.479 718.598C882.057 718.148 883.63 717.697 885.199 717.246L866.835 656.406C866.778 656.216 866.839 656.02 866.975 655.894ZM873.719 654.97C871.653 655.257 869.593 655.539 867.541 655.817C867.657 655.877 867.751 655.982 867.792 656.117L886.16 716.97C888.251 716.367 890.334 715.762 892.41 715.156L873.719 654.97ZM881.524 653.87C879.251 654.195 876.983 654.515 874.723 654.83L893.37 714.875C895.348 714.296 897.319 713.716 899.283 713.134L881.524 653.87ZM887.725 652.973C885.989 653.227 884.255 653.479 882.525 653.727L900.241 712.851C902.288 712.243 904.327 711.634 906.358 711.023L887.746 653.177C887.724 653.109 887.719 653.039 887.725 652.973ZM952.924 642.151C931.58 646.163 909.9 649.716 888.681 652.833C888.687 652.845 888.694 652.858 888.698 652.871L907.317 710.734C929.53 704.043 950.843 697.154 971.272 690.086L952.924 642.151ZM963.493 640.12C960.312 640.744 957.121 641.358 953.922 641.962L972.218 689.758C975.093 688.761 977.951 687.76 980.792 686.756L963.511 640.185C963.503 640.164 963.498 640.142 963.493 640.12ZM974.43 637.922C971.127 638.601 967.81 639.271 964.481 639.927L981.734 686.423C984.526 685.434 987.302 684.441 990.06 683.445L974.448 638.169C974.42 638.087 974.416 638.002 974.43 637.922ZM983.824 635.952C981.009 636.555 978.18 637.15 975.341 637.736C975.362 637.769 975.38 637.804 975.393 637.843L991 683.105C994.091 681.987 997.162 680.863 1000.21 679.736C1000.15 679.684 1000.1 679.62 1000.08 679.542L983.815 636.326C983.768 636.2 983.775 636.067 983.824 635.952ZM993.16 633.91C990.328 634.543 987.481 635.167 984.619 635.782C984.675 635.834 984.722 635.897 984.751 635.974L1001.01 679.188C1001.04 679.269 1001.05 679.353 1001.03 679.433C1003.99 678.339 1006.92 677.24 1009.83 676.139C1009.74 676.084 1009.66 675.999 1009.61 675.888L993.173 633.954C993.167 633.94 993.164 633.925 993.16 633.91ZM1001.98 631.897C999.381 632.503 996.769 633.1 994.142 633.689L1010.54 675.522C1010.59 675.638 1010.59 675.759 1010.55 675.868C1012.81 675.012 1015.06 674.153 1017.29 673.293L1002 631.981C1001.99 631.954 1001.98 631.926 1001.98 631.897ZM1012.32 629.427C1009.22 630.186 1006.1 630.933 1002.95 631.67L1018.23 672.934C1021.1 671.826 1023.95 670.715 1026.78 669.6L1012.32 629.427ZM1021.94 627.008C1019.08 627.744 1016.2 628.469 1013.3 629.185L1027.71 669.231C1030.45 668.15 1033.17 667.066 1035.87 665.978L1021.94 627.008ZM1058.73 588.28C1018.48 606.36 959.56 619.86 901.675 629.201C843.529 638.585 786.379 643.782 750.148 645.21C746.006 645.705 740.949 646.144 735.261 646.534V668.398C804.149 664.022 965.478 646.951 1065 613.31L1058.73 588.28ZM1029.94 624.897C1027.62 625.524 1025.27 626.144 1022.91 626.757L1036.8 665.604C1039.38 664.565 1041.94 663.523 1044.48 662.477L1029.94 624.897ZM975.724 28.8808C975.723 28.9353 975.716 28.9908 975.696 29.0449L958.992 73.831C958.966 73.901 958.925 73.9604 958.875 74.0097C960.311 75.0249 961.733 76.0529 963.14 77.0927L963.546 77.3925V138.463C963.546 139.015 963.098 139.462 962.546 139.463C961.994 139.463 961.546 139.015 961.546 138.463V112.044H758.65V142.705H987.856C988.132 142.705 988.356 142.929 988.356 143.205V289.399H1085.81L1085.9 289.407C1086.1 289.444 1086.26 289.606 1086.3 289.816C1091.5 320.936 1089.82 370.449 1067.9 417.915C1045.98 465.366 1003.84 510.75 928.189 533.659C921.309 543.83 909.309 557.114 895.515 564.048C888.578 567.535 881.159 569.431 873.698 568.485C866.295 567.547 858.908 563.818 851.952 556.184L750.288 575.698C750.142 575.726 749.991 575.688 749.876 575.593C749.761 575.498 749.694 575.356 749.694 575.207V536.889H697.489C697.404 536.889 697.32 536.867 697.246 536.826C686.972 531.118 657.079 523.043 620.167 536.805C614.607 544.627 599.527 553.917 572.267 556.974C555.863 558.813 535.025 558.398 509.143 554.041V584.686C509.143 584.962 508.919 585.186 508.643 585.186C508.367 585.186 508.144 584.962 508.143 584.686V553.872C490.987 550.931 471.633 546.267 449.908 539.391C449.769 539.346 449.655 539.243 449.598 539.108L428.138 488.297C428.038 488.061 428.132 487.788 428.356 487.664L437.207 482.78C436.28 476.349 435.592 465.902 436.478 454.978C437.363 444.077 439.823 432.635 445.228 424.238L423.645 413.755C423.402 413.637 423.297 413.345 423.408 413.099L451.894 350.057H415.086C414.81 350.057 414.586 349.833 414.586 349.557V173.491C414.586 173.313 414.68 173.157 414.82 173.068V53.913C404.806 57.119 394.884 60.4833 385.076 64.0038L388.234 474.188L349.074 508.83L425.709 532.427V567.274L479.09 581.765C479.356 581.837 479.514 582.111 479.441 582.378C479.369 582.644 479.094 582.802 478.828 582.729L425.709 568.31V604.442C519.399 626.866 628.679 638.23 749.33 630.266C749.59 630.249 749.832 630.333 750.02 630.484C750.048 630.479 750.077 630.477 750.106 630.477C750.382 630.477 750.606 630.7 750.606 630.977V644.189C785.585 642.785 839.823 637.895 895.608 629.151L887.952 595.46C887.893 595.203 888.045 594.944 888.298 594.869L971.398 570.268L971.499 570.25C971.6 570.242 971.703 570.264 971.792 570.316C971.911 570.386 971.996 570.502 972.027 570.637L981.518 612.09C981.535 612.162 981.533 612.233 981.519 612.301C996.915 608.536 1011.65 604.425 1025.28 599.958V553.458C1022.46 554.832 1019.62 556.209 1016.74 557.585C1016.24 557.823 1015.64 557.611 1015.4 557.113C1015.17 556.615 1015.38 556.018 1015.87 555.78C1046.57 541.118 1073.61 526.553 1097.3 512.138C1091.54 506.033 1084.11 495.788 1079.34 483.618C1074.3 470.747 1072.23 455.673 1078.36 441.066C1078.37 441.038 1078.38 441.012 1078.4 440.986C1087.07 427.747 1104.84 392.182 1106.51 355.952L1107.91 291.43V263.343C1107.91 263.067 1108.14 262.843 1108.41 262.843H1158.72C1159 262.595 1159.4 262.511 1159.77 262.66C1160.28 262.869 1160.53 263.452 1160.32 263.963L1105.07 399.574C1104.86 400.086 1104.28 400.331 1103.76 400.123C1103.25 399.915 1103.01 399.331 1103.22 398.819L1158.21 263.843H1142.12V291.43C1142.12 291.705 1141.9 291.929 1141.62 291.93H1133.33C1133.06 291.929 1132.83 291.705 1132.83 291.43C1132.83 291.154 1133.06 290.93 1133.33 290.93H1141.12V263.843H1108.91V290.93H1116.64C1116.92 290.93 1117.14 291.154 1117.14 291.43C1117.14 291.705 1116.92 291.929 1116.64 291.93H1108.9L1107.51 355.986V355.998C1105.83 392.432 1088 428.135 1079.26 441.492C1073.29 455.768 1075.3 470.543 1080.27 483.254C1085.03 495.394 1092.47 505.603 1098.17 511.606C1151.59 479.002 1187.89 447.147 1210.68 416.542C1243.61 372.293 1248.28 330.667 1235.52 293.055C1232.2 283.288 1227.71 273.783 1222.22 264.565C1222.16 264.578 1222.09 264.586 1222.02 264.586H1199.06L1146.72 392.779C1146.51 393.291 1145.93 393.536 1145.42 393.327C1144.91 393.118 1144.66 392.535 1144.87 392.023L1197.46 263.208L1197.53 263.073C1197.71 262.774 1198.03 262.586 1198.39 262.586H1221.02C1205.33 237.016 1182.02 213.694 1155.06 193.195C1117.74 164.823 1073.51 141.925 1033.1 126.002C1032.58 125.799 1032.33 125.219 1032.53 124.705C1032.74 124.192 1033.32 123.939 1033.83 124.142C1074.37 140.116 1118.77 163.096 1156.27 191.603C1193.75 220.1 1224.44 254.191 1237.41 292.412C1250.41 330.705 1245.57 373.01 1212.28 417.736C1180.09 460.982 1121.29 506.496 1026.28 552.971V599.628C1038.08 595.73 1049.04 591.566 1058.86 587.125L1058.97 587.092C1059.07 587.07 1059.18 587.082 1059.29 587.131C1059.42 587.195 1059.52 587.316 1059.55 587.46L1066.08 613.515C1066.15 613.767 1066.01 614.027 1065.76 614.11C1054.82 617.818 1043.14 621.325 1030.91 624.637L1045.4 662.096C1133.35 625.834 1201.18 585.856 1250.79 544.011C1334.64 473.294 1366.4 397.335 1355.59 324.984C1344.78 252.58 1291.28 183.48 1203.93 126.626C1143.17 87.0779 1066.08 53.4937 975.724 28.8808ZM749.606 632.24C749.559 632.25 749.511 632.258 749.462 632.262C709.378 634.908 670.545 635.423 633.117 634.111V648.355C656.961 648.283 704.586 647.611 734.727 645.569C740.403 645.185 745.453 644.75 749.606 644.265V632.24ZM889.031 595.694L896.599 628.996C898.237 628.738 899.876 628.478 901.515 628.214C928.341 623.885 955.369 618.663 980.644 612.514C980.598 612.456 980.561 612.389 980.544 612.312L971.171 571.378L889.031 595.694ZM7.98714 352.754C2.09059 371.664 0.746998 389.261 3.09066 405.64C6.08303 426.551 15.096 445.542 28.4246 462.797C55.1028 497.332 99.0173 524.84 146.25 546.715C192.95 568.343 242.78 584.411 282.149 596.322V559.315C275.864 556.604 269.705 553.848 263.675 551.051C251.604 545.451 240.049 539.689 229.029 533.804L216.657 556.816C216.592 556.937 216.48 557.027 216.347 557.062C216.215 557.098 216.074 557.078 215.957 557.007L150.362 516.994C150.249 516.925 150.168 516.813 150.137 516.684C150.106 516.554 150.127 516.418 150.197 516.305L164.253 493.56C149.634 482.911 136.704 472.154 125.562 461.479C118.21 454.435 111.629 447.418 105.851 440.486L92.2469 452.657C92.1404 452.752 91.9982 452.799 91.8563 452.782C91.7147 452.766 91.5867 452.689 91.5047 452.572C67.5594 418.367 61.3517 380.437 61.243 365.704C61.2421 365.571 61.294 365.443 61.3875 365.349C61.4814 365.254 61.6098 365.2 61.743 365.2H75.9774C76.0158 361.026 76.1873 356.877 76.4862 352.754H7.98714ZM151.311 516.401L216.025 555.878L228.148 533.331C204.593 520.704 183.499 507.515 165.063 494.148L151.311 516.401ZM62.2489 366.2C62.4909 381.048 68.7272 418.029 92.0028 451.534L105.212 439.716C86.2688 416.772 76.1717 394.78 76.1619 375.786C76.0208 372.576 75.9593 369.381 75.9725 366.2H62.2489ZM186.239 159.211C88.2641 227.99 35.553 286.704 13.9422 336.761C11.746 341.848 9.87108 346.845 8.30257 351.754H76.5604C81.6221 286.531 118.881 227.817 175.938 178.146C180.795 173.919 185.795 169.756 190.931 165.66L186.239 159.211ZM415.82 172.991H449.315V141.473H415.82V172.991ZM450.315 172.991H469.468V141.473H450.315V172.991ZM470.468 172.991H498.533V141.473H470.468V172.991ZM722.215 9.58197C665.589 7.46065 605.644 11.8476 546.012 21.9902V153.966L757.101 156.625V143.205C757.101 142.929 757.325 142.705 757.601 142.705H757.65V11.8076C746.011 10.7703 734.188 10.0305 722.215 9.58197ZM495.979 31.8691C483.53 34.67 471.139 37.7161 458.842 41.0009V96.5986C458.842 96.8746 458.618 97.0983 458.342 97.0986H453.109C452.833 97.0985 452.609 96.8747 452.609 96.5986C452.609 96.3226 452.833 96.0986 453.109 96.0986H457.842V41.2685C447.231 44.1151 436.689 47.1387 426.239 50.3359C422.756 51.4017 419.282 52.4886 415.82 53.5927V140.473H499.033C499.309 140.473 499.533 140.696 499.533 140.973V153.388C499.557 153.384 499.582 153.381 499.606 153.382L545.012 153.953V97.0986H496.479C496.203 97.0986 495.979 96.8747 495.979 96.5986V31.8691ZM758.65 111.044H847.097V26.8232C819.363 19.6414 789.665 14.7113 758.65 11.8993V111.044ZM848.097 111.044H890.39V40.5156C876.911 35.3918 862.782 30.9206 848.097 27.0829V111.044ZM891.39 111.044H961.546V78.4033C950.835 70.5236 939.259 63.3568 926.919 56.8808C926.885 56.8755 926.851 56.8672 926.817 56.8544C926.746 56.8273 926.686 56.7846 926.637 56.7333C915.485 50.8964 903.712 45.6222 891.39 40.8974V111.044ZM545.012 22.162C528.953 24.9108 512.919 28.077 496.979 31.6454V96.0986H545.012V22.162ZM952.563 69.6415C952.558 69.655 952.55 69.6668 952.544 69.6796C954.408 70.9152 956.25 72.1698 958.068 73.4443L974.759 28.6962C974.768 28.6721 974.78 28.6497 974.792 28.6279C972.746 28.0724 970.692 27.5218 968.633 26.9755L952.563 69.6415ZM945.66 65.2656C947.696 66.5268 949.706 67.8104 951.691 69.1152L967.662 26.7177C965.67 26.1913 963.671 25.6709 961.666 25.1533L945.66 65.2656ZM939.592 61.4452C939.574 61.4921 939.546 61.5324 939.517 61.5702C941.295 62.6089 943.054 63.6641 944.796 64.7343L960.689 24.9003C958.486 24.3336 956.276 23.7719 954.057 23.2158L939.592 61.4452ZM933.371 58.079C935.152 59.0618 936.915 60.0613 938.662 61.0742L953.079 22.9716C951.099 22.477 949.113 21.9861 947.121 21.4999L933.371 58.079ZM927.991 55.1835C929.5 55.9765 930.998 56.78 932.484 57.5937L946.141 21.2617C944.573 20.8804 943.001 20.5019 941.426 20.1259L927.991 55.1835ZM921.983 52.1103C923.703 52.9663 925.409 53.834 927.1 54.7158L940.444 19.8925C938.372 19.3998 936.293 18.9111 934.208 18.4277L921.983 52.1103ZM915.14 48.8046C917.138 49.7407 919.118 50.6947 921.081 51.664L933.226 18.2001C931.259 17.7457 929.285 17.2958 927.306 16.8495L915.14 48.8046ZM909.658 45.9618C909.622 46.0682 909.551 46.1523 909.465 46.2109C911.064 46.9239 912.653 47.6473 914.231 48.3808L926.321 16.6279C924.27 16.1672 922.213 15.7105 920.15 15.2587L909.658 45.9618ZM895.674 40.4179C900.085 42.1624 904.426 43.9776 908.691 45.8661C908.681 45.7919 908.686 45.7144 908.712 45.6386L919.168 15.0439C915.29 14.198 911.391 13.3687 907.471 12.5546L895.674 40.4179ZM888.957 37.8368C890.899 38.5614 892.828 39.2993 894.743 40.0507L906.473 12.3466C904.455 11.929 902.43 11.5165 900.4 11.1074L888.957 37.8368ZM881.724 35.2216C883.837 35.9621 885.935 36.7172 888.018 37.4882L899.399 10.9062C897.426 10.5102 895.448 10.1173 893.465 9.72943L881.724 35.2216ZM875.417 33.0702C877.213 33.6664 879 34.2731 880.776 34.8906L892.454 9.53314C890.283 9.11033 888.105 8.6923 885.922 8.27923L875.417 33.0702ZM868.944 30.9814C870.794 31.5614 872.634 32.1528 874.464 32.7548L884.916 8.0888C882.857 7.70107 880.793 7.31842 878.723 6.93939L868.944 30.9814ZM863.392 29.2831C864.93 29.7423 866.462 30.2086 867.986 30.6826L877.72 6.75579C876.169 6.47311 874.616 6.19178 873.059 5.914L863.392 29.2831ZM855.985 27.1415C858.146 27.7454 860.294 28.3648 862.43 28.997L872.052 5.73529C869.977 5.36683 867.898 5.00319 865.813 4.64349L855.985 27.1415ZM849.053 25.2656C851.049 25.7895 853.036 26.3246 855.012 26.872L864.798 4.46868C862.85 4.13423 860.898 3.80326 858.941 3.4765L849.053 25.2656ZM843.225 23.7763C844.847 24.1795 846.462 24.5904 848.07 25.0087L857.92 3.30657C855.903 2.9715 853.882 2.64028 851.856 2.31341L843.225 23.7763Z" fill="white" fill-opacity="0.8"/>
</svg>
