<svg width="1347" height="732" viewBox="0 0 1347 732" fill="none" xmlns="http://www.w3.org/2000/svg">
<path fill-rule="evenodd" clip-rule="evenodd" d="M650.753 0.00524019C815.168 -0.433163 981.513 26.6357 1110.56 81.5238C1239.57 136.398 1331.54 219.196 1346.67 330.344L1346.68 330.411V330.479C1346.68 344.091 1342.07 360.554 1333.41 378.899C1324.75 397.256 1312 417.564 1295.65 438.883C1262.95 481.523 1215.79 528.276 1157.92 571.661C1087.95 624.117 1002.28 671.678 907.517 701.093C907.426 701.162 907.313 701.198 907.193 701.193C845.303 720.372 779.539 731.811 711.737 731.811C575.11 731.811 397.263 679.001 253.584 602.645C181.738 564.463 118.38 520.365 72.9697 473.987C27.5794 427.629 0.000248053 378.866 0 331.367C0 221.464 80.7246 138.831 202.224 83.6156C226.721 72.4829 252.887 62.4589 280.399 53.5453C280.457 53.4856 280.529 53.4389 280.614 53.4134C280.691 53.3904 280.77 53.3876 280.844 53.4007C389.727 18.1906 519.661 0.354805 650.753 0.00524019ZM359.422 649.976C478.497 698.82 607.267 729.811 711.737 729.811C779.441 729.811 845.122 718.366 906.937 699.178L915.25 643.75L359.422 649.976ZM916.264 643.739L907.996 698.85C938.969 689.184 968.967 677.576 997.757 664.491V642.827L916.264 643.739ZM85.0703 317.266L209.248 575.34C223.875 584.103 238.998 592.629 254.522 600.879C263.819 605.82 273.26 610.66 282.822 615.395L263.454 583.478L263.431 583.438L263.414 583.394L154.114 292.479C153.997 292.245 153.882 292.011 153.767 291.778L85.0703 317.266ZM122.46 515.681C148.014 536.082 176.726 555.774 207.688 574.403L165.316 486.343L122.46 515.681ZM1154.47 571.743C1155.22 571.182 1155.97 570.623 1156.72 570.061C1206.03 533.091 1247.52 493.687 1278.88 456.514C1248.28 440.049 1221.12 420.755 1197.17 399.509L1154.47 571.743ZM82.9473 481.084C94.8068 492.57 107.754 503.904 121.642 515.029L164.878 485.432L146.422 447.076L82.9473 481.084ZM47.9941 442.753C55.914 452.768 64.744 462.726 74.3994 472.587C76.9416 475.184 79.5424 477.771 82.1963 480.353L145.988 446.174L124.101 400.688L47.9941 442.753ZM1050.3 60.8744C1046.23 120.131 1060.95 198.596 1100.29 273.541C1118.04 306.594 1138.17 334.85 1156.84 357.056C1189.31 394.901 1229.89 429.049 1279.54 455.733C1284.65 449.643 1289.5 443.614 1294.06 437.666C1310.35 416.428 1323.01 396.243 1331.6 378.045C1340.18 359.866 1344.66 343.733 1344.68 330.546C1329.66 220.475 1238.51 138.121 1109.77 83.3636C1090.72 75.2606 1070.86 67.7643 1050.3 60.8744ZM5.17285 359.5C11.2645 386.945 25.9227 414.669 47.3652 441.959L123.667 399.786L84.1572 317.673L5.17285 359.5ZM50.0781 196.796C19.3225 235.85 2 280.72 2 331.367C2.00005 340.358 3.00619 349.406 4.95215 358.486L83.792 316.735L50.0781 196.796ZM141.465 118.04C104.818 140.689 74.065 166.623 50.8438 195.826L84.7168 316.33L153.321 290.876C122.738 228.389 136.552 179.417 147.484 162.55L148.072 161.644L164.749 217.126L164.833 217.108L141.465 118.04ZM280.728 55.5424C253.389 64.4102 227.391 74.3756 203.051 85.4369C181.432 95.2616 161.129 105.946 142.361 117.488L165.81 216.892L273.453 193.212L247.132 121.923L296.5 108.304L280.728 55.5424ZM1049.95 109.685C1048.43 92.2933 1048.26 75.786 1049.32 60.5472C1006.28 46.1796 960.231 34.4622 912.332 25.389L1049.95 109.685ZM650.758 2.00524C519.896 2.35421 390.266 20.1511 281.68 55.2328L297.464 108.037L661.291 7.67223L661.516 7.61071L661.707 7.74254L699.916 33.9427L793.021 8.55114C746.081 4.05823 698.342 1.87835 650.758 2.00524Z" fill="white" fill-opacity="0.8"/>
</svg>
