<svg width="1351" height="734" viewBox="0 0 1351 734" fill="none" xmlns="http://www.w3.org/2000/svg">
<path fill-rule="evenodd" clip-rule="evenodd" d="M793.028 0C793.304 0.000131892 793.528 0.224916 793.528 0.500977V83.9199C841.106 95.1908 888.332 111.709 934.393 134.236C934.735 134.404 934.953 134.753 934.953 135.135V184.036H1007.29C1007.57 184.036 1007.79 184.26 1007.79 184.536V221.836H1076.17V198.033C1076.17 197.757 1076.4 197.533 1076.67 197.533H1209.99C1210.09 197.533 1210.19 197.562 1210.27 197.617C1214.81 200.65 1219.95 204.371 1225.48 208.649C1327.77 283.47 1356.11 368.848 1349.2 445.941C1342.04 525.827 1297.04 596.647 1257.74 637.451C1257.39 637.813 1256.82 637.86 1256.42 637.561L1155.11 562.45C887.105 747.581 598.527 760.272 376.903 704.921C266.015 677.226 171.856 632.491 105.396 583.767C72.1678 559.405 45.8385 534.028 27.8076 509.261C9.78436 484.504 0.000162648 460.283 0 438.255C0 383.855 32.3784 324.875 87.252 270.264C142.149 215.629 219.674 165.247 310.253 128.035C368.648 104.045 432.489 85.5229 499.212 74.8662V0.500977C499.212 0.224834 499.436 0 499.712 0H793.028ZM349.18 115.278C336.226 119.882 323.495 124.758 311.013 129.886C220.634 167.015 143.343 217.263 88.6631 271.682C33.9599 326.123 2 384.621 2 438.255C2.00016 459.704 11.5397 483.517 29.4248 508.084C47.3026 532.641 73.4668 557.878 106.579 582.154C172.802 630.705 266.718 675.34 377.389 702.98C598.721 758.259 886.946 745.534 1154.56 560.398C1154.91 560.155 1155.38 560.163 1155.72 560.418L1256.9 635.428C1295.86 594.743 1340.14 524.649 1347.21 445.763C1350.63 407.612 1345.35 367.366 1326.51 327.355L1210.49 339.409V498.863C1210.49 499.139 1210.27 499.363 1209.99 499.363H1079.92C1079.65 499.363 1079.43 499.144 1079.42 498.871L1076.18 304.095H784.829V536.033H934.239C934.515 536.033 934.739 536.257 934.739 536.533V613.41C934.739 613.588 934.645 613.752 934.492 613.842C915.178 625.135 880.916 641.717 840.864 654.784C800.816 667.85 754.941 677.416 712.416 674.643C712.151 674.625 711.945 674.403 711.948 674.138L714.413 455.314H615.311V628.197C615.31 628.473 615.087 628.697 614.811 628.697H499.712C499.436 628.697 499.212 628.473 499.212 628.197V502.981H349.68C349.404 502.981 349.18 502.757 349.18 502.481V115.278ZM500.212 627.697H614.311V455.314H500.212V627.697ZM350.18 501.981H499.212V383.883H350.18V501.981ZM500.212 442.646V454.314H714.425L714.556 442.646H500.212ZM500.212 441.646H714.567L716.049 310.127H529.195C528.919 310.127 528.696 309.903 528.695 309.627V264.784H500.212V441.646ZM350.18 382.883H499.212V264.784H350.18V382.883ZM529.695 264.784V309.127H716.06L716.56 264.784H529.695ZM699.043 263.784H716.57L716.963 228.963H699.043V263.784ZM350.18 263.784H373.313V164.486H350.18V263.784ZM402.144 163.986C402.143 164.262 401.919 164.486 401.644 164.486H374.313V263.784H445.67V162.354H423.452V163.986L423.442 164.087C423.396 164.314 423.194 164.486 422.952 164.486C422.676 164.486 422.453 164.262 422.452 163.986V162.354H402.144V163.986ZM499.212 76.8916C481.478 79.731 463.948 83.1278 446.67 87.0361V263.784H499.212V76.8916ZM500.212 263.784H528.695V226.175H500.212V263.784ZM604.577 66.9795C569.267 67.9477 534.364 71.3081 500.212 76.7334V225.175H529.195C529.471 225.175 529.695 225.399 529.695 225.675V263.784H604.577V66.9795ZM694.268 69.7939C664.557 67.071 634.928 66.1851 605.577 66.9521V263.784H698.043V228.963H695.268V230.754C695.267 231.03 695.043 231.254 694.768 231.254C694.492 231.254 694.268 231.03 694.268 230.754V228.885C694.127 228.796 694.032 228.641 694.031 228.463V132.113C694.031 131.934 694.126 131.778 694.268 131.689V69.7939ZM793.528 131.613H860.173C860.449 131.613 860.673 131.837 860.673 132.113V221.836H931.645V184.536C931.645 184.26 931.868 184.036 932.145 184.036H932.953V135.76C887.36 113.514 840.621 97.1674 793.528 85.9775V131.613ZM373.313 107.107C365.528 109.615 357.815 112.22 350.18 114.923V163.486H373.313V107.107ZM401.144 98.665C392.112 101.238 383.166 103.947 374.313 106.786V163.486H401.144V98.665ZM402.144 161.354H422.452V156.628H402.144V161.354ZM423.452 161.354H445.67V156.628H423.452V161.354ZM402.144 155.628H422.452V151.456H402.144V155.628ZM423.452 155.628H445.67V151.456H423.452V155.628ZM402.144 150.456H422.452V146.396H402.144V150.456ZM423.452 150.456H445.67V146.396H423.452V150.456ZM402.144 145.396H422.452V141.007H402.144V145.396ZM423.452 145.396H445.67V141.007H423.452V145.396ZM402.144 140.007H422.452V136.627H402.144V140.007ZM423.452 140.007H445.67V136.627H423.452V140.007ZM402.144 135.627H422.452V130.9H402.144V135.627ZM423.452 135.627H445.67V130.9H423.452V135.627ZM695.268 131.613H792.528V85.7412C787.564 84.5695 782.597 83.4546 777.626 82.3965H695.268V131.613ZM402.144 129.9H422.452V125.735H402.144V129.9ZM423.452 129.9H445.67V125.735H423.452V129.9ZM402.144 124.735H422.452V119.554H402.144V124.735ZM423.452 124.735H445.67V119.554H423.452V124.735ZM402.144 118.554H422.452V114.393H402.144V118.554ZM423.452 118.554H445.67V114.393H423.452V118.554ZM445.67 87.2607C430.967 90.6051 416.449 94.3225 402.144 98.3799V113.393H422.452V111.497C422.452 111.221 422.676 110.997 422.952 110.997C423.228 110.997 423.452 111.221 423.452 111.497V113.393H445.67V87.2607ZM786.951 82.3965C788.811 82.8179 790.67 83.2472 792.528 83.6846V82.3965H786.951ZM695.268 67.876C724.319 70.5711 753.447 75.0213 782.468 81.3965H792.528V1.00098H695.268V67.876ZM695.268 81.3965H772.847C747.015 76.0868 721.111 72.2911 695.268 69.8867V81.3965ZM500.212 74.708C534.364 69.296 569.266 65.9436 604.577 64.9775V1.00098H500.212V74.708ZM605.577 64.9512C634.927 64.1858 664.556 65.0687 694.268 67.7842V1.00098H605.577V64.9512Z" fill="white" fill-opacity="0.8"/>
</svg>
