<svg width="1356" height="807" viewBox="0 0 1356 807" fill="none" xmlns="http://www.w3.org/2000/svg">
<path d="M997.185 511.424C997.733 511.491 998.122 511.99 998.055 512.538L996.126 528.204C996.058 528.752 995.559 529.143 995.011 529.075C994.463 529.008 994.073 528.508 994.141 527.96L996.069 512.294C996.137 511.746 996.636 511.356 997.185 511.424Z" fill="white" fill-opacity="0.8"/>
<path d="M1033.9 467.097C1034.44 467.164 1034.83 467.664 1034.77 468.212C1034.7 468.76 1034.2 469.149 1033.65 469.081L1005.8 465.638L1000.43 502.872C1000.35 503.419 999.842 503.799 999.295 503.72C998.748 503.641 998.369 503.133 998.448 502.587L1004.1 463.412L1033.9 467.097Z" fill="white" fill-opacity="0.8"/>
<path d="M991.868 444.568C992.414 444.65 992.791 445.158 992.71 445.704L984.205 502.877C984.124 503.423 983.615 503.8 983.068 503.719C982.522 503.637 982.145 503.128 982.227 502.582L990.731 445.41C990.813 444.864 991.322 444.487 991.868 444.568Z" fill="white" fill-opacity="0.8"/>
<path d="M1005.1 446.931L1022.81 449.529C1023.36 449.609 1023.74 450.117 1023.66 450.663C1023.58 451.209 1023.07 451.588 1022.52 451.508L1004.81 448.909C1004.26 448.829 1003.88 448.321 1003.96 447.774C1004.04 447.228 1004.55 446.851 1005.1 446.931Z" fill="white" fill-opacity="0.8"/>
<path d="M410.175 284.595C426.564 284.595 439.85 297.881 439.85 314.27C439.85 330.658 426.564 343.944 410.175 343.944C393.786 343.944 380.5 330.658 380.5 314.27C380.5 297.881 393.786 284.595 410.175 284.595Z" fill="white" fill-opacity="0.8"/>
<path fill-rule="evenodd" clip-rule="evenodd" d="M371.053 262.132L409.36 198.287L420.321 201.45L420.639 201.541L420.839 201.804L428.463 211.773L426.923 215.623L590.165 292.112L612.127 293.301L618.953 298.886L543.539 373.943L620.999 364.901L621.306 365.107L637.252 375.854L813.42 374.272L847.713 364.972L847.841 364.938H988.699L997.32 354.152L971.966 347.392L967.988 354.093C967.706 354.567 967.092 354.723 966.617 354.441C966.143 354.159 965.987 353.546 966.269 353.071L970.618 345.743L985.763 315.915C986.013 315.423 986.614 315.227 987.106 315.477C987.599 315.726 987.795 316.328 987.546 316.82L984.677 322.472L1104.8 331.334L1254.69 301.133L1255.57 300.956L1278.61 374.076H1355.83V436.046H1324.77C1323.46 451.229 1320.37 468.653 1315.06 486.929L1341.71 492.537C1342.26 492.651 1342.6 493.181 1342.49 493.722C1342.37 494.262 1341.84 494.608 1341.3 494.494L1314.5 488.854C1312.39 495.946 1309.94 503.16 1307.14 510.413C1307.24 510.416 1307.34 510.433 1307.44 510.467L1336.12 520.257C1336.64 520.435 1336.92 521.004 1336.74 521.526C1336.57 522.049 1336 522.328 1335.47 522.149L1306.79 512.358C1306.67 512.315 1306.55 512.248 1306.46 512.163C1295.48 540.023 1279.21 568.376 1256.24 592.676C1228.01 622.546 1189.69 646.252 1138.77 655.418L1143.87 683.016C1143.97 683.559 1143.62 684.08 1143.07 684.181C1142.53 684.281 1142.01 683.922 1141.91 683.379L1136.8 655.764C1129.55 657.008 1122.05 657.957 1114.29 658.591L1116.11 688.384C1116.14 688.935 1115.72 689.408 1115.17 689.442C1114.62 689.476 1114.15 689.057 1114.11 688.506L1112.29 658.747C1087.38 660.595 1059.82 659.198 1029.38 653.783L1023.52 687.156L990.722 679.323L993.882 665.326H954.751V794.885L867.526 804.575L854.687 806.028L854.539 806.019L854.454 806.028L854.363 806.022L852.796 805.909L803.148 802.789V802.33L802.397 802.276V790.754C756.661 793.288 717.183 791.574 690.991 789.237C689.941 789.165 688.91 789.093 687.899 789.015C681.039 788.486 675.053 787.811 670.401 786.955C668.004 786.623 665.911 786.303 664.142 786.002V785.417C664.002 785.369 663.866 785.321 663.733 785.272L663.078 785.031V768.037H638.814L601.706 737.408H516.889L303.839 546.202L304.107 545.901L246.043 493.683L166.626 461.85L166.306 461.722L0 174.939L37.6475 155.296L125.003 0L371.053 262.132ZM1159.89 376.086L1062.77 456.888C1062.7 456.967 1062.62 457.034 1062.53 457.088L1042.81 473.49L1036.13 510.729L1023 508.383L1000.68 644.718C1000.62 645.075 1000.38 645.355 1000.06 645.481L996.112 664.529L996.108 664.547L993.106 677.836L1021.92 684.717L1027.75 651.461L1028.74 651.64C1137.82 671.309 1209.47 639.244 1254.79 591.302C1283.97 560.43 1302.27 522.93 1312.58 488.308C1312.33 488.077 1312.2 487.723 1312.27 487.363C1312.36 486.949 1312.69 486.649 1313.09 486.583C1318.49 468.004 1321.6 450.304 1322.85 434.964L1322.93 434.046H1353.83V376.076H1159.9C1159.89 376.079 1159.89 376.083 1159.89 376.086ZM954.751 663.326H994.319L998.459 643.369C998.523 643.061 998.723 642.816 998.982 642.683L1009.42 578.978H954.751V663.326ZM989.661 366.938H947.389L949.083 533.15H977.612L980.334 512.286C980.406 511.739 980.908 511.352 981.455 511.424C982.003 511.495 982.389 511.997 982.317 512.545L979.369 535.15H949.104L949.346 558.853H954.751V576.978H977.351C975.805 564.15 979.848 555.891 985.756 550.844C987.373 549.462 989.121 548.332 990.915 547.414V535.507C990.915 534.955 991.363 534.507 991.915 534.507C992.467 534.507 992.915 534.955 992.915 535.507V546.484C997.191 544.688 1001.56 544.011 1004.95 544.011C1005.5 544.011 1005.95 544.459 1005.95 545.011C1005.95 545.563 1005.5 546.01 1004.95 546.011C999.92 546.011 992.614 547.616 987.055 552.365C981.683 556.955 977.812 564.592 979.368 576.978H1009.74L1021.36 506.059L1034.52 508.408L1040.98 472.419L1059.65 456.88L1033.62 452.925C1033.08 452.842 1032.7 452.331 1032.78 451.785C1032.87 451.239 1033.38 450.864 1033.92 450.947L1061.71 455.17L1156.77 376.076H1127.55L999.473 354.665L989.661 366.938ZM948.246 561.501H952.751V560.853H948.24L948.246 561.501ZM135.675 339.775L108.861 316.581L94.1641 333.332L167.688 460.12L246.952 491.893L247.117 491.959L247.249 492.078L305.441 544.411L398.512 440.428L402.29 443.812L467.69 376.149L491.042 397.522L486.322 403.215L501.39 417.247L518.69 415.591L536.747 394.99L621.183 385.072L638.985 389.649V412.539H659.84C658.992 404.662 661.518 387.632 678.405 382.528V377.484L636.649 377.859L620.495 366.973L538.036 376.6L615.973 299.03L611.366 295.262L590.624 294.141L588.952 299.174L596.153 302.194C596.662 302.408 596.902 302.994 596.688 303.503C596.475 304.012 595.889 304.251 595.38 304.038L586.47 300.302L588.687 293.629L426.178 217.483L424.552 221.55L415 218.671C414.471 218.512 414.172 217.954 414.331 217.425C414.49 216.896 415.048 216.597 415.577 216.756L423.375 219.105L426.183 212.085L419.449 203.279L410.283 200.635L371.407 265.431L284.188 172.512L135.675 339.775ZM1105.06 333.322L1104.93 333.349L1104.79 333.339L983.695 324.404L972.943 345.582L999.275 352.604L1127.72 374.076H1201.74L1200.82 314.027L1105.06 333.322ZM1203.74 374.076H1276.51L1267.33 344.942H1203.29L1203.74 374.076ZM945.39 367.147L945.388 366.938H929.985L945.39 367.147ZM1202.82 313.625L1203.26 342.942H1266.7L1254.2 303.271L1202.82 313.625ZM39.0996 156.795L38.8369 156.932L2.77832 175.744L93.6348 332.419L108.765 315.176L135.582 338.373L283.5 171.779L125.409 3.35547L39.0996 156.795Z" fill="white" fill-opacity="0.8"/>
</svg>
