<svg width="1248" height="636" viewBox="0 0 1248 636" fill="none" xmlns="http://www.w3.org/2000/svg">
<path fill-rule="evenodd" clip-rule="evenodd" d="M240.464 69.8193C240.836 70.2274 240.807 70.8603 240.399 71.2324C239.991 71.6045 239.358 71.575 238.986 71.167L176.792 2.95508L114.22 70.4941L126.389 83.6777L2.42871 221.861L27.7852 268.671L38.9844 255.438L54.7266 286.923L135.598 323.315L135.742 323.381L346.408 514.968L363.674 494.165L350.788 480.447L351.107 480.104L376.973 452.443L378.22 438.902C378.245 438.627 378.489 438.425 378.764 438.45C379.039 438.476 379.241 438.719 379.216 438.994L377.953 452.706L377.937 452.877L377.82 453.002L352.158 480.444L364.316 493.39L367.688 489.329C367.865 489.117 368.18 489.087 368.393 489.264C368.605 489.44 368.634 489.755 368.458 489.968L347.148 515.642L404.53 567.826H493.838L499.024 572.42L500.524 391.016H557.13V335.995H516.604V292.564H356.307L337.814 312.937L396.91 365.799L397.076 365.948V377.781H412.215V392H449.827V434.576H421.053V393H411.215V378.781H397.076V433.576H411.715C411.991 433.576 412.215 433.8 412.215 434.076C412.215 434.352 411.991 434.576 411.715 434.576H397.076V458.284L396.934 458.431L379.074 476.596C378.881 476.793 378.564 476.795 378.367 476.602C378.17 476.408 378.168 476.091 378.361 475.895L396.076 457.875V366.395L336.397 313.01L355.715 291.729L355.863 291.564H370.287V266.033L276.309 180.931L248.483 211.908L248.112 211.577L204.659 172.895L224.827 152.727L233.057 161.504C233.245 161.705 233.235 162.022 233.033 162.211C232.832 162.399 232.516 162.389 232.327 162.188L224.804 154.163L206.115 172.852L226.868 191.327L255.319 158.323L242.226 147.56C242.013 147.384 241.982 147.07 242.157 146.856C242.333 146.643 242.648 146.612 242.861 146.787L256.351 157.876L256.359 157.883L270.668 170.221L264.435 177.811C264.259 178.024 263.944 178.055 263.73 177.88C263.517 177.705 263.486 177.389 263.661 177.176L269.275 170.34L256.084 158.967L227.615 191.992L248.404 210.498L264.975 192.052L257.523 184.431C257.331 184.233 257.334 183.917 257.531 183.724C257.729 183.531 258.045 183.534 258.238 183.731L265.645 191.307L276.236 179.517L330.865 228.985L351.991 204.972L261.356 121.921C261.153 121.734 261.14 121.418 261.326 121.215C261.513 121.011 261.829 120.997 262.032 121.184L352.651 204.221L412.098 136.646C412.28 136.439 412.596 136.419 412.804 136.602C413.011 136.784 413.031 137.1 412.849 137.308L331.606 229.657L339.921 237.186L420.93 145.859C421.113 145.653 421.429 145.634 421.636 145.817C421.842 146.001 421.861 146.317 421.678 146.523L340.662 237.857L370.979 265.312H557.479V267.936H679.69V210.811L824.582 171.342L1018.3 207.956L1021.05 222.941L975.177 261.784L949.791 257.503L923.488 280.136L885.663 497.796H888.254V511.167L910.263 515.505L915.859 484.029L916.866 484.238C960.415 493.235 1027.54 493.323 1087.35 464.386C1147.09 435.481 1199.64 377.566 1214.06 270.303L1214.17 269.436H1245.96V207.844H1167.36L1145.8 135.975L1092.67 147.079C1092.68 147.11 1092.68 147.141 1092.68 147.174V178.695L1157.6 179.724C1157.88 179.728 1158.1 179.956 1158.09 180.231C1158.09 180.507 1157.86 180.728 1157.59 180.724L1092.68 179.696V211.204C1092.68 211.48 1092.46 211.704 1092.18 211.704C1091.91 211.704 1091.68 211.48 1091.68 211.204V147.286L999.254 166.609L999.107 166.64L819.67 150.196L787.112 155.373V158.625L683.283 192.514C683.021 192.599 682.738 192.456 682.652 192.193C682.567 191.931 682.71 191.649 682.973 191.563L786.112 157.899V155.532L616.348 182.527V172.209C616.348 171.657 616.795 171.209 617.348 171.209C617.9 171.209 618.348 171.657 618.348 172.209V180.184L819.602 148.183L819.727 148.194L998.989 164.62L1147.18 133.642L1168.84 205.844H1247.96V271.436H1215.92C1201.25 378.785 1148.43 437.056 1088.22 466.187C1028.38 495.14 961.353 495.255 917.469 486.398L911.876 517.861L886.254 512.812V499.796H844.611V628.623L746.251 635.795L746.214 635.798H691.387V620.573H553.355V601.29H528.603L493.079 569.826H403.758L134.63 325.072L53.2568 288.455L38.5518 259.044L27.4219 272.199L0 221.575L123.685 83.6973L111.496 70.4922L176.805 0L240.464 69.8193ZM422.053 433.576H448.827V393H422.053V433.576ZM517.604 334.995H556.479V288.871H539.131V325.663C539.131 325.939 538.907 326.163 538.631 326.163C538.355 326.163 538.131 325.939 538.131 325.663V288.871H517.604V334.995ZM371.287 291.564H516.604V266.312H371.287V291.564ZM517.604 287.871H556.479V266.312H517.604V287.871Z" fill="white" fill-opacity="0.8"/>
<path d="M476.507 221.071C486.398 221.071 494.417 229.09 494.417 238.981C494.417 248.873 486.398 256.892 476.507 256.892C466.615 256.892 458.597 248.873 458.597 238.981C458.597 229.09 466.615 221.071 476.507 221.071Z" fill="white" fill-opacity="0.8"/>
<path d="M438.21 161.511C438.395 161.306 438.711 161.29 438.916 161.475C439.121 161.66 439.137 161.976 438.952 162.181L380.013 227.46L396.615 241.176L444.842 210.78L444.964 210.704H512.182V204.934C512.182 204.658 512.406 204.434 512.682 204.434C512.958 204.434 513.182 204.658 513.182 204.934V211.704H445.253L396.843 242.215L396.537 242.408L379.342 228.203L366.772 242.127C366.587 242.332 366.271 242.348 366.066 242.163C365.861 241.978 365.845 241.662 366.03 241.457L438.21 161.511Z" fill="white" fill-opacity="0.8"/>
<path d="M350.71 61.5205C350.944 61.0202 351.539 60.8045 352.039 61.0381L493.044 126.902L509.955 130.282L477.354 165.423L512.461 196.091L523.675 193.848V172.209C523.675 171.657 524.123 171.209 524.675 171.209C525.227 171.209 525.675 171.657 525.675 172.209V195.488L511.887 198.246L474.486 165.574L506.058 131.542L492.533 128.84L492.415 128.816L492.306 128.766L351.193 62.8496C350.693 62.6159 350.476 62.0209 350.71 61.5205Z" fill="white" fill-opacity="0.8"/>
<path d="M340.159 85.7139C358.09 85.7141 372.626 100.251 372.626 118.182C372.626 136.112 358.09 150.648 340.159 150.648C322.228 150.648 307.692 136.113 307.691 118.182C307.691 100.25 322.228 85.7139 340.159 85.7139Z" fill="white" fill-opacity="0.8"/>
<path d="M308.767 39.9434L328.444 50.3145C328.933 50.572 329.12 51.1765 328.862 51.665C328.605 52.1536 328 52.3414 327.512 52.084L307.634 41.6074L307.433 41.502L307.298 41.3193L301.179 33.082L262.741 93.3721L262.737 93.376L270.646 101.981L233.065 144.325C232.882 144.532 232.566 144.55 232.359 144.367C232.153 144.184 232.134 143.868 232.317 143.661L269.298 101.992L262.182 94.249L262.095 94.3867L253.157 86.0449C252.753 85.6681 252.732 85.0346 253.108 84.6309C253.485 84.2273 254.118 84.2056 254.521 84.582L261.7 91.2822L301.054 29.5596L308.767 39.9434Z" fill="white" fill-opacity="0.8"/>
</svg>
