<svg width="1300" height="785" viewBox="0 0 1300 785" fill="none" xmlns="http://www.w3.org/2000/svg">
<path fill-rule="evenodd" clip-rule="evenodd" d="M749.565 556.729H757.979V702.571H752.301L743.303 712.3L743.154 712.461H569.673V561.384H602.084V571.272H630.751V565.765L630.878 565.622L645.42 549.335L645.569 549.168H743.168L749.565 556.729ZM631.751 566.145V572.272H601.084V562.384H570.673V711.461H742.717L751.715 701.732L751.863 701.571H756.979V557.729H749.103L742.703 550.168H646.017L631.751 566.145Z" fill="white" fill-opacity="0.8"/>
<path d="M405.303 542.188C405.487 541.982 405.803 541.965 406.009 542.149C406.214 542.334 406.231 542.65 406.047 542.855L372.946 579.729C372.762 579.935 372.446 579.952 372.24 579.768C372.035 579.583 372.018 579.267 372.202 579.062L405.303 542.188Z" fill="white" fill-opacity="0.8"/>


<path fill-rule="evenodd" clip-rule="evenodd" d="M175.599 73.3789L169.617 79.4287L179.217 97.877L302.16 210.176L304.726 207.099L354.472 260.938L396.557 192.046L405.154 206.576L405.01 207.01L404.655 208.066L546.798 276.245L573.3 277.424L483.001 376.227L489.082 381.7L508.022 360.718H664.551V350.091H942.197L952.301 337.542L952.885 337.646L1077.44 360.085H1298.51L1298.56 361.032C1299.55 379.693 1299.73 407.519 1298.71 432.057C1298.21 444.325 1297.4 455.791 1296.25 464.887C1295.67 469.434 1295 473.407 1294.24 476.601C1293.48 479.76 1292.6 482.272 1291.54 483.807L1291.15 484.383L1281.6 481.921C1281.07 481.783 1280.75 481.238 1280.88 480.703C1281.02 480.168 1281.57 479.846 1282.1 479.984L1290.25 482.087C1290.96 480.808 1291.65 478.812 1292.29 476.135C1293.03 473.039 1293.69 469.144 1294.26 464.635C1295.41 455.618 1296.21 444.216 1296.71 431.975C1297.71 407.905 1297.55 380.663 1296.61 362.085H1195.69V388.641H1224.37V377.704C1224.37 377.428 1224.6 377.204 1224.87 377.204C1225.15 377.204 1225.37 377.428 1225.37 377.704V389.641H1171.5V388.641H1194.69V362.085H1110.19L1016.23 444.64L1016.06 444.791L984.856 440.496L963.673 562.467L963.672 562.471L963.361 564.169L976.211 566.188L976.711 566.268L972.63 590.345L959.007 588.009L956.671 600.805L955.005 611.142C954.961 611.414 954.704 611.6 954.432 611.556C954.159 611.512 953.974 611.255 954.018 610.982L955.591 601.226H948.343V561.881H962.76L984.694 435.593L984.725 435.414L984.863 435.297L1072.36 361.201L953.113 339.72L943.154 352.091H940.981L905.508 405.163V517.388C905.51 517.388 905.512 517.388 905.515 517.388C905.791 517.388 906.015 517.612 906.015 517.888V542.97H909.776V635.778H948.464L951.688 620.627C951.745 620.357 952.011 620.185 952.281 620.242C952.551 620.3 952.723 620.566 952.666 620.836L949.487 635.778H950.956L947.256 656.713C971.025 663.019 1026.31 674.409 1065.95 671.779V660.969C1065.95 660.416 1066.4 659.969 1066.95 659.969C1067.5 659.969 1067.95 660.416 1067.95 660.969V673.646L1067.02 673.713C1026.48 676.647 969.334 664.725 945.853 658.411L944.968 658.173L948.572 637.778H910.832V774.158L810 784.692L809.901 784.703L809.802 784.693L632.469 767.878L583.564 726.658H498.244L321.129 568.143L333.101 555.047L327.157 549.994L281.717 603.194L279.979 602.327L282.229 592.211L282.262 592.061L282.338 591.928L294.669 570.529L219.683 504.492L201.776 518.42L201.609 518.549L201.405 518.601L191.696 521.027L228.957 460.332L225.006 457.04L213.926 474.905L140.189 442.107L140.026 441.814L0 189.342L103.424 0L175.599 73.3789ZM785.51 726.301H760.756V778.033L809.891 782.693L810.745 782.604V710.324H785.51V726.301ZM811.745 782.499L874.178 775.976V710.324H811.745V782.499ZM736.002 775.687L759.756 777.938V726.301H736.002V775.687ZM875.178 775.871L908.832 772.355V710.324H875.178V775.871ZM712.12 773.421L735.002 775.591V766.005H712.12V773.421ZM665.402 768.991L711.12 773.326V743.445H665.402V768.991ZM630.718 763.341C630.718 763.47 630.667 763.587 630.586 763.676L633.278 765.945L664.402 768.896V743.445H630.718V763.341ZM712.12 765.005H735.002V743.445H731.676V760.958H715.934V743.445H712.12V765.005ZM629.718 762.943V726.301H586.244L629.718 762.943ZM716.934 759.958H730.676V743.445H716.934V759.958ZM554.236 540.701C554.318 540.791 554.368 540.911 554.367 541.042L553.034 681.666V712.488C553.034 712.764 552.81 712.988 552.534 712.988C552.258 712.988 552.034 712.764 552.034 712.488V682.161H496.033L476.517 704.529L499.008 724.658H584.295L585.058 725.301H630.718V742.445H735.002V725.301H784.51V709.324H908.832V669.87H889.465V657.079H785.132V656.079H842.064V557.729H784.632V520.41H576.829V520.404H554.236V540.701ZM496.306 586.102H460.324L408.067 643.268L475.771 703.861L495.429 681.333L495.578 681.161H518.877V667.327C518.877 667.051 519.101 666.827 519.377 666.827C519.653 666.827 519.877 667.051 519.877 667.327V681.161H552.039L552.302 653.344H519.877V660.856C519.877 661.132 519.653 661.356 519.377 661.356C519.101 661.356 518.877 661.132 518.877 660.856V652.344H552.312L553.348 543.061H496.306V586.102ZM843.064 656.079H889.465V616.199H874.416C874.14 616.199 873.916 615.975 873.916 615.699C873.916 615.423 874.14 615.199 874.416 615.199H890.465V668.87H908.832V641.029H908.776V601.653H855.106V520.41H843.064V656.079ZM335.889 554.792L335.977 554.866L323.969 568L355.912 596.589L367.123 584.423C367.31 584.22 367.627 584.208 367.83 584.395C368.033 584.582 368.045 584.898 367.858 585.101L356.658 597.257L407.322 642.601C407.323 642.6 407.324 642.599 407.325 642.599L459.734 585.265L459.884 585.102H475.247V552.646C475.247 552.369 475.471 552.146 475.747 552.146C476.023 552.146 476.247 552.369 476.247 552.646V585.102H495.306V543.061H476.247V546.564C476.247 546.841 476.023 547.064 475.747 547.064C475.471 547.064 475.247 546.841 475.247 546.564V543.061H475.24V527.104H455.013C454.737 527.104 454.513 526.881 454.513 526.604C454.513 526.328 454.737 526.105 455.013 526.104H475.24V480.601H445.194V488.902H454.741V518.009C454.741 518.285 454.517 518.509 454.241 518.509C453.965 518.509 453.741 518.285 453.741 518.009V507.479H442.668V509.155C442.668 509.431 442.444 509.655 442.168 509.655C441.892 509.655 441.668 509.431 441.668 509.155V506.479H453.741V489.902H444.194V480.601H439.719V495.635L439.587 495.778L433.121 502.793V526.104H441.668V516.918C441.668 516.642 441.892 516.418 442.168 516.418C442.444 516.418 442.668 516.642 442.668 516.918V527.104H432.121V516.323L418.098 530.743C417.905 530.941 417.589 530.945 417.391 530.753C417.193 530.56 417.188 530.244 417.381 530.046L432.121 514.889V502.403L432.253 502.26L438.719 495.244V480.601H401.436L335.889 554.792ZM856.106 600.653H908.776V562.528H856.106V600.653ZM949.343 600.226H955.762L958.064 587.609C958.03 587.525 958.017 587.431 958.033 587.335C958.05 587.234 958.097 587.146 958.162 587.077L962.199 564.967C962.02 564.868 961.912 564.667 961.945 564.453C961.98 564.231 962.157 564.067 962.369 564.037L962.581 562.881H949.343V600.226ZM275.802 269.25L264.519 259.081L254.225 270.724L274.896 289.413L246.441 323.131L224.696 304.121L222.014 307.157L168.712 250.744C168.682 250.713 168.659 250.678 168.639 250.642L113.799 315.418L155.297 355.723C155.31 355.736 155.321 355.751 155.332 355.765L195.022 373.556L195.066 373.61L240.382 392.574C240.637 392.681 240.756 392.974 240.649 393.229C240.543 393.483 240.251 393.603 239.996 393.497L236.591 392.071L233.653 398.368L243.789 410.201L250.448 398.669L251.314 399.168L250.981 399.744L243.957 411.934L243.949 411.925L238.076 422.097L242.806 426.827L243.109 427.13L240.271 431.009L225.313 454.692L225.403 454.768L231.567 459.904L195.964 517.898L200.715 516.711L219.762 501.897L229.247 510.251L243.74 494.854L244.071 494.503L298.868 542.509L284.751 559.13L297.22 570.11L284.147 592.792L282.803 598.842L326.933 547.179L335.127 554.144L400.836 479.77L400.984 479.601H476.24V542.061H495.611C495.671 542.035 495.737 542.022 495.806 542.021C495.875 542.021 495.941 542.035 496.001 542.061H553.236V519.404H576.829V419.981H621.077V362.718H508.911L489.897 383.781L489.765 383.927L489.77 383.932L489.432 384.299L489.368 384.367L489.229 384.522L489.227 384.521L456.371 420.183V432.223L474.111 433.461C474.387 433.48 474.594 433.719 474.575 433.994C474.556 434.27 474.317 434.477 474.042 434.458L455.837 433.188L455.371 433.155V419.793L455.504 419.649L488.357 383.987L472.159 369.003L435.791 409.056L417.561 392.097L408.375 400.874L408.042 401.191L399.91 393.989L432.31 358.201L342.817 273.575L351.333 260.488L316.555 222.849L275.802 269.25ZM959.187 587.025L971.811 589.189L975.556 567.098L963.182 565.153L959.187 587.025ZM856.106 561.528H908.776V543.97H905.015V520.41H856.106V561.528ZM229.998 510.912L284 558.469L297.468 542.611L244.138 495.89L229.998 510.912ZM785.632 556.729H808.959V520.41H785.632V556.729ZM809.959 556.729H842.064V542.465H809.959V556.729ZM809.959 541.465H842.064V520.41H809.959V541.465ZM985.647 435.943L985.027 439.51L1015.74 443.737L1108.67 362.085H1077.27L1077.18 362.069L1073.64 361.431L985.647 435.943ZM239.965 429.733L241.795 427.23L237.098 422.533L236.827 422.262L243.26 411.119L232.475 398.528L232.611 398.236L235.668 391.686L196.37 375.24L239.965 429.733ZM354.799 264.239L352.032 261.246L344.109 273.421L433.708 358.147L401.329 393.91L408.017 399.832L417.551 390.723L435.73 407.634L471.758 367.958L472.098 367.585L480.817 375.65L480.845 375.621L568.938 279.23L546.506 278.234L546.303 278.226L546.118 278.138L402.199 209.106L402.479 208.27L402.967 206.808L396.529 195.927L354.799 264.239ZM905.508 403.362L939.777 352.091H905.508V403.362ZM73.8652 318.401L116.985 396.148L154.494 356.337L113.151 316.183L110.607 319.188L87.958 303.567L73.8652 318.401ZM225.358 303.372L246.332 321.708L273.508 289.507L253.562 271.473L225.358 303.372ZM169.241 249.932C169.314 249.957 169.382 249.998 169.438 250.058L187.382 269.048L219.182 233.147C219.365 232.941 219.68 232.922 219.887 233.104C220.093 233.288 220.113 233.603 219.93 233.81L188.07 269.777L221.988 305.675L252.82 270.802L246.423 265.019L224.087 289.795L223.773 290.142L206.571 276.627L203.914 279.848C203.738 280.06 203.423 280.09 203.21 279.914C202.997 279.738 202.967 279.424 203.143 279.211L206.112 275.615L206.12 275.605L223.338 255.791L223.649 255.434L224.023 255.725L227.511 258.446C227.728 258.616 227.767 258.93 227.598 259.147C227.428 259.365 227.113 259.404 226.896 259.234L223.781 256.805L207.219 275.864L223.656 288.777L246.351 263.604L253.483 270.053L263.775 258.411L206.163 206.478L206.088 206.409L169.241 249.932ZM207.188 206.057L275.719 267.829L315.873 222.109L304.803 210.129L302.357 213.063L244.874 160.558L207.188 206.057ZM218.136 191.271L244.134 159.882L181.469 102.643L218.136 191.271Z" fill="white" fill-opacity="0.8"/>
<path d="M1273.3 503.608C1273.48 503.087 1274.05 502.812 1274.57 502.994L1285.06 506.658L1284.72 507.609C1245.54 615.716 1141.23 660.836 1093.95 669.902L1092.99 670.085L1090.24 657.662C1090.12 657.123 1090.46 656.588 1091 656.469C1091.54 656.349 1092.07 656.689 1092.19 657.229L1094.52 667.751C1141.71 658.368 1243.64 613.671 1282.49 507.877L1273.91 504.882C1273.39 504.7 1273.11 504.13 1273.3 503.608Z" fill="white" fill-opacity="0.8"/>
</svg>
