<svg width="1312" height="502" viewBox="0 0 1312 502" fill="none" xmlns="http://www.w3.org/2000/svg">
<path fill-rule="evenodd" clip-rule="evenodd" d="M263.47 8.74609H363.785L448.813 17.2197L616.943 50.5859L617.911 51.3164L618.108 51.3535L618.891 51.498L618.916 52.0762L629.39 59.9893L625.352 109.293H656.383L666.999 63.71L667.1 63.2744L688.948 51.3105L689.061 51.3213L690.397 50.5859L1311.12 112.857L1310.64 115.307L1310.76 115.319L1309.6 120.641L1303.81 150.227H1286.6L1228.97 459.118L1188.63 501.764L847.953 451.053L789.188 442.463V439.788H783.412L783.262 439.585L780.114 435.306L701.097 436.658C704.926 448.248 707.11 457.061 706.464 460.882C614.779 478.241 347.636 495.341 49.1875 468.662C86.4739 402.97 110.712 360.176 147.649 275.765C162.257 271.729 184.059 266.722 210.166 261.389C226.208 258.014 243.494 254.671 261.619 251.5C297.713 244.95 337.448 238.493 375.922 233.223V209.669L291.477 214L152.642 186.576C124.631 147.127 101.165 116.17 74.5449 83.8594C53.9982 59.8847 31.4065 35.0154 1.56543 1.74512L0 0L263.47 8.74609ZM705.873 292.139C702.619 295.861 698.921 299.03 695.001 301.717L698.08 305.829L706.316 299.408L703.403 295.624C703.235 295.405 703.276 295.091 703.495 294.923C703.714 294.754 704.028 294.795 704.196 295.014L754.893 360.896C755.061 361.115 755.02 361.429 754.801 361.598C754.582 361.766 754.268 361.726 754.1 361.507L750.439 356.75L741.142 363.327L744.177 367.379C744.342 367.6 744.297 367.913 744.076 368.078C743.855 368.244 743.542 368.199 743.376 367.979L694.17 302.277C692.261 303.543 690.305 304.698 688.325 305.75L740.761 378.839L750.353 383.074L753.119 380.754L746.017 371.249C745.851 371.028 745.897 370.715 746.118 370.55C746.339 370.385 746.652 370.429 746.817 370.65L754.203 380.535L754.486 380.913L750.519 384.241L750.234 384.115L741.909 380.439L752.893 395.75C753.054 395.974 753.002 396.286 752.777 396.447C752.553 396.608 752.241 396.557 752.08 396.333L732.979 369.707L674.71 368.284C684.315 391.69 694.561 417.075 700.768 435.663L779.388 434.317L773.587 426.432C773.423 426.209 773.471 425.897 773.693 425.733C773.916 425.57 774.228 425.617 774.392 425.84L780.613 434.297L789.188 434.149V376.92L773.701 350.553L768.039 356.405L765.393 359.451L780.334 376.731C780.515 376.94 780.492 377.256 780.283 377.437C780.074 377.617 779.759 377.594 779.578 377.386L771.797 368.386L764.677 374.643L764.349 374.248L756.728 365.113C756.551 364.901 756.579 364.586 756.791 364.409C757.003 364.232 757.318 364.261 757.495 364.473L764.787 373.214L771.143 367.629L705.873 292.139ZM687.43 306.217C674.745 312.739 661.252 315.131 653.456 315.493C657.491 326.655 665.601 346.099 674.295 367.274L732.248 368.689L687.43 306.217ZM738.322 359.562L740.542 362.526L749.829 355.957L747.576 353.029L738.322 359.562ZM734.703 354.729L737.723 358.762L746.966 352.236L744.214 348.659L734.703 354.729ZM623.231 135.171C590.307 144.318 571.349 160.504 558.861 200.288L408.155 208.016L413.938 228.373C479.601 220.666 536.168 217.832 556.423 225.964C553.802 270.52 599.771 313.85 652.871 313.851C652.947 314.066 653.025 314.285 653.104 314.508C660.801 314.198 674.537 311.817 687.354 305.133C689.615 303.954 691.846 302.642 694.009 301.185C698.179 298.375 702.098 295.026 705.495 291.052L705.873 290.61L764.732 358.687L767.014 356.06L717.154 297.074C716.976 296.863 717.002 296.547 717.213 296.369C717.424 296.191 717.74 296.218 717.918 296.429L728.359 308.781L734.98 303.36L717.375 282.85L714.349 279.462C715.238 278.827 716.12 278.077 716.993 277.225C720.556 272.803 723.71 268.055 726.394 263.025C734.856 244.753 739.196 216.047 731.24 189.474C719.356 156.432 689.529 131.952 653.511 127.791C653.38 127.815 653.242 127.814 653.104 127.782C653.043 127.768 652.986 127.748 652.932 127.725C652.914 127.723 652.896 127.721 652.879 127.719L652.881 127.7C652.478 127.497 652.25 127.04 652.356 126.581L656.15 110.293H625.27L623.231 135.171ZM764.917 352.029L767.697 355.319L773.176 349.657L770.963 345.891L764.917 352.029ZM731.762 350.802L734.102 353.927L743.602 347.864L740.968 344.441L731.762 350.802ZM760.811 347.171L764.27 351.263L770.438 344.998L769.833 343.966L767.342 341.063L760.811 347.171ZM728.98 347.089L731.162 350.001L740.357 343.647L737.534 339.979L728.98 347.089ZM756.711 342.323L760.164 346.406L766.689 340.304L763.307 336.362L756.711 342.323ZM725.436 342.355L728.38 346.286L736.924 339.186L733.901 335.258L725.436 342.355ZM753.492 338.516L756.065 341.56L762.655 335.604L759.872 332.361L753.492 338.516ZM721.903 337.639L724.835 341.555L733.291 334.465L730.558 330.913L721.903 337.639ZM748.64 332.773L752.846 337.75L759.22 331.601L755.139 326.846L748.64 332.773ZM718.848 333.56L721.304 336.839L729.948 330.121L727.294 326.671L718.848 333.56ZM715.744 329.415L718.248 332.759L726.685 325.879L724.137 322.568L715.744 329.415ZM744.352 327.701L747.994 332.01L754.487 326.087L750.895 321.902L744.352 327.701ZM712.252 324.752L715.145 328.613L723.527 321.775L721.103 318.624L712.252 324.752ZM740.444 323.079L743.706 326.938L750.243 321.143L746.606 316.906L740.444 323.079ZM709.203 320.681L711.652 323.951L720.492 317.831L717.454 313.884L709.203 320.681ZM737.166 319.2L739.797 322.312L745.954 316.146L743.689 313.507L737.166 319.2ZM705.829 316.176L708.603 319.88L716.844 313.09L714.346 309.843L705.829 316.176ZM733.421 314.77L736.521 318.437L743.038 312.748L739.785 308.959L733.421 314.77ZM702.476 311.699L705.229 315.375L713.735 309.05L710.697 305.102L702.476 311.699ZM729.005 309.545L732.774 314.005L739.134 308.2L735.632 304.12L729.005 309.545ZM698.68 306.63L701.876 310.898L710.088 304.31L706.927 300.201L698.68 306.63ZM376.922 209.618V233.085C389.108 231.421 401.164 229.879 412.933 228.491L407.131 208.068L376.922 209.618Z" fill="white" fill-opacity="0.8"/>
</svg>
