<svg width="1311" height="501" viewBox="0 0 1311 501" fill="none" xmlns="http://www.w3.org/2000/svg">
<path d="M1053.75 402.643C1054.03 402.643 1054.25 402.867 1054.25 403.143C1054.25 403.418 1054.03 403.642 1053.75 403.643H1026.77V437.497C1026.77 437.773 1026.55 437.997 1026.27 437.997C1025.99 437.997 1025.77 437.773 1025.77 437.497V403.643H1020.76C1020.49 403.643 1020.26 403.418 1020.26 403.143C1020.26 402.866 1020.49 402.643 1020.76 402.643H1053.75Z" fill="white" fill-opacity="0.8"/>
<path fill-rule="evenodd" clip-rule="evenodd" d="M1061.12 139.51C1061.39 139.51 1061.62 139.734 1061.62 140.01C1061.62 140.286 1061.39 140.51 1061.12 140.51H1020.17V158.396H1037.81V199.6C1037.88 199.685 1037.92 199.791 1037.92 199.907C1037.92 200.023 1037.88 200.127 1037.81 200.212V234.352H1062.97V255.253C1063.05 255.342 1063.1 255.458 1063.1 255.587C1063.1 255.715 1063.05 255.83 1062.97 255.919V275.427C1063.05 275.515 1063.1 275.632 1063.1 275.761C1063.1 275.889 1063.05 276.004 1062.97 276.093V295.762C1063.05 295.85 1063.1 295.967 1063.1 296.096C1063.1 296.224 1063.05 296.339 1062.97 296.428V316.593C1063.05 316.681 1063.1 316.798 1063.1 316.927C1063.1 317.055 1063.05 317.17 1062.97 317.259V375.794H1028.22V317.335H1020.17V322.896L1019.99 323.045L1009.27 332.098L1009.13 332.215H854.234V139.51H1061.12ZM1029.22 374.794H1061.97V317.427H1037.42C1037.31 317.427 1037.22 317.392 1037.13 317.335H1029.22V374.794ZM855.234 331.215H1008.76L1019.17 322.431V316.991C1019.15 316.942 1019.14 316.89 1019.14 316.835C1019.14 316.78 1019.15 316.727 1019.17 316.677V159.05C1019.15 159.001 1019.14 158.95 1019.14 158.896C1019.14 158.842 1019.15 158.79 1019.17 158.741V140.51H855.234V331.215ZM1037.81 316.427H1061.97V296.596H1037.81V316.427ZM1020.17 316.335H1036.81V278.843H1020.17V316.335ZM1037.81 278.035C1037.88 278.12 1037.92 278.227 1037.92 278.343C1037.92 278.458 1037.88 278.563 1037.81 278.647V295.596H1061.97V276.261H1037.81V278.035ZM1020.17 277.843H1036.81V240.755H1020.17V277.843ZM1037.81 275.261H1061.97V256.087H1037.81V275.261ZM1037.81 239.947C1037.88 240.032 1037.92 240.139 1037.92 240.255C1037.92 240.37 1037.88 240.475 1037.81 240.56V255.087H1061.97V235.352H1037.81V239.947ZM1020.17 239.755H1036.81V200.407H1020.17V239.755ZM1020.17 199.407H1036.81V159.396H1020.17V199.407Z" fill="white" fill-opacity="0.8"/>
<path d="M1096.48 241.785C1096.76 241.785 1096.98 242.009 1096.98 242.285V320.488C1096.98 320.764 1096.76 320.988 1096.48 320.988C1096.2 320.988 1095.98 320.764 1095.98 320.488V242.285C1095.98 242.009 1096.2 241.785 1096.48 241.785Z" fill="white" fill-opacity="0.8"/>
<path d="M1096.48 138.444C1096.76 138.445 1096.98 138.668 1096.98 138.944V169.667C1096.98 169.943 1096.76 170.167 1096.48 170.167C1096.2 170.167 1095.98 169.943 1095.98 169.667V138.944C1095.98 138.668 1096.2 138.444 1096.48 138.444Z" fill="white" fill-opacity="0.8"/>
<path fill-rule="evenodd" clip-rule="evenodd" d="M689.246 51.3203L704.5 52.8896V51.9824C704.5 51.7063 704.724 51.4824 705 51.4824C705.276 51.4824 705.5 51.7063 705.5 51.9824V52.9932L1096.1 93.2012C1096.19 93.0934 1096.33 93.0244 1096.48 93.0244C1096.67 93.0246 1096.83 93.1304 1096.92 93.2852L1310.75 115.298L1303.39 149.104H1286.21L1228.73 457.18L1228.68 457.47L1187.78 500.705L1187.77 500.703V500.705L778.422 442.334L685.216 303.775C684.908 303.317 685.029 302.696 685.487 302.388C685.681 302.257 685.904 302.204 686.12 302.221C715.968 286.877 736.756 256.933 736.756 221.334C736.756 173.01 700.363 133.185 653.491 127.77C653.36 127.794 653.222 127.793 653.084 127.761C653.024 127.747 652.967 127.727 652.912 127.703C652.895 127.701 652.877 127.699 652.859 127.697L652.861 127.679C652.458 127.476 652.23 127.018 652.337 126.56L666.979 63.6885L667.08 63.2529L688.929 51.2891H688.937L689.246 51.3203ZM676.748 60.2412V100.312H683.612C683.888 100.313 684.112 100.537 684.112 100.812C684.112 101.089 683.888 101.312 683.612 101.312H660.269L654.547 125.882C669.615 127.755 683.6 133.113 695.674 141.123C695.762 141.047 695.875 141 696 141H834V267.5H758.5V210.5H738.151C738.55 214.056 738.756 217.671 738.756 221.334C738.756 243.202 731.083 262.965 718.364 278.657C718.366 278.659 718.368 278.66 718.369 278.662L736.5 298.482V294H770C770.276 294 770.5 294.224 770.5 294.5C770.5 294.776 770.276 295 770 295H737.5V299.576L771.732 337H778V294H803C803.276 294 803.5 294.224 803.5 294.5C803.5 294.776 803.276 295 803 295H779V337H833V295.489L808.99 295C808.714 294.994 808.495 294.766 808.5 294.49C808.506 294.214 808.734 293.995 809.01 294L834 294.51V338H772.647L777.728 343.555L736.676 376.692L779.583 440.477L793.196 442.417C793.154 442.344 793.128 442.26 793.128 442.169V371.447L925.524 373.008V402.643H948.4C948.676 402.643 948.9 402.866 948.9 403.143C948.9 403.419 948.676 403.643 948.4 403.643H925.524V460.756C925.524 460.985 925.369 461.176 925.158 461.234L968.972 467.481V403.643H963.723C963.447 403.642 963.223 403.418 963.223 403.143C963.223 402.867 963.447 402.643 963.723 402.643H1005.2C1005.48 402.643 1005.7 402.866 1005.7 403.143C1005.7 403.419 1005.48 403.643 1005.2 403.643H969.972V448.456L1040.25 449.594L1040.45 449.597L1072.26 481.854V402.643H1100.98V411.617C1100.98 411.893 1100.75 412.117 1100.48 412.117C1100.2 412.117 1099.98 411.893 1099.98 411.617V403.643H1073.26V482.353L1099.99 486.164C1099.98 486.128 1099.98 486.09 1099.98 486.051V427.42C1099.98 427.144 1100.2 426.92 1100.48 426.92C1100.75 426.92 1100.98 427.144 1100.98 427.42V486.051C1100.98 486.14 1100.95 486.222 1100.91 486.295L1137.76 491.55V431.512H1131.38C1131.11 431.512 1130.88 431.288 1130.88 431.012C1130.88 430.736 1131.11 430.512 1131.38 430.512H1140.81C1141.09 430.512 1141.31 430.736 1141.31 431.012C1141.31 431.288 1141.09 431.512 1140.81 431.512H1138.76V448.196H1153.48V444.963C1153.48 444.687 1153.7 444.463 1153.98 444.463C1154.25 444.463 1154.48 444.687 1154.48 444.963V448.196H1168.61V431.512H1150.64C1150.36 431.512 1150.14 431.288 1150.14 431.012C1150.14 430.736 1150.36 430.512 1150.64 430.512H1177.56C1177.83 430.512 1178.06 430.736 1178.06 431.012C1178.06 431.288 1177.83 431.512 1177.56 431.512H1169.61V496.091L1187.03 498.576L1226.81 456.522L1231.48 431.512H1185.42C1185.14 431.512 1184.92 431.288 1184.92 431.012C1184.92 430.736 1185.14 430.512 1185.42 430.512H1231.67L1234.27 416.579H1173.32V370.601H1167.54C1167.26 370.601 1167.04 370.377 1167.04 370.101C1167.04 369.824 1167.26 369.601 1167.54 369.601H1174.32V373.53H1242.3L1270.4 222.882H1257.24V198.455H1220.03V193.126C1220.03 192.85 1220.26 192.626 1220.53 192.626C1220.81 192.626 1221.03 192.85 1221.03 193.126V197.455H1258.24V221.882H1270.59L1284.54 147.104H1284.79V114.637L1213.37 107.284V145.192H1221.03V172.107C1221.03 172.384 1220.81 172.607 1220.53 172.607C1220.26 172.607 1220.03 172.384 1220.03 172.107V146.192H1212.37V107.181L1156.68 101.448V338.096H1142.02V370.913H1096.48C1096.2 370.913 1095.98 370.689 1095.98 370.413C1095.98 370.137 1096.2 369.913 1096.48 369.913H1141.02V338.096H1096.98V359.939C1096.98 360.215 1096.76 360.439 1096.48 360.439C1096.2 360.439 1095.98 360.215 1095.98 359.939V331.312C1095.98 331.035 1096.2 330.812 1096.48 330.812C1096.76 330.812 1096.98 331.036 1096.98 331.312V337.096H1155.68V223.932H1096.48C1096.2 223.932 1095.98 223.708 1095.98 223.432C1095.98 223.156 1096.2 222.932 1096.48 222.932H1155.68V182.387H1096.98V207.007C1096.98 207.283 1096.76 207.507 1096.48 207.507C1096.2 207.507 1095.98 207.283 1095.98 207.007V181.387H1155.68V127.923H1096.48C1096.2 127.923 1095.98 127.699 1095.98 127.423C1095.98 127.147 1096.2 126.923 1096.48 126.923H1155.68V101.345L1096.98 95.3027V115.375C1096.98 115.651 1096.76 115.875 1096.48 115.875C1096.2 115.875 1095.98 115.651 1095.98 115.375V95.1992L1050.58 90.5264V111.688H1087.36C1087.63 111.688 1087.86 111.912 1087.86 112.188C1087.86 112.464 1087.63 112.688 1087.36 112.688H1049.58V90.4238L1004.93 85.8271V111.688H1041.92C1042.2 111.688 1042.42 111.912 1042.42 112.188C1042.42 112.464 1042.2 112.688 1041.92 112.688H1003.93V85.7236L985.803 83.8584V111.688H996.169C996.445 111.688 996.669 111.912 996.669 112.188C996.669 112.464 996.445 112.688 996.169 112.688H974.436C974.16 112.688 973.936 112.464 973.936 112.188C973.936 111.912 974.16 111.689 974.436 111.688H984.803V83.7549L965.055 81.7227L965.773 111.688H968.145C968.421 111.688 968.645 111.912 968.645 112.188C968.644 112.464 968.42 112.688 968.145 112.688H950.605C950.33 112.688 950.106 112.464 950.105 112.188C950.105 111.912 950.329 111.689 950.605 111.688H964.772L964.35 94.0244H920.103C919.827 94.0243 919.603 93.8004 919.603 93.5244C919.603 93.2483 919.826 93.0245 920.103 93.0244H964.022V81.6162L909.354 75.9883V111.688H942.979C943.256 111.688 943.479 111.912 943.479 112.188C943.479 112.464 943.255 112.688 942.979 112.688H892.616C892.34 112.688 892.117 112.464 892.116 112.188C892.116 111.912 892.34 111.688 892.616 111.688H908.354V75.8857L883.078 73.2832V112.688H864.007C863.731 112.688 863.507 112.464 863.507 112.188C863.507 111.912 863.731 111.689 864.007 111.688H882.078V91.7744H864.007C863.731 91.7744 863.507 91.5504 863.507 91.2744C863.507 90.9985 863.731 90.7745 864.007 90.7744H882.078V73.1807L855.473 70.4424V111.688H857.984C858.26 111.689 858.484 111.912 858.484 112.188C858.484 112.464 858.26 112.688 857.984 112.688H836.903C836.627 112.688 836.404 112.464 836.403 112.188C836.403 111.912 836.627 111.689 836.903 111.688H854.473V70.3389L824.019 67.2041V111.688H829.04C829.316 111.688 829.54 111.912 829.54 112.188C829.54 112.464 829.316 112.688 829.04 112.688H806.956C806.68 112.688 806.456 112.464 806.456 112.188C806.456 111.912 806.68 111.688 806.956 111.688H823.019V67.1016L739.74 58.5283V112.684H786.295C786.571 112.684 786.795 112.908 786.795 113.184C786.795 113.46 786.571 113.684 786.295 113.684H717.197C716.921 113.684 716.697 113.46 716.697 113.184C716.697 112.908 716.921 112.684 717.197 112.684H738.74V58.4258L705.5 55.0039V112.022C705.5 112.298 705.276 112.522 705 112.522C704.724 112.522 704.5 112.298 704.5 112.022V101.312H695.825C695.549 101.312 695.325 101.088 695.325 100.812C695.325 100.537 695.549 100.313 695.825 100.312H704.5V54.9014L689.348 53.3418L676.748 60.2412ZM1138.76 491.692L1168.61 495.948V464.522H1154.48V466.97C1154.48 467.246 1154.25 467.47 1153.98 467.47C1153.7 467.469 1153.48 467.245 1153.48 466.97V464.522H1138.76V491.692ZM969.972 467.5C969.972 467.542 969.965 467.583 969.955 467.622L1071.04 482.035L1040.03 450.59L969.972 449.456V467.5ZM1138.76 463.522H1153.48V459.61H1138.76V463.522ZM1154.48 463.522H1168.61V459.61H1154.48V463.522ZM873.116 453.813L924.759 461.177C924.619 461.088 924.525 460.934 924.524 460.756V373.996L873.116 373.39V453.813ZM1138.76 458.61H1153.48V454.895H1138.76V458.61ZM1154.48 458.61H1168.61V454.895H1154.48V458.61ZM1138.76 453.895H1153.48V449.196H1138.76V453.895ZM1154.48 453.895H1168.61V449.196H1154.48V453.895ZM794.128 442.169C794.128 442.311 794.068 442.437 793.973 442.528L872.116 453.671V373.378L794.128 372.459V442.169ZM1174.32 415.579H1234.45L1242.11 374.53H1174.32V415.579ZM703.24 293.573C698.38 297.414 693.138 300.813 687.584 303.712L736.116 375.859L757.291 358.766L703.24 293.573ZM717.724 279.439C713.633 284.378 709.037 288.901 704.021 292.948L758.069 358.138L776.271 343.445L771.188 337.888C771.145 337.854 771.108 337.814 771.079 337.769L736.986 300.498C736.717 300.491 736.5 300.272 736.5 300V299.966L717.724 279.439ZM759.5 266.5H833V210.5H759.5V266.5ZM696.975 142C719.138 157.229 734.599 181.505 738.033 209.5H833V142H696.975ZM1285.79 147.104H1301.77L1308.31 117.058L1285.79 114.739V147.104ZM668.823 64.582L660.502 100.312H675.748V60.7891L668.823 64.582Z" fill="white" fill-opacity="0.8"/>
<path fill-rule="evenodd" clip-rule="evenodd" d="M467.35 219.457C508.047 216.491 540.477 217.196 555.273 223.82C552.653 268.376 598.622 311.707 651.722 311.707C651.933 311.972 652.147 312.246 652.364 312.526C652.383 312.524 652.401 312.523 652.42 312.521L652.427 312.581C652.687 312.655 652.918 312.833 653.049 313.095L653.544 314.083C674.556 342.46 717.835 432.98 706.582 456.65C706.472 457.401 706.355 458.159 706.226 458.926L706.109 459.612L705.426 459.742C649.481 470.335 530.251 480.201 378.092 480.255C280.555 480.29 169.487 476.294 52.8828 465.87L51.335 465.731L52.1025 464.381C89.3801 398.704 110.253 361.187 147.171 276.82L147.361 276.384L147.82 276.257C190.879 264.362 260.158 246.793 333.999 234.262C378.34 226.737 424.359 221.026 467.35 219.457ZM381.689 229.05C365.841 231.149 349.987 233.577 334.333 236.233C326.562 237.552 318.842 238.931 311.197 240.349C334.504 236.219 358.373 232.364 381.689 229.05Z" fill="white" fill-opacity="0.8"/>
<path fill-rule="evenodd" clip-rule="evenodd" d="M232.884 5.64746V12.6084L253.256 32.5654L340.31 41.0156L362.514 11.9844H362.521L444.205 19.292L444.251 19.2969L444.297 19.3047L618.097 51.332L618.253 51.3604L618.392 51.4365L629.221 57.3018L622.71 128.568C622.68 128.898 622.492 129.175 622.228 129.334L622.229 129.341C622.223 129.342 622.216 129.343 622.21 129.345C622.042 129.441 621.844 129.49 621.637 129.474C611.589 131.753 602.151 135.64 593.607 140.849C593.55 141.062 593.358 141.22 593.127 141.22H593.007C571.868 154.324 556.297 175.559 550.669 200.558L550.658 200.555C550.551 200.968 550.184 201.281 549.735 201.301L458.565 205.368C458.555 205.372 458.545 205.378 458.535 205.382C458.413 205.432 458.284 205.429 458.17 205.386L290.296 212.877L290.258 212.878C290.255 212.878 290.252 212.878 290.249 212.878L290.176 212.882L290.082 212.863C290.071 212.862 290.06 212.861 290.05 212.859L150.824 185.358L150.594 185.033C100.534 114.531 66.587 74.2389 1.5459 1.72363L0 0H0.0078125L232.884 5.64746ZM75 82.8809C101.134 114.283 124.071 144.228 152.001 183.551L290.328 210.873L370 207.317V182.636C361.633 184.634 348.325 185.578 334.738 182.097C320.868 178.542 306.693 170.371 297.213 154H188.487L188.475 153.999C178.533 153.493 156.246 146.937 146.542 124.7L146.5 124.604V42H75V82.8809ZM253 54C253 54.2761 252.776 54.5 252.5 54.5C252.224 54.5 252 54.2761 252 54V46.8555H238.202C237.669 56.3051 229.839 63.8037 220.256 63.8037C215.024 63.8037 210.314 61.5678 207.029 58H147.5V113.5H295.5V134.5H197.5V114.5H147.5V124.393C157.013 146.069 178.791 152.5 188.51 153H297.79L297.934 153.251C307.254 169.512 321.253 177.609 334.986 181.128C348.733 184.65 362.198 183.581 370.378 181.516L371 181.358V207.273L460.722 203.27C465.875 200.635 471.954 196.023 475.882 189.521C480.439 181.978 482.128 171.851 476.029 159.196C471.252 158.479 468.3 156.027 466.908 152.961C465.612 150.104 465.695 146.77 466.837 143.926H444.771C444.494 143.926 444.271 143.702 444.271 143.426C444.271 143.15 444.494 142.926 444.771 142.926H467.295C468.583 140.413 470.762 138.38 473.619 137.64C476.558 136.878 480.12 137.507 484.03 140.22H590.841C599.902 134.43 609.996 130.114 620.787 127.616L622.486 109.007L417 110.002V104.5H395.64L395.525 104.158C389.592 86.3569 375.592 79.6311 369.409 78.4922L369 78.416V65H351V64.5C351 56.6452 347.422 54.2671 345.91 53.9922L345.738 53.9609L345.623 53.8281L335.854 42.5947L323.888 41.4326L318.989 41.001C306.439 41.4049 299.055 50.0072 296.947 54.2236L296.809 54.5H292.5V38.3848L253 34.5498V54ZM483.587 141.129C479.802 138.462 476.49 137.929 473.87 138.608C471.242 139.289 469.217 141.213 468.053 143.642C466.733 146.396 466.548 149.748 467.818 152.548C469.078 155.324 471.799 157.622 476.433 158.245L476.698 158.281L476.815 158.521C483.196 171.587 481.5 182.155 476.737 190.039C473.15 195.977 467.839 200.366 462.997 203.168L548.896 199.336C554.544 175.195 569.284 154.556 589.307 141.22H483.717L483.587 141.129ZM198.5 133.5H240V114.5H198.5V133.5ZM241 133.5H267.25V114.5H241V133.5ZM268.25 133.5H294.5V114.5H268.25V133.5ZM341.569 42.6738L341.232 43.1162L341.225 43.1152L340.671 43.0625L337.301 42.7354L346.268 53.0459C348.398 53.5528 351.847 56.4478 351.993 64H370V77.5918C376.617 78.9864 390.352 85.9282 396.356 103.5H418V108.997L586 108.184V47.4512L443.974 21.2793L363.439 14.0742L341.569 42.6738ZM587 108.179L622.578 108.007L627.107 58.4355L617.571 53.2695L587 47.6357V108.179ZM4.58594 2.11133C32.0721 32.7728 53.9959 57.694 74 81.6846V3.79395L4.58594 2.11133ZM220.256 28.8506C219.338 28.8506 218.436 28.9231 217.558 29.0635C209.464 30.3562 203.279 37.3697 203.279 45.8271L203.285 46.2656C203.514 55.2934 210.79 62.5694 219.818 62.7979L220.256 62.8037C229.485 62.8037 236.995 55.4389 237.228 46.2656L237.232 45.8271C237.232 42.3429 236.183 39.1032 234.383 36.4082C233.207 34.6489 231.712 33.1215 229.979 31.9092C227.398 30.1022 224.289 28.9945 220.931 28.8633L220.256 28.8506ZM151 32.5V42H147.5V57H206.173C203.736 53.9321 202.279 50.0497 202.279 45.8271C202.279 44.0537 202.536 42.3399 203.015 40.7217C203.003 40.7144 202.99 40.7086 202.979 40.7002L192.079 32.5H151ZM293.5 53.5H296.197C298.292 49.5392 304.383 42.4886 314.415 40.5127L293.5 38.4824V53.5ZM243.29 38.6592C244.163 40.8109 244.915 43.2041 245.526 45.8555H252V34.7539L243.29 38.6592ZM237.63 41.1963C238.023 42.674 238.232 44.2265 238.232 45.8271C238.232 45.8365 238.232 45.8461 238.232 45.8555H244.499C243.911 43.3537 243.198 41.097 242.377 39.0684L237.63 41.1963ZM75 41H150V5.63672L75 3.81836V41ZM235.422 36.1768C236.221 37.4309 236.869 38.7905 237.341 40.2305L241.988 38.1465C241.144 36.2078 240.199 34.4891 239.171 32.9736L235.422 36.1768ZM202.016 31.1533C200.467 32.6603 199.209 34.2879 198.337 35.9561L203.343 39.7227C203.984 37.9465 204.897 36.2999 206.031 34.834L202.016 31.1533ZM239.936 32.3203C241.023 33.9103 242.018 35.7106 242.901 37.7373L251.621 33.8281L248.812 31.0195L245.386 27.6631L239.936 32.3203ZM196.079 25.7119C194.487 27.8087 193.358 29.889 192.654 31.6816L197.528 35.3477C198.442 33.6416 199.724 31.995 201.277 30.4766L196.079 25.7119ZM230.894 31.334C232.416 32.4533 233.755 33.808 234.858 35.3428L238.592 32.1533C237.479 30.6362 236.28 29.3394 235.016 28.2451C234.497 27.7961 233.967 27.3806 233.427 26.9971L230.894 31.334ZM208.711 26.3975C208.171 26.6745 207.642 26.966 207.126 27.2715C205.52 28.2226 204.047 29.3041 202.748 30.4688L206.666 34.0596C207.975 32.5495 209.532 31.2602 211.272 30.2539L208.711 26.3975ZM233.933 26.1299C234.524 26.546 235.104 26.9985 235.671 27.4893C236.978 28.6213 238.211 29.9543 239.354 31.502L244.669 26.96L237.532 19.9688L233.933 26.1299ZM151 31.5H191.653C193.269 27.2614 197.158 21.4893 203.764 17.4482C206.781 15.6023 210.359 14.1234 214.536 13.3125C214.559 13.093 214.724 12.9069 214.952 12.8701C215.174 12.8345 215.383 12.9516 215.478 13.1426C218.781 12.5932 222.444 12.4583 226.486 12.8809C226.554 12.863 226.627 12.8582 226.7 12.8711C226.751 12.88 226.798 12.8984 226.842 12.9209C228.182 13.0711 229.564 13.2813 230.988 13.5586L230.876 13.4492V7.59863L151 5.66113V31.5ZM224.488 28.3525C226.501 28.8385 228.382 29.6639 230.067 30.7637L232.596 26.4365C230.298 24.9681 227.838 24.0497 225.324 23.5889L224.488 28.3525ZM203.614 18.7256C200.773 20.5686 198.483 22.7376 196.7 24.9248L202.008 29.79C203.38 28.551 204.932 27.4086 206.616 26.4111C207.117 26.1144 207.631 25.8306 208.154 25.5596L203.614 18.7256ZM216.196 23.7529C213.912 24.2181 211.69 24.9752 209.615 25.9531L212.154 29.7754C213.632 29.028 215.228 28.4785 216.905 28.1621L216.196 23.7529ZM221.011 23.2295C219.728 23.244 218.446 23.3621 217.18 23.5713L217.894 28.0068C218.667 27.9052 219.455 27.8506 220.256 27.8506C221.366 27.8506 222.454 27.9535 223.509 28.1465L224.337 23.4316C223.233 23.2818 222.122 23.2169 221.011 23.2295ZM225.498 22.6045C228.122 23.0846 230.694 24.041 233.101 25.5723L236.795 19.248L232.315 14.8594C230.48 14.4486 228.715 14.1457 227.019 13.9453L225.498 22.6045ZM214.676 14.3037C210.715 15.0791 207.325 16.4721 204.463 18.1963L209.056 25.1104C211.248 24.0644 213.606 23.2559 216.037 22.7646L214.676 14.3037ZM226.021 13.8379C222.218 13.47 218.77 13.6111 215.66 14.127L217.021 22.584C218.334 22.3671 219.665 22.2446 220.999 22.2295C222.17 22.2162 223.343 22.286 224.51 22.4463L226.021 13.8379Z" fill="white" fill-opacity="0.8"/>
</svg>
