<svg width="1294" height="508" viewBox="0 0 1294 508" fill="none" xmlns="http://www.w3.org/2000/svg">
<path d="M1108.83 435.256C1109.1 435.256 1109.33 435.48 1109.33 435.756V492.504C1109.33 492.78 1109.1 493.004 1108.83 493.004C1108.55 493.004 1108.33 492.78 1108.33 492.504V435.756C1108.33 435.48 1108.55 435.256 1108.83 435.256Z" fill="white" fill-opacity="0.8"/>
<path d="M1062.11 411.76C1062.38 411.76 1062.61 411.984 1062.61 412.26C1062.61 412.535 1062.38 412.76 1062.11 412.76H1035.12V445.51C1035.12 445.786 1034.9 446.01 1034.62 446.01C1034.35 446.01 1034.12 445.786 1034.12 445.51V412.76H1029.12C1028.84 412.76 1028.62 412.536 1028.62 412.26C1028.62 411.984 1028.84 411.76 1029.12 411.76H1062.11Z" fill="white" fill-opacity="0.8"/>
<path d="M940.898 345.061C949.847 345.061 957.102 352.315 957.102 361.264C957.101 370.212 949.847 377.467 940.898 377.467C931.95 377.467 924.695 370.212 924.695 361.264C924.695 352.315 931.95 345.061 940.898 345.061Z" fill="white" fill-opacity="0.8"/>
<path fill-rule="evenodd" clip-rule="evenodd" d="M1069.47 145.665C1069.75 145.665 1069.97 145.889 1069.97 146.165C1069.97 146.441 1069.75 146.665 1069.47 146.665H1028.52V163.944H1046.17V203.831C1046.23 203.916 1046.27 204.022 1046.27 204.138C1046.27 204.253 1046.23 204.359 1046.17 204.443V237.459H1071.32V257.694C1071.4 257.783 1071.45 257.9 1071.45 258.028C1071.45 258.157 1071.4 258.272 1071.32 258.36V277.22C1071.4 277.308 1071.45 277.425 1071.45 277.554C1071.45 277.682 1071.4 277.797 1071.32 277.886V296.901C1071.4 296.99 1071.45 297.107 1071.45 297.235C1071.45 297.364 1071.4 297.479 1071.32 297.567V317.064C1071.4 317.153 1071.45 317.27 1071.45 317.398C1071.45 317.527 1071.4 317.642 1071.32 317.73V374.39H1036.58V317.808H1028.52V323.187L1028.34 323.337L1017.61 332.099L1017.47 332.211H862.586V145.665H1069.47ZM1037.58 373.39H1070.32V317.898H1045.77C1045.67 317.898 1045.57 317.864 1045.49 317.808H1037.58V373.39ZM863.586 331.211H1017.12L1027.52 322.712V317.465C1027.5 317.415 1027.49 317.363 1027.49 317.308C1027.49 317.252 1027.5 317.2 1027.52 317.15V164.598C1027.5 164.549 1027.49 164.498 1027.49 164.444C1027.49 164.39 1027.5 164.339 1027.52 164.29V146.665H863.586V331.211ZM1046.17 316.898H1070.32V297.735H1046.17V316.898ZM1028.52 316.808H1045.17V280.554H1028.52V316.808ZM1046.17 279.746C1046.23 279.831 1046.27 279.938 1046.27 280.054C1046.27 280.169 1046.23 280.274 1046.17 280.358V296.735H1070.32V278.054H1046.17V279.746ZM1028.52 279.554H1045.17V243.689H1028.52V279.554ZM1046.17 277.054H1070.32V258.528H1046.17V277.054ZM1046.17 242.882C1046.23 242.967 1046.27 243.073 1046.27 243.189C1046.27 243.305 1046.23 243.41 1046.17 243.494V257.528H1070.32V238.459H1046.17V242.882ZM1028.52 242.689H1045.17V204.638H1028.52V242.689ZM1028.52 203.638H1045.17V164.944H1028.52V203.638Z" fill="white" fill-opacity="0.8"/>
<path d="M803.145 282.117C818.913 282.117 831.695 294.9 831.695 310.668C831.695 326.436 818.913 339.219 803.145 339.219C787.376 339.219 774.594 326.436 774.594 310.668C774.594 294.9 787.376 282.117 803.145 282.117Z" fill="white" fill-opacity="0.8"/>
<path d="M1104.83 244.654C1105.11 244.655 1105.33 244.878 1105.33 245.154V320.845C1105.33 321.121 1105.11 321.345 1104.83 321.345C1104.56 321.345 1104.33 321.121 1104.33 320.845V245.154C1104.33 244.878 1104.56 244.654 1104.83 244.654Z" fill="white" fill-opacity="0.8"/>
<path fill-rule="evenodd" clip-rule="evenodd" d="M842.352 269.575H766.852V214.406H745.352C745.075 214.406 744.852 214.182 744.852 213.906C744.852 213.63 745.076 213.406 745.352 213.406H841.352V148.107H704.352C704.075 148.107 703.852 147.884 703.852 147.607C703.852 147.331 704.075 147.107 704.352 147.107H842.352V269.575ZM767.852 268.575H841.352V214.406H767.852V268.575Z" fill="white" fill-opacity="0.8"/>
<path d="M1104.83 144.634C1105.11 144.634 1105.33 144.858 1105.33 145.134V174.87C1105.33 175.146 1105.11 175.37 1104.83 175.37C1104.56 175.37 1104.33 175.146 1104.33 174.87V145.134C1104.33 144.858 1104.56 144.634 1104.83 144.634Z" fill="white" fill-opacity="0.8"/>
<path fill-rule="evenodd" clip-rule="evenodd" d="M723.811 56.8398L1293.64 117.871L1240.04 382.266H1240.04L1231.99 423.963H1231.58L1228.82 437.602C1228.89 437.688 1228.93 437.796 1228.93 437.916C1228.93 438.107 1228.82 438.27 1228.67 438.354L1220.01 481.046L1188.72 507.393L1188.27 507.325L884.359 461.803L884.222 461.736L732 387.935L731.852 387.729L676.905 311.375C676.583 310.927 676.685 310.302 677.133 309.979C677.364 309.813 677.641 309.76 677.9 309.809C698.045 300.363 706.28 295.048 716.562 285.626C729.766 270.031 737.771 250.124 737.771 228.028C737.771 179.704 701.379 139.879 654.507 134.464C654.376 134.488 654.238 134.487 654.1 134.455C654.04 134.441 653.982 134.421 653.928 134.397C653.91 134.396 653.893 134.394 653.875 134.392L653.877 134.373C653.474 134.17 653.246 133.714 653.353 133.255L668.136 69.7764L668.741 69.6357L723.477 56.8604L723.643 56.8223L723.811 56.8398ZM713.852 61.1602V119.076C713.851 119.352 713.628 119.576 713.352 119.576C713.076 119.576 712.852 119.352 712.852 119.076V108.728H704.177C703.901 108.727 703.677 108.503 703.677 108.228C703.677 107.952 703.901 107.728 704.177 107.728H712.852V61.3936L685.075 67.876C685.09 67.9227 685.1 67.972 685.1 68.0234V107.728H691.964C692.24 107.728 692.464 107.951 692.464 108.228C692.464 108.504 692.24 108.728 691.964 108.728H668.18C667.904 108.728 667.68 108.504 667.68 108.228C667.68 107.951 667.904 107.728 668.18 107.728H684.1V68.1035L669.801 71.4414L655.562 132.576C684.308 136.149 709.116 152.404 724.217 175.566C724.187 175.152 724.172 174.734 724.172 174.312C724.172 164.76 731.916 157.016 741.469 157.016C751.022 157.016 758.766 164.76 758.766 174.312C758.765 183.865 751.021 191.609 741.469 191.609C737.609 191.609 734.045 190.344 731.167 188.207C736.693 200.341 739.771 213.825 739.771 228.028C739.771 250.646 731.564 271.025 718.047 286.969L718.007 287.017L717.96 287.06C717.344 287.624 716.734 288.174 716.13 288.712L775.332 351.354L755.905 366.53L755.906 366.531L732.633 385.391L733.328 386.356L884.958 459.87L977.323 473.705V412.76H972.074C971.798 412.76 971.575 412.536 971.574 412.26C971.574 411.984 971.798 411.76 972.074 411.76H1013.55C1013.83 411.76 1014.05 411.984 1014.05 412.26C1014.05 412.536 1013.83 412.76 1013.55 412.76H978.323V456.1L1048.6 457.201L1048.8 457.205L1048.94 457.345L1080.61 488.43V411.76H1109.33V420.461C1109.33 420.737 1109.1 420.961 1108.83 420.961C1108.55 420.961 1108.33 420.737 1108.33 420.461V412.76H1081.61V489.326L1133.81 497.146V438.416H1127.44C1127.16 438.416 1126.94 438.192 1126.94 437.916C1126.94 437.64 1127.16 437.416 1127.44 437.416H1136.87C1137.14 437.416 1137.37 437.64 1137.37 437.916C1137.37 438.192 1137.14 438.416 1136.87 438.416H1134.81V454.532H1149.53V451.419C1149.53 451.143 1149.76 450.919 1150.03 450.919C1150.31 450.919 1150.53 451.143 1150.53 451.419V454.532H1164.66V438.416H1146.69C1146.42 438.416 1146.19 438.192 1146.19 437.916C1146.19 437.64 1146.42 437.416 1146.69 437.416H1173.61C1173.89 437.416 1174.11 437.64 1174.11 437.916C1174.11 438.192 1173.89 438.416 1173.61 438.416H1165.66V501.625C1165.66 501.728 1165.63 501.824 1165.58 501.903L1188.12 505.28L1218.19 479.964L1226.61 438.416H1181.47C1181.19 438.416 1180.97 438.192 1180.97 437.916C1180.97 437.64 1181.19 437.416 1181.47 437.416H1226.81L1229.54 423.963H1169.38V379.462H1163.59C1163.31 379.462 1163.09 379.238 1163.09 378.962C1163.09 378.686 1163.31 378.462 1163.59 378.462H1170.38V382.266H1238L1269.6 226.391H1265.59V202.749H1228.39V197.575C1228.39 197.299 1228.61 197.075 1228.89 197.075C1229.16 197.075 1229.39 197.299 1229.39 197.575V201.749H1266.59V225.391H1269.8L1291.25 119.626L1221.72 112.179V151.166H1229.39V177.232C1229.39 177.508 1229.16 177.732 1228.89 177.732C1228.61 177.732 1228.39 177.508 1228.39 177.232V152.166H1220.72V112.071L1165.03 106.106V337.902H1150.37V369.666H1104.83C1104.56 369.666 1104.33 369.442 1104.33 369.166C1104.33 368.89 1104.56 368.666 1104.83 368.666H1149.37V337.902H1105.33V359.028C1105.33 359.304 1105.11 359.528 1104.83 359.528C1104.56 359.528 1104.33 359.304 1104.33 359.028V331.32C1104.33 331.044 1104.56 330.82 1104.83 330.82C1105.11 330.821 1105.33 331.044 1105.33 331.32V336.902H1164.03V227.407H1104.83C1104.56 227.407 1104.33 227.183 1104.33 226.907C1104.33 226.631 1104.56 226.407 1104.83 226.407H1164.03V187.196H1105.33V211.01C1105.33 211.286 1105.11 211.51 1104.83 211.51C1104.56 211.51 1104.33 211.286 1104.33 211.01V186.196H1164.03V134.483H1104.83C1104.56 134.483 1104.33 134.259 1104.33 133.983C1104.33 133.707 1104.56 133.483 1104.83 133.483H1164.03V105.999L1105.33 99.7129V122.322C1105.33 122.598 1105.11 122.822 1104.83 122.822C1104.56 122.822 1104.33 122.598 1104.33 122.322V99.6055L1058.94 94.7432V118.737H1095.71C1095.99 118.737 1096.21 118.961 1096.21 119.237C1096.21 119.513 1095.99 119.737 1095.71 119.737H1057.94V94.6367L1013.28 89.8535V118.737H1050.27C1050.55 118.737 1050.77 118.961 1050.77 119.237C1050.77 119.513 1050.55 119.737 1050.27 119.737H1012.28V89.7461L994.154 87.8057V118.737H1004.52C1004.8 118.737 1005.02 118.961 1005.02 119.237C1005.02 119.513 1004.8 119.737 1004.52 119.737H982.787C982.511 119.737 982.287 119.513 982.287 119.237C982.287 118.961 982.511 118.738 982.787 118.737H993.154V87.6982L973.383 85.5811L974.126 118.737H976.496C976.772 118.737 976.996 118.961 976.996 119.237C976.996 119.513 976.772 119.737 976.496 119.737H958.957V118.737H973.125L972.743 101.673H928.454C928.178 101.673 927.954 101.449 927.954 101.173C927.954 100.897 928.178 100.673 928.454 100.673H972.374V85.4727L917.706 79.6172V118.737H951.331C951.607 118.737 951.831 118.961 951.831 119.237C951.831 119.513 951.607 119.737 951.331 119.737H900.968C900.692 119.737 900.468 119.513 900.468 119.237C900.468 118.961 900.692 118.737 900.968 118.737H916.706V79.5107L891.43 76.8037V119.737H872.358C872.082 119.737 871.859 119.513 871.858 119.237C871.858 118.961 872.082 118.737 872.358 118.737H890.43V99.4961H872.358C872.082 99.496 871.859 99.2721 871.858 98.9961C871.858 98.72 872.082 98.4961 872.358 98.4961H890.43V76.6963L863.824 73.8467V118.737H866.336C866.612 118.738 866.836 118.961 866.836 119.237C866.836 119.513 866.612 119.737 866.336 119.737H845.255V118.737H862.824V73.7393L832.37 70.4775V118.737H837.392C837.668 118.737 837.892 118.961 837.892 119.237C837.891 119.513 837.668 119.737 837.392 119.737H815.308C815.032 119.737 814.808 119.513 814.808 119.237C814.808 118.961 815.032 118.737 815.308 118.737H831.37V70.3711L748.092 61.4512V119.701H794.646C794.923 119.701 795.146 119.925 795.146 120.201C795.146 120.477 794.923 120.701 794.646 120.701H725.549V119.701H747.092V61.3447L723.766 58.8467L713.852 61.1602ZM1134.81 497.295L1164.69 501.77C1164.67 501.724 1164.66 501.675 1164.66 501.625V470.366H1150.53V472.719C1150.53 472.995 1150.31 473.219 1150.03 473.219C1149.76 473.219 1149.53 472.995 1149.53 472.719V470.366H1134.81V497.295ZM978.323 473.854L1079.83 489.059L1048.38 458.197L978.323 457.101V473.854ZM1134.81 469.366H1149.53V465.611H1134.81V469.366ZM1150.53 469.366H1164.66V465.611H1150.53V469.366ZM1134.81 464.611H1149.53V461.047H1134.81V464.611ZM1150.53 464.611H1164.66V461.047H1150.53V464.611ZM1134.81 460.047H1149.53V455.532H1134.81V460.047ZM1150.53 460.047H1164.66V455.532H1150.53V460.047ZM1170.38 422.963H1229.74L1237.79 383.266H1170.38V422.963ZM699.355 301.01C694.053 304.156 687.722 307.398 679.343 311.339L732.048 384.577L754.878 366.076L699.355 301.01ZM715.379 289.373C710.598 293.564 706.018 296.989 700.226 300.489L755.66 365.452L773.85 351.241L715.379 289.373Z" fill="white" fill-opacity="0.8"/>
<path d="M318.695 438.038H424.57C424.846 438.038 425.07 438.262 425.07 438.538C425.07 438.814 424.846 439.038 424.57 439.038H318.695V452.387C318.695 452.663 318.471 452.887 318.195 452.887C317.919 452.887 317.695 452.663 317.695 452.387V417.524H318.695V438.038Z" fill="white" fill-opacity="0.8"/>
<path d="M589.188 383.722C598.74 383.722 606.484 391.466 606.484 401.019C606.484 410.571 598.74 418.315 589.188 418.315C579.635 418.315 571.891 410.571 571.891 401.019C571.891 391.466 579.635 383.722 589.188 383.722Z" fill="white" fill-opacity="0.8"/>
<path d="M440.777 274.938V285.58H442.615C442.891 285.58 443.115 285.804 443.115 286.08C443.115 286.356 442.891 286.58 442.615 286.58H440.539L439.626 331.229V351.557L480.246 383.214H516.229V372.59C516.229 372.314 516.453 372.09 516.729 372.09C517.004 372.09 517.228 372.314 517.229 372.59V383.214H562.703L570.066 364.104L552.453 356.454C552.2 356.344 552.085 356.05 552.194 355.797C552.304 355.544 552.598 355.427 552.852 355.537L570.905 363.378L571.345 363.569L563.514 383.894L563.39 384.214H535.212L515.12 410.641L514.967 410.842L514.714 410.838L450.342 409.743L450.179 409.741L431.812 395.782L431.615 395.633V383.214H444.515C444.791 383.214 445.015 383.438 445.015 383.714C445.015 383.99 444.791 384.214 444.515 384.214H432.615V395.137L450.522 408.746L514.477 409.833L533.955 384.214H479.902L479.768 384.108L439.626 352.823V357.752H426.819V352.719C426.819 352.443 427.043 352.219 427.319 352.219C427.595 352.219 427.819 352.443 427.819 352.719V356.752H438.626V331.719H427.819V337.155C427.819 337.431 427.595 337.655 427.319 337.655C427.043 337.655 426.819 337.431 426.819 337.155V330.719H438.637L439.539 286.58H425.146C424.87 286.58 424.646 286.356 424.646 286.08C424.647 285.804 424.871 285.58 425.146 285.58H439.56L439.777 274.929L440.777 274.938Z" fill="white" fill-opacity="0.8"/>
<path d="M400.281 329.14C409.834 329.14 417.578 336.884 417.578 346.437C417.578 355.989 409.834 363.733 400.281 363.733C390.729 363.733 382.985 355.989 382.984 346.437C382.984 336.884 390.728 329.14 400.281 329.14Z" fill="white" fill-opacity="0.8"/>
<path d="M495.062 265.074C520.243 265.074 540.656 285.487 540.656 310.668C540.656 335.849 520.243 356.262 495.062 356.262C469.882 356.262 449.469 335.849 449.469 310.668C449.469 285.487 469.882 265.074 495.062 265.074Z" fill="white" fill-opacity="0.8"/>
<path d="M525.201 345.775C525.306 345.52 525.599 345.399 525.854 345.504L542.266 352.256C542.521 352.361 542.643 352.653 542.538 352.908C542.433 353.164 542.141 353.286 541.886 353.181L525.474 346.429C525.218 346.324 525.096 346.031 525.201 345.775Z" fill="white" fill-opacity="0.8"/>
<path d="M409.465 285.58C409.741 285.58 409.964 285.804 409.965 286.08C409.965 286.356 409.741 286.58 409.465 286.58H400.249C399.973 286.58 399.749 286.356 399.749 286.08C399.749 285.804 399.973 285.58 400.249 285.58H409.465Z" fill="white" fill-opacity="0.8"/>
<path fill-rule="evenodd" clip-rule="evenodd" d="M552.646 254.11C553.126 254.11 553.527 254.449 553.623 254.9L553.66 254.89C565.238 292.631 600.324 319.962 642.156 320.144C642.595 320.028 643.071 320.224 643.293 320.642L673.239 376.939L697.071 420.57L697.193 420.795V421.05C697.193 434.064 697.433 438.393 697.551 440.167C697.607 441.012 697.65 441.399 697.592 441.908C697.543 442.333 697.406 442.956 697.18 444.296L697.063 444.982L696.38 445.111C670.639 449.985 632.425 448.13 584.401 446C577.84 445.709 571.093 445.414 564.167 445.129H413.135C413.059 445.226 412.976 445.33 412.886 445.435C412.572 445.8 412.126 446.275 411.576 446.835C410.473 447.96 408.906 449.479 407.036 451.251C403.293 454.797 398.306 459.387 393.324 463.927C388.341 468.468 383.358 472.963 379.621 476.323C377.753 478.003 376.196 479.399 375.106 480.375C374.562 480.863 374.133 481.247 373.841 481.508C373.695 481.638 373.583 481.738 373.508 481.806C373.47 481.839 373.441 481.866 373.422 481.883C373.412 481.891 373.405 481.898 373.4 481.902C373.398 481.904 373.395 481.907 373.395 481.907L373.394 481.908L373.155 482.12L372.84 482.156C326.255 487.465 278.144 484.908 227.711 479.782C177.206 474.649 124.549 466.963 68.5068 461.953L66.959 461.815L67.7256 460.464C86.3475 427.655 90.8108 416.211 95.2363 402.448C97.805 394.46 100.364 385.684 105.613 371.585C105.606 371.55 105.602 371.514 105.602 371.478C105.602 371.314 105.681 371.17 105.802 371.079C109.641 360.8 114.902 347.713 122.604 330.11L122.715 329.858L122.938 329.698L181.678 287.741L181.809 287.648L181.963 287.601C233.851 271.486 302.763 263.119 370.544 258.776C438.341 254.432 505.079 254.11 552.646 254.11ZM551.945 256.11C504.564 256.114 438.443 256.453 371.242 260.736V285.58H391.033C391.309 285.58 391.533 285.804 391.533 286.08C391.533 286.356 391.309 286.58 391.033 286.58H371.242V379.72H360.262C359.986 379.72 359.762 379.496 359.762 379.22C359.762 378.944 359.986 378.72 360.262 378.72H370.242V260.8C302.702 265.144 234.233 273.487 182.706 289.464L124.326 331.164C116.898 348.15 111.756 360.901 107.974 370.978H121.787C122.063 370.978 122.287 371.202 122.287 371.478C122.287 371.754 122.063 371.978 121.787 371.978H107.601C102.292 386.209 99.725 395.024 97.1406 403.061C92.7217 416.802 88.2523 428.247 70.2275 460.102C97.2582 462.544 123.577 465.608 149.232 468.693V371.978H143.779C143.503 371.977 143.279 371.754 143.279 371.478C143.28 371.202 143.503 370.978 143.779 370.978H150.232V468.813C176.82 472.014 202.695 475.23 227.913 477.793C242.996 479.326 257.861 480.624 272.529 481.554V378.72H292.063V345.601C292.064 345.325 292.287 345.101 292.563 345.101C292.839 345.101 293.063 345.325 293.063 345.601V348.924H320.645V331.719H293.063V338.683C293.063 338.959 292.84 339.183 292.563 339.183C292.287 339.183 292.063 338.959 292.063 338.683V326.85C292.064 326.574 292.288 326.35 292.563 326.35C292.839 326.35 293.063 326.574 293.063 326.85V330.719H320.645V303.502H293.063V320.66C293.063 320.936 292.84 321.16 292.563 321.16C292.287 321.16 292.063 320.936 292.063 320.66V290.44H293.063V302.502H353.731C354.007 302.502 354.231 302.726 354.231 303.002C354.231 303.278 354.007 303.502 353.731 303.502H348.224V310.83C348.223 311.106 348 311.33 347.724 311.33C347.448 311.33 347.224 311.106 347.224 310.83V303.502H321.645V330.719H347.224V324.483H348.224V338.683C348.224 338.959 348 339.183 347.724 339.183C347.448 339.183 347.224 338.959 347.224 338.683V331.719H321.645V348.924H353.731C354.007 348.924 354.231 349.148 354.231 349.424C354.231 349.7 354.007 349.924 353.731 349.924H335.471V363.834H337.458C337.734 363.834 337.958 364.058 337.958 364.334C337.958 364.61 337.734 364.834 337.458 364.834H335.471V378.72H349.679C349.955 378.72 350.178 378.944 350.179 379.22C350.179 379.496 349.955 379.72 349.679 379.72H342.107V406.564H334.592C334.316 406.564 334.092 406.341 334.092 406.064C334.092 405.789 334.316 405.565 334.592 405.564H341.107V379.72H316.934V405.564H321.76C322.036 405.565 322.26 405.789 322.26 406.064C322.26 406.341 322.036 406.564 321.76 406.564H315.934V379.72H273.529V481.617C307.397 483.725 340.224 483.833 372.298 480.203C372.357 480.15 372.428 480.089 372.508 480.018C372.799 479.757 373.227 479.373 373.771 478.886C374.861 477.91 376.417 476.515 378.284 474.836C382.019 471.478 386.998 466.985 391.977 462.448C396.956 457.91 401.932 453.332 405.66 449.799C407.526 448.031 409.072 446.532 410.148 445.435C410.688 444.884 411.098 444.446 411.368 444.132C411.459 444.026 411.525 443.942 411.574 443.878V443.184L412.519 443.131C469.271 439.947 520.371 441.322 564.222 443.129H659.771L642.35 433.749L642.189 433.662L642.122 433.493L630.942 405.366L630.952 405.249L632.696 384.781L619.419 363.117L619.32 362.955L619.353 362.769L621.454 350.812C617.402 347.646 614.797 342.714 614.797 337.174C614.797 329.585 619.684 323.137 626.482 320.807C613.917 318.693 602.21 314.144 591.863 307.66L574.398 351.797L574.212 352.266L551.443 343.008L551.587 342.564L554.712 332.95C554.797 332.688 555.079 332.545 555.342 332.63C555.604 332.715 555.748 332.997 555.663 333.26L552.682 342.431L573.653 350.959L591.004 307.116C581.069 300.741 572.421 292.568 565.515 283.053L549.432 291.695C549.188 291.826 548.885 291.734 548.754 291.491C548.624 291.248 548.715 290.945 548.958 290.814L564.927 282.234C559.327 274.342 554.915 265.55 551.945 256.11ZM633.668 385.148L631.958 405.215L642.983 432.954L661.88 443.129H695.355C695.505 442.287 695.572 441.966 695.604 441.682C695.636 441.402 695.619 441.258 695.556 440.299C695.435 438.475 695.196 434.142 695.193 421.305L674.943 384.231L633.668 385.148ZM649.367 336.319C649.381 336.604 649.391 336.889 649.391 337.174C649.39 346.727 641.646 354.471 632.094 354.471C628.481 354.471 625.128 353.363 622.354 351.469L620.37 362.755L633.484 384.153L674.403 383.243L671.483 377.897L671.479 377.888L649.367 336.319ZM293.063 378.72H309.377V364.834H305.243C304.967 364.834 304.743 364.61 304.743 364.334C304.743 364.058 304.967 363.834 305.243 363.834H309.377V349.924H293.063V378.72ZM310.377 378.72H315.934V364.834H310.377V378.72ZM316.934 378.72H322.15V364.834H316.934V378.72ZM323.15 378.72H328.028V364.834H323.15V378.72ZM329.028 378.72H334.471V364.834H329.028V378.72ZM310.377 363.834H315.934V349.924H310.377V363.834ZM316.934 363.834H322.15V349.924H316.934V363.834ZM323.15 363.834H328.028V349.924H323.15V363.834ZM329.028 363.834H334.471V349.924H329.028V363.834Z" fill="white" fill-opacity="0.8"/>
<path fill-rule="evenodd" clip-rule="evenodd" d="M231.163 8.63574H361.84L446.868 17.1094L595.979 44.1387L627.227 64.9697L627.097 66.501L623.322 135.179C623.312 135.359 623.254 135.524 623.163 135.665L623.245 136.035C587.695 143.857 559.673 171.765 551.685 207.252L551.612 207.235C551.6 207.323 551.588 207.412 551.576 207.5L289.531 213.89L140.31 182.934C90.2199 112.389 65.0552 72.5311 0 0L231.163 8.63574ZM621.34 134.418C621.347 134.416 621.354 134.416 621.36 134.414L621.396 133.757L621.34 134.418Z" fill="white" fill-opacity="0.8"/>
</svg>
